<svg width="440" height="297" viewBox="0 0 440 297" fill="none" xmlns="http://www.w3.org/2000/svg">
<g filter="url(#filter0_d_2_1817)">
<path d="M216.752 54.519C218.348 52.2984 221.652 52.2984 223.248 54.519L243 82H197L216.752 54.519Z" fill="white"/>
<rect x="50" y="82" width="340" height="165" rx="20" fill="white"/>
<path d="M81.736 107.95V121H80.044V109.3H73.402V121H71.71V107.95H81.736ZM89.5673 111.64C90.3473 111.64 91.0373 111.844 91.6373 112.252C92.2373 112.648 92.6993 113.206 93.0233 113.926C93.3593 114.646 93.5273 115.48 93.5273 116.428C93.5273 117.388 93.3533 118.234 93.0053 118.966C92.6693 119.686 92.1953 120.25 91.5833 120.658C90.9833 121.054 90.2933 121.252 89.5133 121.252C88.8653 121.252 88.2713 121.108 87.7313 120.82C87.2033 120.52 86.7833 120.106 86.4713 119.578V124.42H84.8873V111.892H86.2553L86.4173 113.548C86.7173 112.96 87.1433 112.498 87.6953 112.162C88.2593 111.814 88.8833 111.64 89.5673 111.64ZM89.1893 120.028C90.0053 120.028 90.6533 119.71 91.1333 119.074C91.6133 118.426 91.8533 117.556 91.8533 116.464C91.8533 115.36 91.6073 114.484 91.1153 113.836C90.6353 113.188 89.9873 112.864 89.1713 112.864C88.3553 112.864 87.7013 113.194 87.2093 113.854C86.7173 114.514 86.4713 115.39 86.4713 116.482C86.4713 117.55 86.7173 118.408 87.2093 119.056C87.7013 119.704 88.3613 120.028 89.1893 120.028ZM102.23 111.892H103.814V121H102.266V113.872L97.3877 121H95.7857V111.892H97.3517V119.02L102.23 111.892ZM120.495 119.776V123.088H119.001V121H112.161V123.088H110.649V119.776H111.603C112.191 119.2 112.599 118.528 112.827 117.76C113.067 116.992 113.187 115.972 113.187 114.7V111.892H119.181V119.776H120.495ZM114.627 114.862C114.627 115.99 114.519 116.95 114.303 117.742C114.087 118.534 113.769 119.212 113.349 119.776H117.597V113.116H114.627V114.862ZM121.777 119.614H121.993C122.569 119.614 123.043 119.326 123.415 118.75C123.787 118.162 123.973 117.082 123.973 115.51V111.892H129.841V121H128.257V113.116H125.413V115.69C125.413 117.166 125.167 118.42 124.675 119.452C124.183 120.484 123.331 121 122.119 121H121.777V119.614ZM139.161 111.892H140.745V121H139.197V113.872L134.319 121H132.717V111.892H134.283V119.02L139.161 111.892ZM150.509 111.892V113.098H147.287V121H145.685V113.098H142.445V111.892H150.509ZM159.581 116.05C159.581 116.242 159.569 116.458 159.545 116.698H152.867C152.927 117.73 153.215 118.546 153.731 119.146C154.247 119.734 154.937 120.028 155.801 120.028C156.317 120.028 156.815 119.902 157.295 119.65C157.775 119.386 158.177 119.014 158.501 118.534L159.527 119.398C159.131 119.998 158.603 120.46 157.943 120.784C157.283 121.096 156.563 121.252 155.783 121.252C154.883 121.252 154.091 121.054 153.407 120.658C152.735 120.25 152.213 119.68 151.841 118.948C151.469 118.216 151.283 117.37 151.283 116.41C151.283 115.474 151.463 114.646 151.823 113.926C152.183 113.194 152.687 112.63 153.335 112.234C153.995 111.838 154.757 111.64 155.621 111.64C156.413 111.64 157.109 111.82 157.709 112.18C158.309 112.54 158.771 113.056 159.095 113.728C159.419 114.388 159.581 115.162 159.581 116.05ZM157.979 115.546C157.955 114.718 157.733 114.064 157.313 113.584C156.905 113.092 156.329 112.846 155.585 112.846C154.853 112.846 154.253 113.086 153.785 113.566C153.317 114.034 153.029 114.694 152.921 115.546H157.979ZM160.783 119.614H160.999C161.575 119.614 162.049 119.326 162.421 118.75C162.793 118.162 162.979 117.082 162.979 115.51V111.892H168.847V121H167.263V113.116H164.419V115.69C164.419 117.166 164.173 118.42 163.681 119.452C163.189 120.484 162.337 121 161.125 121H160.783V119.614ZM175.125 115.258C176.229 115.258 177.093 115.516 177.717 116.032C178.353 116.548 178.671 117.25 178.671 118.138C178.671 119.014 178.359 119.71 177.735 120.226C177.123 120.742 176.283 121 175.215 121H171.723V111.892H173.307V115.258H175.125ZM175.017 119.776C175.629 119.776 176.109 119.632 176.457 119.344C176.817 119.056 176.997 118.654 176.997 118.138C176.997 117.622 176.823 117.22 176.475 116.932C176.127 116.632 175.641 116.482 175.017 116.482H173.307V119.776H175.017ZM187.147 111.892H188.731V121H187.147V116.95H182.413V121H180.829V111.892H182.413V115.762H187.147V111.892ZM195.384 121.252C194.52 121.252 193.752 121.054 193.08 120.658C192.42 120.25 191.904 119.686 191.532 118.966C191.16 118.234 190.974 117.394 190.974 116.446C190.974 115.51 191.16 114.676 191.532 113.944C191.904 113.212 192.42 112.648 193.08 112.252C193.752 111.844 194.526 111.64 195.402 111.64C196.266 111.64 197.034 111.844 197.706 112.252C198.378 112.648 198.9 113.212 199.272 113.944C199.644 114.664 199.83 115.492 199.83 116.428C199.83 117.376 199.644 118.216 199.272 118.948C198.9 119.68 198.378 120.25 197.706 120.658C197.034 121.054 196.26 121.252 195.384 121.252ZM195.384 120.028C196.224 120.028 196.89 119.698 197.382 119.038C197.886 118.378 198.138 117.502 198.138 116.41C198.138 115.342 197.886 114.484 197.382 113.836C196.878 113.188 196.212 112.864 195.384 112.864C194.556 112.864 193.89 113.194 193.386 113.854C192.894 114.502 192.648 115.366 192.648 116.446C192.648 117.526 192.894 118.396 193.386 119.056C193.89 119.704 194.556 120.028 195.384 120.028ZM209.677 111.892H211.927V121H210.379V113.764L207.589 121H206.311L203.557 113.8V121H202.081V111.892H204.313L206.959 119.128L209.677 111.892ZM223.632 121.252C222.768 121.252 222 121.054 221.328 120.658C220.668 120.25 220.152 119.686 219.78 118.966C219.408 118.234 219.222 117.394 219.222 116.446C219.222 115.51 219.408 114.676 219.78 113.944C220.152 113.212 220.668 112.648 221.328 112.252C222 111.844 222.774 111.64 223.65 111.64C224.514 111.64 225.282 111.844 225.954 112.252C226.626 112.648 227.148 113.212 227.52 113.944C227.892 114.664 228.078 115.492 228.078 116.428C228.078 117.376 227.892 118.216 227.52 118.948C227.148 119.68 226.626 120.25 225.954 120.658C225.282 121.054 224.508 121.252 223.632 121.252ZM223.632 120.028C224.472 120.028 225.138 119.698 225.63 119.038C226.134 118.378 226.386 117.502 226.386 116.41C226.386 115.342 226.134 114.484 225.63 113.836C225.126 113.188 224.46 112.864 223.632 112.864C222.804 112.864 222.138 113.194 221.634 113.854C221.142 114.502 220.896 115.366 220.896 116.446C220.896 117.526 221.142 118.396 221.634 119.056C222.138 119.704 222.804 120.028 223.632 120.028ZM236.906 111.892V113.098H233.684V121H232.082V113.098H228.842V111.892H236.906ZM242.233 121.252C241.333 121.252 240.535 121.048 239.839 120.64C239.155 120.232 238.621 119.662 238.237 118.93C237.865 118.198 237.679 117.364 237.679 116.428C237.679 115.492 237.871 114.664 238.255 113.944C238.639 113.212 239.173 112.648 239.857 112.252C240.541 111.844 241.327 111.64 242.215 111.64C243.007 111.64 243.715 111.808 244.339 112.144C244.963 112.48 245.449 112.954 245.797 113.566L244.699 114.34C244.051 113.356 243.235 112.864 242.251 112.864C241.387 112.864 240.685 113.194 240.145 113.854C239.617 114.502 239.353 115.348 239.353 116.392C239.353 117.1 239.473 117.73 239.713 118.282C239.965 118.834 240.307 119.266 240.739 119.578C241.183 119.878 241.693 120.028 242.269 120.028C243.277 120.028 244.093 119.53 244.717 118.534L245.815 119.326C245.467 119.95 244.981 120.43 244.357 120.766C243.745 121.09 243.037 121.252 242.233 121.252ZM255.31 111.892L251.206 122.242C250.87 123.082 250.474 123.694 250.018 124.078C249.574 124.474 249.034 124.672 248.398 124.672C247.918 124.672 247.426 124.552 246.922 124.312L247.318 123.088C247.462 123.196 247.624 123.28 247.804 123.34C247.984 123.412 248.146 123.448 248.29 123.448C248.722 123.448 249.082 123.298 249.37 122.998C249.67 122.698 249.934 122.2 250.162 121.504L250.234 121.324L246.454 111.892H248.164L250.936 119.434L253.744 111.892H255.31ZM263.836 111.892V113.098H260.614V121H259.012V113.098H255.772V111.892H263.836ZM269.163 121.252C268.263 121.252 267.465 121.048 266.769 120.64C266.085 120.232 265.551 119.662 265.167 118.93C264.795 118.198 264.609 117.364 264.609 116.428C264.609 115.492 264.801 114.664 265.185 113.944C265.569 113.212 266.103 112.648 266.787 112.252C267.471 111.844 268.257 111.64 269.145 111.64C269.937 111.64 270.645 111.808 271.269 112.144C271.893 112.48 272.379 112.954 272.727 113.566L271.629 114.34C270.981 113.356 270.165 112.864 269.181 112.864C268.317 112.864 267.615 113.194 267.075 113.854C266.547 114.502 266.283 115.348 266.283 116.392C266.283 117.1 266.403 117.73 266.643 118.282C266.895 118.834 267.237 119.266 267.669 119.578C268.113 119.878 268.623 120.028 269.199 120.028C270.207 120.028 271.023 119.53 271.647 118.534L272.745 119.326C272.397 119.95 271.911 120.43 271.287 120.766C270.675 121.09 269.967 121.252 269.163 121.252ZM281.502 111.892V113.098H278.28V121H276.678V113.098H273.438V111.892H281.502ZM288.784 116.248C289.456 116.38 289.972 116.638 290.332 117.022C290.692 117.406 290.872 117.874 290.872 118.426C290.872 119.218 290.524 119.848 289.828 120.316C289.144 120.772 288.196 121 286.984 121H283.204V111.892H286.984C288.088 111.892 288.952 112.102 289.576 112.522C290.212 112.942 290.53 113.518 290.53 114.25C290.53 114.73 290.38 115.15 290.08 115.51C289.78 115.858 289.348 116.104 288.784 116.248ZM284.806 113.098V115.69H287.002C287.614 115.69 288.082 115.582 288.406 115.366C288.73 115.138 288.892 114.814 288.892 114.394C288.892 113.986 288.724 113.668 288.388 113.44C288.064 113.212 287.602 113.098 287.002 113.098H284.806ZM287.02 119.794C287.704 119.794 288.238 119.668 288.622 119.416C289.006 119.152 289.198 118.786 289.198 118.318C289.198 117.85 289 117.496 288.604 117.256C288.22 117.016 287.692 116.896 287.02 116.896H284.806V119.794H287.02ZM299.509 111.892H301.093V121H299.545V113.872L294.667 121H293.065V111.892H294.631V119.02L299.509 111.892ZM310.425 111.892H312.009V121H310.461V113.872L305.583 121H303.981V111.892H305.547V119.02L310.425 111.892ZM77.758 136.892H79.342V146H77.758V141.95H73.024V146H71.44V136.892H73.024V140.762H77.758V136.892ZM84.6094 146.252C83.6854 146.252 82.9354 146 82.3594 145.496C81.7954 144.98 81.5134 144.308 81.5134 143.48C81.5134 142.544 81.8854 141.812 82.6294 141.284C83.3854 140.756 84.4354 140.492 85.7794 140.492C86.3794 140.492 86.9794 140.534 87.5794 140.618V140.06C87.5794 139.4 87.3754 138.872 86.9674 138.476C86.5714 138.068 86.0374 137.864 85.3654 137.864C84.9094 137.864 84.4414 137.972 83.9614 138.188C83.4934 138.404 83.0734 138.692 82.7014 139.052L81.8554 137.99C82.3354 137.558 82.8874 137.228 83.5114 137C84.1474 136.76 84.8074 136.64 85.4914 136.64C86.2114 136.64 86.8474 136.778 87.3994 137.054C87.9634 137.33 88.3954 137.714 88.6954 138.206C89.0074 138.698 89.1634 139.268 89.1634 139.916V146H87.7954L87.6694 144.65C87.3574 145.166 86.9374 145.562 86.4094 145.838C85.8814 146.114 85.2814 146.252 84.6094 146.252ZM84.9694 145.082C85.4494 145.082 85.8874 144.968 86.2834 144.74C86.6914 144.5 87.0094 144.182 87.2374 143.786C87.4654 143.378 87.5794 142.928 87.5794 142.436V141.752C87.0034 141.668 86.4814 141.626 86.0134 141.626C85.0654 141.626 84.3394 141.782 83.8354 142.094C83.3434 142.394 83.0974 142.838 83.0974 143.426C83.0974 143.93 83.2654 144.332 83.6014 144.632C83.9494 144.932 84.4054 145.082 84.9694 145.082ZM101.749 136.64C102.529 136.64 103.219 136.844 103.819 137.252C104.419 137.648 104.881 138.206 105.205 138.926C105.541 139.646 105.709 140.48 105.709 141.428C105.709 142.388 105.535 143.234 105.187 143.966C104.851 144.686 104.377 145.25 103.765 145.658C103.165 146.054 102.475 146.252 101.695 146.252C101.047 146.252 100.453 146.108 99.9129 145.82C99.3849 145.52 98.9649 145.106 98.6529 144.578V149.42H97.0689V136.892H98.4369L98.5989 138.548C98.8989 137.96 99.3249 137.498 99.8769 137.162C100.441 136.814 101.065 136.64 101.749 136.64ZM101.371 145.028C102.187 145.028 102.835 144.71 103.315 144.074C103.795 143.426 104.035 142.556 104.035 141.464C104.035 140.36 103.789 139.484 103.297 138.836C102.817 138.188 102.169 137.864 101.353 137.864C100.537 137.864 99.8829 138.194 99.3909 138.854C98.8989 139.514 98.6529 140.39 98.6529 141.482C98.6529 142.55 98.8989 143.408 99.3909 144.056C99.8829 144.704 100.543 145.028 101.371 145.028ZM110.361 146.252C109.437 146.252 108.687 146 108.111 145.496C107.547 144.98 107.265 144.308 107.265 143.48C107.265 142.544 107.637 141.812 108.381 141.284C109.137 140.756 110.187 140.492 111.531 140.492C112.131 140.492 112.731 140.534 113.331 140.618V140.06C113.331 139.4 113.127 138.872 112.719 138.476C112.323 138.068 111.789 137.864 111.117 137.864C110.661 137.864 110.193 137.972 109.713 138.188C109.245 138.404 108.825 138.692 108.453 139.052L107.607 137.99C108.087 137.558 108.639 137.228 109.263 137C109.899 136.76 110.559 136.64 111.243 136.64C111.963 136.64 112.599 136.778 113.151 137.054C113.715 137.33 114.147 137.714 114.447 138.206C114.759 138.698 114.915 139.268 114.915 139.916V146H113.547L113.421 144.65C113.109 145.166 112.689 145.562 112.161 145.838C111.633 146.114 111.033 146.252 110.361 146.252ZM110.721 145.082C111.201 145.082 111.639 144.968 112.035 144.74C112.443 144.5 112.761 144.182 112.989 143.786C113.217 143.378 113.331 142.928 113.331 142.436V141.752C112.755 141.668 112.233 141.626 111.765 141.626C110.817 141.626 110.091 141.782 109.587 142.094C109.095 142.394 108.849 142.838 108.849 143.426C108.849 143.93 109.017 144.332 109.353 144.632C109.701 144.932 110.157 145.082 110.721 145.082ZM121.808 137.162C122.576 137.162 123.26 137.348 123.86 137.72C124.472 138.092 124.946 138.614 125.282 139.286C125.63 139.946 125.804 140.702 125.804 141.554C125.804 142.466 125.618 143.282 125.246 144.002C124.886 144.71 124.382 145.262 123.734 145.658C123.086 146.054 122.342 146.252 121.502 146.252C120.098 146.252 119.036 145.76 118.316 144.776C117.596 143.792 117.236 142.358 117.236 140.474C117.236 138.926 117.392 137.666 117.704 136.694C118.016 135.71 118.526 134.936 119.234 134.372C119.954 133.808 120.932 133.412 122.168 133.184C122.864 133.052 123.41 132.92 123.806 132.788C124.214 132.644 124.538 132.476 124.778 132.284L125.264 133.562C124.976 133.766 124.622 133.946 124.202 134.102C123.782 134.246 123.236 134.378 122.564 134.498C121.16 134.738 120.14 135.224 119.504 135.956C118.88 136.676 118.532 137.714 118.46 139.07C118.772 138.47 119.222 138.002 119.81 137.666C120.398 137.33 121.064 137.162 121.808 137.162ZM121.556 145.028C122.336 145.028 122.954 144.722 123.41 144.11C123.878 143.498 124.118 142.682 124.13 141.662C124.13 140.654 123.902 139.856 123.446 139.268C122.99 138.68 122.354 138.386 121.538 138.386C120.722 138.386 120.08 138.668 119.612 139.232C119.144 139.784 118.91 140.552 118.91 141.536C118.91 142.592 119.15 143.438 119.63 144.074C120.122 144.71 120.764 145.028 121.556 145.028ZM131.839 146.252C130.975 146.252 130.207 146.054 129.535 145.658C128.875 145.25 128.359 144.686 127.987 143.966C127.615 143.234 127.429 142.394 127.429 141.446C127.429 140.51 127.615 139.676 127.987 138.944C128.359 138.212 128.875 137.648 129.535 137.252C130.207 136.844 130.981 136.64 131.857 136.64C132.721 136.64 133.489 136.844 134.161 137.252C134.833 137.648 135.355 138.212 135.727 138.944C136.099 139.664 136.285 140.492 136.285 141.428C136.285 142.376 136.099 143.216 135.727 143.948C135.355 144.68 134.833 145.25 134.161 145.658C133.489 146.054 132.715 146.252 131.839 146.252ZM131.839 145.028C132.679 145.028 133.345 144.698 133.837 144.038C134.341 143.378 134.593 142.502 134.593 141.41C134.593 140.342 134.341 139.484 133.837 138.836C133.333 138.188 132.667 137.864 131.839 137.864C131.011 137.864 130.345 138.194 129.841 138.854C129.349 139.502 129.103 140.366 129.103 141.446C129.103 142.526 129.349 143.396 129.841 144.056C130.345 144.704 131.011 145.028 131.839 145.028ZM145.236 136.892V146H143.634V142.76C142.818 142.928 142.074 143.012 141.402 143.012C140.274 143.012 139.416 142.742 138.828 142.202C138.24 141.65 137.946 140.858 137.946 139.826V136.892H139.548V139.826C139.548 141.134 140.274 141.788 141.726 141.788C142.314 141.788 142.95 141.722 143.634 141.59V136.892H145.236ZM155.784 141.05C155.784 141.242 155.772 141.458 155.748 141.698H149.07C149.13 142.73 149.418 143.546 149.934 144.146C150.45 144.734 151.14 145.028 152.004 145.028C152.52 145.028 153.018 144.902 153.498 144.65C153.978 144.386 154.38 144.014 154.704 143.534L155.73 144.398C155.334 144.998 154.806 145.46 154.146 145.784C153.486 146.096 152.766 146.252 151.986 146.252C151.086 146.252 150.294 146.054 149.61 145.658C148.938 145.25 148.416 144.68 148.044 143.948C147.672 143.216 147.486 142.37 147.486 141.41C147.486 140.474 147.666 139.646 148.026 138.926C148.386 138.194 148.89 137.63 149.538 137.234C150.198 136.838 150.96 136.64 151.824 136.64C152.616 136.64 153.312 136.82 153.912 137.18C154.512 137.54 154.974 138.056 155.298 138.728C155.622 139.388 155.784 140.162 155.784 141.05ZM154.182 140.546C154.158 139.718 153.936 139.064 153.516 138.584C153.108 138.092 152.532 137.846 151.788 137.846C151.056 137.846 150.456 138.086 149.988 138.566C149.52 139.034 149.232 139.694 149.124 140.546H154.182ZM165.626 136.892H167.876V146H166.328V138.764L163.538 146H162.26L159.506 138.8V146H158.03V136.892H160.262L162.908 144.128L165.626 136.892ZM183.397 136.892H185.647V146H184.099V138.764L181.309 146H180.031L177.277 138.8V146H175.801V136.892H178.033L180.679 144.128L183.397 136.892ZM196.196 141.05C196.196 141.242 196.184 141.458 196.16 141.698H189.482C189.542 142.73 189.83 143.546 190.346 144.146C190.862 144.734 191.552 145.028 192.416 145.028C192.932 145.028 193.43 144.902 193.91 144.65C194.39 144.386 194.792 144.014 195.116 143.534L196.142 144.398C195.746 144.998 195.218 145.46 194.558 145.784C193.898 146.096 193.178 146.252 192.398 146.252C191.498 146.252 190.706 146.054 190.022 145.658C189.35 145.25 188.828 144.68 188.456 143.948C188.084 143.216 187.898 142.37 187.898 141.41C187.898 140.474 188.078 139.646 188.438 138.926C188.798 138.194 189.302 137.63 189.95 137.234C190.61 136.838 191.372 136.64 192.236 136.64C193.028 136.64 193.724 136.82 194.324 137.18C194.924 137.54 195.386 138.056 195.71 138.728C196.034 139.388 196.196 140.162 196.196 141.05ZM194.594 140.546C194.57 139.718 194.348 139.064 193.928 138.584C193.52 138.092 192.944 137.846 192.2 137.846C191.468 137.846 190.868 138.086 190.4 138.566C189.932 139.034 189.644 139.694 189.536 140.546H194.594ZM202.366 146.252C201.466 146.252 200.668 146.048 199.972 145.64C199.288 145.232 198.754 144.662 198.37 143.93C197.998 143.198 197.812 142.364 197.812 141.428C197.812 140.492 198.004 139.664 198.388 138.944C198.772 138.212 199.306 137.648 199.99 137.252C200.674 136.844 201.46 136.64 202.348 136.64C203.14 136.64 203.848 136.808 204.472 137.144C205.096 137.48 205.582 137.954 205.93 138.566L204.832 139.34C204.184 138.356 203.368 137.864 202.384 137.864C201.52 137.864 200.818 138.194 200.278 138.854C199.75 139.502 199.486 140.348 199.486 141.392C199.486 142.1 199.606 142.73 199.846 143.282C200.098 143.834 200.44 144.266 200.872 144.578C201.316 144.878 201.826 145.028 202.402 145.028C203.41 145.028 204.226 144.53 204.85 143.534L205.948 144.326C205.6 144.95 205.114 145.43 204.49 145.766C203.878 146.09 203.17 146.252 202.366 146.252ZM214.705 136.892V138.098H211.483V146H209.881V138.098H206.641V136.892H214.705ZM223.776 141.05C223.776 141.242 223.764 141.458 223.74 141.698H217.062C217.122 142.73 217.41 143.546 217.926 144.146C218.442 144.734 219.132 145.028 219.996 145.028C220.512 145.028 221.01 144.902 221.49 144.65C221.97 144.386 222.372 144.014 222.696 143.534L223.722 144.398C223.326 144.998 222.798 145.46 222.138 145.784C221.478 146.096 220.758 146.252 219.978 146.252C219.078 146.252 218.286 146.054 217.602 145.658C216.93 145.25 216.408 144.68 216.036 143.948C215.664 143.216 215.478 142.37 215.478 141.41C215.478 140.474 215.658 139.646 216.018 138.926C216.378 138.194 216.882 137.63 217.53 137.234C218.19 136.838 218.952 136.64 219.816 136.64C220.608 136.64 221.304 136.82 221.904 137.18C222.504 137.54 222.966 138.056 223.29 138.728C223.614 139.388 223.776 140.162 223.776 141.05ZM222.174 140.546C222.15 139.718 221.928 139.064 221.508 138.584C221.1 138.092 220.524 137.846 219.78 137.846C219.048 137.846 218.448 138.086 217.98 138.566C217.512 139.034 217.224 139.694 217.116 140.546H222.174ZM238.505 136.892L234.401 147.242C234.065 148.082 233.669 148.694 233.213 149.078C232.769 149.474 232.229 149.672 231.593 149.672C231.113 149.672 230.621 149.552 230.117 149.312L230.513 148.088C230.657 148.196 230.819 148.28 230.999 148.34C231.179 148.412 231.341 148.448 231.485 148.448C231.917 148.448 232.277 148.298 232.565 147.998C232.865 147.698 233.129 147.2 233.357 146.504L233.429 146.324L229.649 136.892H231.359L234.131 144.434L236.939 136.892H238.505ZM244.187 137.162C244.955 137.162 245.639 137.348 246.239 137.72C246.851 138.092 247.325 138.614 247.661 139.286C248.009 139.946 248.183 140.702 248.183 141.554C248.183 142.466 247.997 143.282 247.625 144.002C247.265 144.71 246.761 145.262 246.113 145.658C245.465 146.054 244.721 146.252 243.881 146.252C242.477 146.252 241.415 145.76 240.695 144.776C239.975 143.792 239.615 142.358 239.615 140.474C239.615 138.926 239.771 137.666 240.083 136.694C240.395 135.71 240.905 134.936 241.613 134.372C242.333 133.808 243.311 133.412 244.547 133.184C245.243 133.052 245.789 132.92 246.185 132.788C246.593 132.644 246.917 132.476 247.157 132.284L247.643 133.562C247.355 133.766 247.001 133.946 246.581 134.102C246.161 134.246 245.615 134.378 244.943 134.498C243.539 134.738 242.519 135.224 241.883 135.956C241.259 136.676 240.911 137.714 240.839 139.07C241.151 138.47 241.601 138.002 242.189 137.666C242.777 137.33 243.443 137.162 244.187 137.162ZM243.935 145.028C244.715 145.028 245.333 144.722 245.789 144.11C246.257 143.498 246.497 142.682 246.509 141.662C246.509 140.654 246.281 139.856 245.825 139.268C245.369 138.68 244.733 138.386 243.917 138.386C243.101 138.386 242.459 138.668 241.991 139.232C241.523 139.784 241.289 140.552 241.289 141.536C241.289 142.592 241.529 143.438 242.009 144.074C242.501 144.71 243.143 145.028 243.935 145.028ZM256.882 136.892H258.466V146H256.918V138.872L252.04 146H250.438V136.892H252.004V144.02L256.882 136.892ZM266.034 136.64C266.814 136.64 267.504 136.844 268.104 137.252C268.704 137.648 269.166 138.206 269.49 138.926C269.826 139.646 269.994 140.48 269.994 141.428C269.994 142.388 269.82 143.234 269.472 143.966C269.136 144.686 268.662 145.25 268.05 145.658C267.45 146.054 266.76 146.252 265.98 146.252C265.332 146.252 264.738 146.108 264.198 145.82C263.67 145.52 263.25 145.106 262.938 144.578V149.42H261.354V136.892H262.722L262.884 138.548C263.184 137.96 263.61 137.498 264.162 137.162C264.726 136.814 265.35 136.64 266.034 136.64ZM265.656 145.028C266.472 145.028 267.12 144.71 267.6 144.074C268.08 143.426 268.32 142.556 268.32 141.464C268.32 140.36 268.074 139.484 267.582 138.836C267.102 138.188 266.454 137.864 265.638 137.864C264.822 137.864 264.168 138.194 263.676 138.854C263.184 139.514 262.938 140.39 262.938 141.482C262.938 142.55 263.184 143.408 263.676 144.056C264.168 144.704 264.828 145.028 265.656 145.028ZM274.647 146.252C273.723 146.252 272.973 146 272.397 145.496C271.833 144.98 271.551 144.308 271.551 143.48C271.551 142.544 271.923 141.812 272.667 141.284C273.423 140.756 274.473 140.492 275.817 140.492C276.417 140.492 277.017 140.534 277.617 140.618V140.06C277.617 139.4 277.413 138.872 277.005 138.476C276.609 138.068 276.075 137.864 275.403 137.864C274.947 137.864 274.479 137.972 273.999 138.188C273.531 138.404 273.111 138.692 272.739 139.052L271.893 137.99C272.373 137.558 272.925 137.228 273.549 137C274.185 136.76 274.845 136.64 275.529 136.64C276.249 136.64 276.885 136.778 277.437 137.054C278.001 137.33 278.433 137.714 278.733 138.206C279.045 138.698 279.201 139.268 279.201 139.916V146H277.833L277.707 144.65C277.395 145.166 276.975 145.562 276.447 145.838C275.919 146.114 275.319 146.252 274.647 146.252ZM275.007 145.082C275.487 145.082 275.925 144.968 276.321 144.74C276.729 144.5 277.047 144.182 277.275 143.786C277.503 143.378 277.617 142.928 277.617 142.436V141.752C277.041 141.668 276.519 141.626 276.051 141.626C275.103 141.626 274.377 141.782 273.873 142.094C273.381 142.394 273.135 142.838 273.135 143.426C273.135 143.93 273.303 144.332 273.639 144.632C273.987 144.932 274.443 145.082 275.007 145.082ZM288.505 136.892H290.089V146H288.541V138.872L283.663 146H282.061V136.892H283.627V144.02L288.505 136.892ZM286.057 135.56C285.241 135.56 284.575 135.32 284.059 134.84C283.555 134.36 283.291 133.73 283.267 132.95H284.527C284.551 133.406 284.701 133.76 284.977 134.012C285.253 134.264 285.619 134.39 286.075 134.39C286.543 134.39 286.909 134.264 287.173 134.012C287.449 133.748 287.599 133.394 287.623 132.95H288.883C288.859 133.73 288.589 134.36 288.073 134.84C287.557 135.32 286.885 135.56 286.057 135.56ZM299.853 136.892V138.098H296.631V146H295.029V138.098H291.789V136.892H299.853ZM308.924 141.05C308.924 141.242 308.912 141.458 308.888 141.698H302.21C302.27 142.73 302.558 143.546 303.074 144.146C303.59 144.734 304.28 145.028 305.144 145.028C305.66 145.028 306.158 144.902 306.638 144.65C307.118 144.386 307.52 144.014 307.844 143.534L308.87 144.398C308.474 144.998 307.946 145.46 307.286 145.784C306.626 146.096 305.906 146.252 305.126 146.252C304.226 146.252 303.434 146.054 302.75 145.658C302.078 145.25 301.556 144.68 301.184 143.948C300.812 143.216 300.626 142.37 300.626 141.41C300.626 140.474 300.806 139.646 301.166 138.926C301.526 138.194 302.03 137.63 302.678 137.234C303.338 136.838 304.1 136.64 304.964 136.64C305.756 136.64 306.452 136.82 307.052 137.18C307.652 137.54 308.114 138.056 308.438 138.728C308.762 139.388 308.924 140.162 308.924 141.05ZM307.322 140.546C307.298 139.718 307.076 139.064 306.656 138.584C306.248 138.092 305.672 137.846 304.928 137.846C304.196 137.846 303.596 138.086 303.128 138.566C302.66 139.034 302.372 139.694 302.264 140.546H307.322ZM77.02 166.248C77.692 166.38 78.208 166.638 78.568 167.022C78.928 167.406 79.108 167.874 79.108 168.426C79.108 169.218 78.76 169.848 78.064 170.316C77.38 170.772 76.432 171 75.22 171H71.44V161.892H75.22C76.324 161.892 77.188 162.102 77.812 162.522C78.448 162.942 78.766 163.518 78.766 164.25C78.766 164.73 78.616 165.15 78.316 165.51C78.016 165.858 77.584 166.104 77.02 166.248ZM73.042 163.098V165.69H75.238C75.85 165.69 76.318 165.582 76.642 165.366C76.966 165.138 77.128 164.814 77.128 164.394C77.128 163.986 76.96 163.668 76.624 163.44C76.3 163.212 75.838 163.098 75.238 163.098H73.042ZM75.256 169.794C75.94 169.794 76.474 169.668 76.858 169.416C77.242 169.152 77.434 168.786 77.434 168.318C77.434 167.85 77.236 167.496 76.84 167.256C76.456 167.016 75.928 166.896 75.256 166.896H73.042V169.794H75.256ZM85.2253 171.252C84.3253 171.252 83.5273 171.048 82.8313 170.64C82.1473 170.232 81.6133 169.662 81.2293 168.93C80.8573 168.198 80.6713 167.364 80.6713 166.428C80.6713 165.492 80.8633 164.664 81.2473 163.944C81.6313 163.212 82.1653 162.648 82.8493 162.252C83.5333 161.844 84.3193 161.64 85.2073 161.64C85.9993 161.64 86.7073 161.808 87.3313 162.144C87.9553 162.48 88.4413 162.954 88.7893 163.566L87.6913 164.34C87.0433 163.356 86.2273 162.864 85.2433 162.864C84.3793 162.864 83.6773 163.194 83.1373 163.854C82.6093 164.502 82.3453 165.348 82.3453 166.392C82.3453 167.1 82.4653 167.73 82.7053 168.282C82.9573 168.834 83.2993 169.266 83.7313 169.578C84.1753 169.878 84.6853 170.028 85.2613 170.028C86.2693 170.028 87.0853 169.53 87.7093 168.534L88.8073 169.326C88.4593 169.95 87.9733 170.43 87.3493 170.766C86.7373 171.09 86.0293 171.252 85.2253 171.252ZM98.356 166.05C98.356 166.242 98.344 166.458 98.32 166.698H91.642C91.702 167.73 91.99 168.546 92.506 169.146C93.022 169.734 93.712 170.028 94.576 170.028C95.092 170.028 95.59 169.902 96.07 169.65C96.55 169.386 96.952 169.014 97.276 168.534L98.302 169.398C97.906 169.998 97.378 170.46 96.718 170.784C96.058 171.096 95.338 171.252 94.558 171.252C93.658 171.252 92.866 171.054 92.182 170.658C91.51 170.25 90.988 169.68 90.616 168.948C90.244 168.216 90.058 167.37 90.058 166.41C90.058 165.474 90.238 164.646 90.598 163.926C90.958 163.194 91.462 162.63 92.11 162.234C92.77 161.838 93.532 161.64 94.396 161.64C95.188 161.64 95.884 161.82 96.484 162.18C97.084 162.54 97.546 163.056 97.87 163.728C98.194 164.388 98.356 165.162 98.356 166.05ZM96.754 165.546C96.73 164.718 96.508 164.064 96.088 163.584C95.68 163.092 95.104 162.846 94.36 162.846C93.628 162.846 93.028 163.086 92.56 163.566C92.092 164.034 91.804 164.694 91.696 165.546H96.754ZM114.395 169.776V173.088H112.901V171H106.061V173.088H104.549V169.776H105.503C106.091 169.2 106.499 168.528 106.727 167.76C106.967 166.992 107.087 165.972 107.087 164.7V161.892H113.081V169.776H114.395ZM108.527 164.862C108.527 165.99 108.419 166.95 108.203 167.742C107.987 168.534 107.669 169.212 107.249 169.776H111.497V163.116H108.527V164.862ZM119.956 171.252C119.092 171.252 118.324 171.054 117.652 170.658C116.992 170.25 116.476 169.686 116.104 168.966C115.732 168.234 115.546 167.394 115.546 166.446C115.546 165.51 115.732 164.676 116.104 163.944C116.476 163.212 116.992 162.648 117.652 162.252C118.324 161.844 119.098 161.64 119.974 161.64C120.838 161.64 121.606 161.844 122.278 162.252C122.95 162.648 123.472 163.212 123.844 163.944C124.216 164.664 124.402 165.492 124.402 166.428C124.402 167.376 124.216 168.216 123.844 168.948C123.472 169.68 122.95 170.25 122.278 170.658C121.606 171.054 120.832 171.252 119.956 171.252ZM119.956 170.028C120.796 170.028 121.462 169.698 121.954 169.038C122.458 168.378 122.71 167.502 122.71 166.41C122.71 165.342 122.458 164.484 121.954 163.836C121.45 163.188 120.784 162.864 119.956 162.864C119.128 162.864 118.462 163.194 117.958 163.854C117.466 164.502 117.22 165.366 117.22 166.446C117.22 167.526 117.466 168.396 117.958 169.056C118.462 169.704 119.128 170.028 119.956 170.028ZM132.917 171L129.857 166.968H128.237V171H126.653V161.892H128.237V165.78H129.821L132.665 161.892H134.537L131.207 166.266L134.843 171H132.917ZM144.005 161.892L139.901 172.242C139.565 173.082 139.169 173.694 138.713 174.078C138.269 174.474 137.729 174.672 137.093 174.672C136.613 174.672 136.121 174.552 135.617 174.312L136.013 173.088C136.157 173.196 136.319 173.28 136.499 173.34C136.679 173.412 136.841 173.448 136.985 173.448C137.417 173.448 137.777 173.298 138.065 172.998C138.365 172.698 138.629 172.2 138.857 171.504L138.929 171.324L135.149 161.892H136.859L139.631 169.434L142.439 161.892H144.005ZM153.251 161.892H155.501V171H153.953V163.764L151.163 171H149.885L147.131 163.8V171H145.655V161.892H147.887L150.533 169.128L153.251 161.892ZM166.049 166.05C166.049 166.242 166.037 166.458 166.013 166.698H159.335C159.395 167.73 159.683 168.546 160.199 169.146C160.715 169.734 161.405 170.028 162.269 170.028C162.785 170.028 163.283 169.902 163.763 169.65C164.243 169.386 164.645 169.014 164.969 168.534L165.995 169.398C165.599 169.998 165.071 170.46 164.411 170.784C163.751 171.096 163.031 171.252 162.251 171.252C161.351 171.252 160.559 171.054 159.875 170.658C159.203 170.25 158.681 169.68 158.309 168.948C157.937 168.216 157.751 167.37 157.751 166.41C157.751 165.474 157.931 164.646 158.291 163.926C158.651 163.194 159.155 162.63 159.803 162.234C160.463 161.838 161.225 161.64 162.089 161.64C162.881 161.64 163.577 161.82 164.177 162.18C164.777 162.54 165.239 163.056 165.563 163.728C165.887 164.388 166.049 165.162 166.049 166.05ZM164.447 165.546C164.423 164.718 164.201 164.064 163.781 163.584C163.373 163.092 162.797 162.846 162.053 162.846C161.321 162.846 160.721 163.086 160.253 163.566C159.785 164.034 159.497 164.694 159.389 165.546H164.447ZM174.613 161.892H176.197V171H174.613V166.95H169.879V171H168.295V161.892H169.879V165.762H174.613V161.892ZM185.947 161.892V163.098H182.725V171H181.123V163.098H177.883V161.892H185.947ZM191.051 165.258C192.155 165.258 193.019 165.516 193.643 166.032C194.279 166.548 194.597 167.25 194.597 168.138C194.597 169.014 194.285 169.71 193.661 170.226C193.049 170.742 192.209 171 191.141 171H187.649V161.892H189.233V165.258H191.051ZM190.943 169.776C191.555 169.776 192.035 169.632 192.383 169.344C192.743 169.056 192.923 168.654 192.923 168.138C192.923 167.622 192.749 167.22 192.401 166.932C192.053 166.632 191.567 166.482 190.943 166.482H189.233V169.776H190.943ZM196.667 161.892H198.269V171H196.667V161.892ZM211.704 166.248C212.376 166.38 212.892 166.638 213.252 167.022C213.612 167.406 213.792 167.874 213.792 168.426C213.792 169.218 213.444 169.848 212.748 170.316C212.064 170.772 211.116 171 209.904 171H206.124V161.892H209.904C211.008 161.892 211.872 162.102 212.496 162.522C213.132 162.942 213.45 163.518 213.45 164.25C213.45 164.73 213.3 165.15 213 165.51C212.7 165.858 212.268 166.104 211.704 166.248ZM207.726 163.098V165.69H209.922C210.534 165.69 211.002 165.582 211.326 165.366C211.65 165.138 211.812 164.814 211.812 164.394C211.812 163.986 211.644 163.668 211.308 163.44C210.984 163.212 210.522 163.098 209.922 163.098H207.726ZM209.94 169.794C210.624 169.794 211.158 169.668 211.542 169.416C211.926 169.152 212.118 168.786 212.118 168.318C212.118 167.85 211.92 167.496 211.524 167.256C211.14 167.016 210.612 166.896 209.94 166.896H207.726V169.794H209.94ZM219.986 169.614H220.202C220.778 169.614 221.252 169.326 221.624 168.75C221.996 168.162 222.182 167.082 222.182 165.51V161.892H228.05V171H226.466V163.116H223.622V165.69C223.622 167.166 223.376 168.42 222.884 169.452C222.392 170.484 221.54 171 220.328 171H219.986V169.614ZM237.37 161.892H238.954V171H237.406V163.872L232.528 171H230.926V161.892H232.492V169.02L237.37 161.892ZM248.718 161.892V171H247.116V167.76C246.3 167.928 245.556 168.012 244.884 168.012C243.756 168.012 242.898 167.742 242.31 167.202C241.722 166.65 241.428 165.858 241.428 164.826V161.892H243.03V164.826C243.03 166.134 243.756 166.788 245.208 166.788C245.796 166.788 246.432 166.722 247.116 166.59V161.892H248.718ZM257.916 161.892H259.5V171H257.916V166.95H253.182V171H251.598V161.892H253.182V165.762H257.916V161.892ZM265.776 165.258C266.88 165.258 267.744 165.516 268.368 166.032C269.004 166.548 269.322 167.25 269.322 168.138C269.322 169.014 269.01 169.71 268.386 170.226C267.774 170.742 266.934 171 265.866 171H262.374V161.892H263.958V165.258H265.776ZM265.668 169.776C266.28 169.776 266.76 169.632 267.108 169.344C267.468 169.056 267.648 168.654 267.648 168.138C267.648 167.622 267.474 167.22 267.126 166.932C266.778 166.632 266.292 166.482 265.668 166.482H263.958V169.776H265.668ZM271.392 161.892H272.994V171H271.392V161.892ZM282.247 161.892H283.831V171H282.283V163.872L277.405 171H275.803V161.892H277.369V169.02L282.247 161.892ZM279.799 160.56C278.983 160.56 278.317 160.32 277.801 159.84C277.297 159.36 277.033 158.73 277.009 157.95H278.269C278.293 158.406 278.443 158.76 278.719 159.012C278.995 159.264 279.361 159.39 279.817 159.39C280.285 159.39 280.651 159.264 280.915 159.012C281.191 158.748 281.341 158.394 281.365 157.95H282.625C282.601 158.73 282.331 159.36 281.815 159.84C281.299 160.32 280.627 160.56 279.799 160.56ZM298.496 171H296.912V167.58H295.058L292.628 171H290.792L293.402 167.31C292.754 167.142 292.238 166.83 291.854 166.374C291.482 165.906 291.296 165.348 291.296 164.7C291.296 163.836 291.614 163.152 292.25 162.648C292.886 162.144 293.768 161.892 294.896 161.892H298.496V171ZM296.912 166.356V163.098H295.022C294.362 163.098 293.852 163.242 293.492 163.53C293.132 163.806 292.952 164.202 292.952 164.718C292.952 165.234 293.138 165.636 293.51 165.924C293.894 166.212 294.428 166.356 295.112 166.356H296.912ZM312.773 169.776H314.213V173.088H312.701V171H301.379V161.892H302.945V169.776H306.275V161.892H307.859V169.776H311.189V161.892H312.773V169.776ZM322.431 161.892H324.015V171H322.467V163.872L317.589 171H315.987V161.892H317.553V169.02L322.431 161.892ZM333.167 171L330.107 166.968H328.487V171H326.903V161.892H328.487V165.78H330.071L332.915 161.892H334.787L331.457 166.266L335.093 171H333.167ZM77.884 186.892H79.468V196H77.92V188.872L73.042 196H71.44V186.892H73.006V194.02L77.884 186.892ZM81.312 194.614H81.528C82.104 194.614 82.578 194.326 82.95 193.75C83.322 193.162 83.508 192.082 83.508 190.51V186.892H89.376V196H87.792V188.116H84.948V190.69C84.948 192.166 84.702 193.42 84.21 194.452C83.718 195.484 82.866 196 81.654 196H81.312V194.614ZM98.6965 186.892H100.281V196H98.7325V188.872L93.8545 196H92.2525V186.892H93.8185V194.02L98.6965 186.892ZM118.023 186.892H119.607V196H108.213V186.892H109.779V194.776H113.109V186.892H114.693V194.776H118.023V186.892ZM128.751 196L125.691 191.968H124.071V196H122.487V186.892H124.071V190.78H125.655L128.499 186.892H130.371L127.041 191.266L130.677 196H128.751ZM134.795 196.252C133.871 196.252 133.121 196 132.545 195.496C131.981 194.98 131.699 194.308 131.699 193.48C131.699 192.544 132.071 191.812 132.815 191.284C133.571 190.756 134.621 190.492 135.965 190.492C136.565 190.492 137.165 190.534 137.765 190.618V190.06C137.765 189.4 137.561 188.872 137.153 188.476C136.757 188.068 136.223 187.864 135.551 187.864C135.095 187.864 134.627 187.972 134.147 188.188C133.679 188.404 133.259 188.692 132.887 189.052L132.041 187.99C132.521 187.558 133.073 187.228 133.697 187C134.333 186.76 134.993 186.64 135.677 186.64C136.397 186.64 137.033 186.778 137.585 187.054C138.149 187.33 138.581 187.714 138.881 188.206C139.193 188.698 139.349 189.268 139.349 189.916V196H137.981L137.855 194.65C137.543 195.166 137.123 195.562 136.595 195.838C136.067 196.114 135.467 196.252 134.795 196.252ZM135.155 195.082C135.635 195.082 136.073 194.968 136.469 194.74C136.877 194.5 137.195 194.182 137.423 193.786C137.651 193.378 137.765 192.928 137.765 192.436V191.752C137.189 191.668 136.667 191.626 136.199 191.626C135.251 191.626 134.525 191.782 134.021 192.094C133.529 192.394 133.283 192.838 133.283 193.426C133.283 193.93 133.451 194.332 133.787 194.632C134.135 194.932 134.591 195.082 135.155 195.082ZM152.776 191.446C152.776 192.73 152.338 193.774 151.462 194.578C150.598 195.37 149.434 195.832 147.97 195.964V199.42H146.386V195.964C144.91 195.832 143.74 195.364 142.876 194.56C142.012 193.756 141.58 192.712 141.58 191.428C141.58 190.132 142.012 189.088 142.876 188.296C143.74 187.504 144.91 187.048 146.386 186.928V182.95H147.97V186.928C149.446 187.06 150.616 187.528 151.48 188.332C152.344 189.124 152.776 190.162 152.776 191.446ZM147.97 194.722C148.93 194.614 149.692 194.278 150.256 193.714C150.82 193.15 151.102 192.394 151.102 191.446C151.102 190.498 150.82 189.748 150.256 189.196C149.692 188.632 148.93 188.29 147.97 188.17V194.722ZM143.254 191.41C143.254 192.358 143.536 193.114 144.1 193.678C144.664 194.242 145.426 194.59 146.386 194.722V188.17C145.426 188.29 144.664 188.632 144.1 189.196C143.536 189.748 143.254 190.486 143.254 191.41ZM155.121 193.93H156.867L155.355 198.304H154.149L155.121 193.93ZM169.243 191.32C169.927 191.512 170.449 191.806 170.809 192.202C171.169 192.586 171.349 193.048 171.349 193.588C171.349 194.092 171.193 194.548 170.881 194.956C170.569 195.352 170.125 195.664 169.549 195.892C168.973 196.12 168.307 196.234 167.551 196.234C165.967 196.234 164.719 195.7 163.807 194.632L164.833 193.696C165.493 194.572 166.381 195.01 167.497 195.01C168.157 195.01 168.685 194.872 169.081 194.596C169.477 194.32 169.675 193.948 169.675 193.48C169.675 193 169.465 192.628 169.045 192.364C168.637 192.1 168.061 191.968 167.317 191.968H166.345V190.744H167.371C167.995 190.744 168.493 190.612 168.865 190.348C169.249 190.072 169.441 189.718 169.441 189.286C169.441 188.854 169.255 188.512 168.883 188.26C168.511 187.996 168.049 187.864 167.497 187.864C167.017 187.864 166.555 187.972 166.111 188.188C165.679 188.404 165.331 188.71 165.067 189.106L164.059 188.206C164.419 187.714 164.911 187.33 165.535 187.054C166.171 186.778 166.867 186.64 167.623 186.64C168.295 186.64 168.889 186.754 169.405 186.982C169.933 187.198 170.341 187.498 170.629 187.882C170.929 188.266 171.079 188.698 171.079 189.178C171.079 189.67 170.917 190.102 170.593 190.474C170.281 190.846 169.831 191.128 169.243 191.32ZM176.016 196.252C175.092 196.252 174.342 196 173.766 195.496C173.202 194.98 172.92 194.308 172.92 193.48C172.92 192.544 173.292 191.812 174.036 191.284C174.792 190.756 175.842 190.492 177.186 190.492C177.786 190.492 178.386 190.534 178.986 190.618V190.06C178.986 189.4 178.782 188.872 178.374 188.476C177.978 188.068 177.444 187.864 176.772 187.864C176.316 187.864 175.848 187.972 175.368 188.188C174.9 188.404 174.48 188.692 174.108 189.052L173.262 187.99C173.742 187.558 174.294 187.228 174.918 187C175.554 186.76 176.214 186.64 176.898 186.64C177.618 186.64 178.254 186.778 178.806 187.054C179.37 187.33 179.802 187.714 180.102 188.206C180.414 188.698 180.57 189.268 180.57 189.916V196H179.202L179.076 194.65C178.764 195.166 178.344 195.562 177.816 195.838C177.288 196.114 176.688 196.252 176.016 196.252ZM176.376 195.082C176.856 195.082 177.294 194.968 177.69 194.74C178.098 194.5 178.416 194.182 178.644 193.786C178.872 193.378 178.986 192.928 178.986 192.436V191.752C178.41 191.668 177.888 191.626 177.42 191.626C176.472 191.626 175.746 191.782 175.242 192.094C174.75 192.394 174.504 192.838 174.504 193.426C174.504 193.93 174.672 194.332 175.008 194.632C175.356 194.932 175.812 195.082 176.376 195.082ZM191.242 186.892V196H189.64V188.098H185.032V196H183.43V186.892H191.242ZM200.562 186.892H202.146V196H200.598V188.872L195.72 196H194.118V186.892H195.684V194.02L200.562 186.892ZM209.714 186.64C210.494 186.64 211.184 186.844 211.784 187.252C212.384 187.648 212.846 188.206 213.17 188.926C213.506 189.646 213.674 190.48 213.674 191.428C213.674 192.388 213.5 193.234 213.152 193.966C212.816 194.686 212.342 195.25 211.73 195.658C211.13 196.054 210.44 196.252 209.66 196.252C209.012 196.252 208.418 196.108 207.878 195.82C207.35 195.52 206.93 195.106 206.618 194.578V199.42H205.034V186.892H206.402L206.564 188.548C206.864 187.96 207.29 187.498 207.842 187.162C208.406 186.814 209.03 186.64 209.714 186.64ZM209.336 195.028C210.152 195.028 210.8 194.71 211.28 194.074C211.76 193.426 212 192.556 212 191.464C212 190.36 211.754 189.484 211.262 188.836C210.782 188.188 210.134 187.864 209.318 187.864C208.502 187.864 207.848 188.194 207.356 188.854C206.864 189.514 206.618 190.39 206.618 191.482C206.618 192.55 206.864 193.408 207.356 194.056C207.848 194.704 208.508 195.028 209.336 195.028ZM218.326 196.252C217.402 196.252 216.652 196 216.076 195.496C215.512 194.98 215.23 194.308 215.23 193.48C215.23 192.544 215.602 191.812 216.346 191.284C217.102 190.756 218.152 190.492 219.496 190.492C220.096 190.492 220.696 190.534 221.296 190.618V190.06C221.296 189.4 221.092 188.872 220.684 188.476C220.288 188.068 219.754 187.864 219.082 187.864C218.626 187.864 218.158 187.972 217.678 188.188C217.21 188.404 216.79 188.692 216.418 189.052L215.572 187.99C216.052 187.558 216.604 187.228 217.228 187C217.864 186.76 218.524 186.64 219.208 186.64C219.928 186.64 220.564 186.778 221.116 187.054C221.68 187.33 222.112 187.714 222.412 188.206C222.724 188.698 222.88 189.268 222.88 189.916V196H221.512L221.386 194.65C221.074 195.166 220.654 195.562 220.126 195.838C219.598 196.114 218.998 196.252 218.326 196.252ZM218.686 195.082C219.166 195.082 219.604 194.968 220 194.74C220.408 194.5 220.726 194.182 220.954 193.786C221.182 193.378 221.296 192.928 221.296 192.436V191.752C220.72 191.668 220.198 191.626 219.73 191.626C218.782 191.626 218.056 191.782 217.552 192.094C217.06 192.394 216.814 192.838 216.814 193.426C216.814 193.93 216.982 194.332 217.318 194.632C217.666 194.932 218.122 195.082 218.686 195.082ZM233.409 191.05C233.409 191.242 233.397 191.458 233.373 191.698H226.695C226.755 192.73 227.043 193.546 227.559 194.146C228.075 194.734 228.765 195.028 229.629 195.028C230.145 195.028 230.643 194.902 231.123 194.65C231.603 194.386 232.005 194.014 232.329 193.534L233.355 194.398C232.959 194.998 232.431 195.46 231.771 195.784C231.111 196.096 230.391 196.252 229.611 196.252C228.711 196.252 227.919 196.054 227.235 195.658C226.563 195.25 226.041 194.68 225.669 193.948C225.297 193.216 225.111 192.37 225.111 191.41C225.111 190.474 225.291 189.646 225.651 188.926C226.011 188.194 226.515 187.63 227.163 187.234C227.823 186.838 228.585 186.64 229.449 186.64C230.241 186.64 230.937 186.82 231.537 187.18C232.137 187.54 232.599 188.056 232.923 188.728C233.247 189.388 233.409 190.162 233.409 191.05ZM231.807 190.546C231.783 189.718 231.561 189.064 231.141 188.584C230.733 188.092 230.157 187.846 229.413 187.846C228.681 187.846 228.081 188.086 227.613 188.566C227.145 189.034 226.857 189.694 226.749 190.546H231.807ZM243.251 186.892H245.501V196H243.953V188.764L241.163 196H239.885L237.131 188.8V196H235.655V186.892H237.887L240.533 194.128L243.251 186.892ZM251.783 190.258C252.887 190.258 253.751 190.516 254.375 191.032C255.011 191.548 255.329 192.25 255.329 193.138C255.329 194.014 255.017 194.71 254.393 195.226C253.781 195.742 252.941 196 251.873 196H248.381V186.892H249.965V190.258H251.783ZM251.675 194.776C252.287 194.776 252.767 194.632 253.115 194.344C253.475 194.056 253.655 193.654 253.655 193.138C253.655 192.622 253.481 192.22 253.133 191.932C252.785 191.632 252.299 191.482 251.675 191.482H249.965V194.776H251.675ZM257.399 186.892H259.001V196H257.399V186.892ZM268.255 186.892H269.839V196H268.291V188.872L263.413 196H261.811V186.892H263.377V194.02L268.255 186.892ZM265.807 185.56C264.991 185.56 264.325 185.32 263.809 184.84C263.305 184.36 263.041 183.73 263.017 182.95H264.277C264.301 183.406 264.451 183.76 264.727 184.012C265.003 184.264 265.369 184.39 265.825 184.39C266.293 184.39 266.659 184.264 266.923 184.012C267.199 183.748 267.349 183.394 267.373 182.95H268.633C268.609 183.73 268.339 184.36 267.823 184.84C267.307 185.32 266.635 185.56 265.807 185.56ZM284.09 186.892H285.674V196H284.09V191.95H279.356V196H277.772V186.892H279.356V190.762H284.09V186.892ZM290.941 196.252C290.017 196.252 289.267 196 288.691 195.496C288.127 194.98 287.845 194.308 287.845 193.48C287.845 192.544 288.217 191.812 288.961 191.284C289.717 190.756 290.767 190.492 292.111 190.492C292.711 190.492 293.311 190.534 293.911 190.618V190.06C293.911 189.4 293.707 188.872 293.299 188.476C292.903 188.068 292.369 187.864 291.697 187.864C291.241 187.864 290.773 187.972 290.293 188.188C289.825 188.404 289.405 188.692 289.033 189.052L288.187 187.99C288.667 187.558 289.219 187.228 289.843 187C290.479 186.76 291.139 186.64 291.823 186.64C292.543 186.64 293.179 186.778 293.731 187.054C294.295 187.33 294.727 187.714 295.027 188.206C295.339 188.698 295.495 189.268 295.495 189.916V196H294.127L294.001 194.65C293.689 195.166 293.269 195.562 292.741 195.838C292.213 196.114 291.613 196.252 290.941 196.252ZM291.301 195.082C291.781 195.082 292.219 194.968 292.615 194.74C293.023 194.5 293.341 194.182 293.569 193.786C293.797 193.378 293.911 192.928 293.911 192.436V191.752C293.335 191.668 292.813 191.626 292.345 191.626C291.397 191.626 290.671 191.782 290.167 192.094C289.675 192.394 289.429 192.838 289.429 193.426C289.429 193.93 289.597 194.332 289.933 194.632C290.281 194.932 290.737 195.082 291.301 195.082ZM77.704 221L74.644 216.968H73.024V221H71.44V211.892H73.024V215.78H74.608L77.452 211.892H79.324L75.994 216.266L79.63 221H77.704ZM80.3101 219.614H80.5261C81.1021 219.614 81.5761 219.326 81.9481 218.75C82.3201 218.162 82.5061 217.082 82.5061 215.51V211.892H88.3741V221H86.7901V213.116H83.9461V215.69C83.9461 217.166 83.7001 218.42 83.2081 219.452C82.7161 220.484 81.8641 221 80.6521 221H80.3101V219.614ZM98.6845 211.64C99.5365 211.64 100.287 211.844 100.935 212.252C101.595 212.648 102.105 213.212 102.465 213.944C102.837 214.664 103.023 215.492 103.023 216.428C103.023 217.376 102.843 218.216 102.483 218.948C102.123 219.68 101.613 220.25 100.953 220.658C100.293 221.054 99.5365 221.252 98.6845 221.252C97.4605 221.252 96.4585 220.868 95.6785 220.1C94.9105 219.32 94.4785 218.282 94.3825 216.986H92.8345V221H91.2505V211.892H92.8345V215.762H94.4005C94.5325 214.514 94.9765 213.518 95.7325 212.774C96.5005 212.018 97.4845 211.64 98.6845 211.64ZM98.6845 220.046C99.4885 220.046 100.131 219.716 100.611 219.056C101.103 218.384 101.349 217.502 101.349 216.41C101.349 215.342 101.103 214.484 100.611 213.836C100.131 213.188 99.4885 212.864 98.6845 212.864C97.8565 212.864 97.2085 213.188 96.7405 213.836C96.2725 214.484 96.0385 215.354 96.0385 216.446C96.0385 217.538 96.2725 218.414 96.7405 219.074C97.2085 219.722 97.8565 220.046 98.6845 220.046ZM111.978 211.892V221H110.376V217.76C109.56 217.928 108.816 218.012 108.144 218.012C107.016 218.012 106.158 217.742 105.57 217.202C104.982 216.65 104.688 215.858 104.688 214.826V211.892H106.29V214.826C106.29 216.134 107.016 216.788 108.468 216.788C109.056 216.788 109.692 216.722 110.376 216.59V211.892H111.978ZM115.938 221.252C115.602 221.252 115.332 221.156 115.128 220.964C114.924 220.76 114.822 220.49 114.822 220.154C114.822 219.83 114.924 219.566 115.128 219.362C115.332 219.158 115.602 219.056 115.938 219.056C116.274 219.056 116.544 219.158 116.748 219.362C116.964 219.566 117.072 219.83 117.072 220.154C117.072 220.49 116.964 220.76 116.748 220.964C116.544 221.156 116.274 221.252 115.938 221.252Z" fill="#2F2F2F"/>
<path d="M364 108L352 120" stroke="#2F2F2F" stroke-width="2" stroke-linecap="round" stroke-linejoin="round"/>
<path d="M352 108L364 120" stroke="#2F2F2F" stroke-width="2" stroke-linecap="round" stroke-linejoin="round"/>
</g>
<defs>
<filter id="filter0_d_2_1817" x="0" y="0" width="440" height="297" filterUnits="userSpaceOnUse" color-interpolation-filters="sRGB">
<feFlood flood-opacity="0" result="BackgroundImageFix"/>
<feColorMatrix in="SourceAlpha" type="matrix" values="0 0 0 0 0 0 0 0 0 0 0 0 0 0 0 0 0 0 127 0" result="hardAlpha"/>
<feOffset/>
<feGaussianBlur stdDeviation="25"/>
<feComposite in2="hardAlpha" operator="out"/>
<feColorMatrix type="matrix" values="0 0 0 0 0 0 0 0 0 0 0 0 0 0 0 0 0 0 0.25 0"/>
<feBlend mode="normal" in2="BackgroundImageFix" result="effect1_dropShadow_2_1817"/>
<feBlend mode="normal" in="SourceGraphic" in2="effect1_dropShadow_2_1817" result="shape"/>
</filter>
</defs>
</svg>
