<svg width="503" height="265" viewBox="0 0 503 265" fill="none" xmlns="http://www.w3.org/2000/svg">
<g filter="url(#filter0_d_2_1827)">
<rect x="50" y="50" width="371" height="165" rx="20" fill="white"/>
<path d="M80.278 75.95H81.97V89H80.278V83.042H73.402V89H71.71V75.95H73.402V81.692H80.278V75.95ZM92.7838 84.05C92.7838 84.242 92.7718 84.458 92.7478 84.698H86.0698C86.1298 85.73 86.4178 86.546 86.9338 87.146C87.4498 87.734 88.1398 88.028 89.0038 88.028C89.5198 88.028 90.0178 87.902 90.4978 87.65C90.9778 87.386 91.3798 87.014 91.7038 86.534L92.7298 87.398C92.3338 87.998 91.8058 88.46 91.1458 88.784C90.4858 89.096 89.7658 89.252 88.9858 89.252C88.0858 89.252 87.2938 89.054 86.6098 88.658C85.9378 88.25 85.4158 87.68 85.0438 86.948C84.6718 86.216 84.4858 85.37 84.4858 84.41C84.4858 83.474 84.6658 82.646 85.0258 81.926C85.3858 81.194 85.8898 80.63 86.5378 80.234C87.1978 79.838 87.9598 79.64 88.8238 79.64C89.6158 79.64 90.3118 79.82 90.9118 80.18C91.5118 80.54 91.9738 81.056 92.2978 81.728C92.6218 82.388 92.7838 83.162 92.7838 84.05ZM91.1818 83.546C91.1578 82.718 90.9358 82.064 90.5158 81.584C90.1078 81.092 89.5318 80.846 88.7878 80.846C88.0558 80.846 87.4558 81.086 86.9878 81.566C86.5198 82.034 86.2318 82.694 86.1238 83.546H91.1818ZM105.655 84.248C106.327 84.38 106.843 84.638 107.203 85.022C107.563 85.406 107.743 85.874 107.743 86.426C107.743 87.218 107.395 87.848 106.699 88.316C106.015 88.772 105.067 89 103.855 89H100.075V79.892H103.855C104.959 79.892 105.823 80.102 106.447 80.522C107.083 80.942 107.401 81.518 107.401 82.25C107.401 82.73 107.251 83.15 106.951 83.51C106.651 83.858 106.219 84.104 105.655 84.248ZM101.677 81.098V83.69H103.873C104.485 83.69 104.953 83.582 105.277 83.366C105.601 83.138 105.763 82.814 105.763 82.394C105.763 81.986 105.595 81.668 105.259 81.44C104.935 81.212 104.473 81.098 103.873 81.098H101.677ZM103.891 87.794C104.575 87.794 105.109 87.668 105.493 87.416C105.877 87.152 106.069 86.786 106.069 86.318C106.069 85.85 105.871 85.496 105.475 85.256C105.091 85.016 104.563 84.896 103.891 84.896H101.677V87.794H103.891ZM113.338 83.258C114.442 83.258 115.306 83.516 115.93 84.032C116.566 84.548 116.884 85.25 116.884 86.138C116.884 87.014 116.572 87.71 115.948 88.226C115.336 88.742 114.496 89 113.428 89H109.936V79.892H111.52V83.258H113.338ZM113.23 87.776C113.842 87.776 114.322 87.632 114.67 87.344C115.03 87.056 115.21 86.654 115.21 86.138C115.21 85.622 115.036 85.22 114.688 84.932C114.34 84.632 113.854 84.482 113.23 84.482H111.52V87.776H113.23ZM118.954 79.892H120.556V89H118.954V79.892ZM127.398 80.162C128.166 80.162 128.85 80.348 129.45 80.72C130.062 81.092 130.536 81.614 130.872 82.286C131.22 82.946 131.394 83.702 131.394 84.554C131.394 85.466 131.208 86.282 130.836 87.002C130.476 87.71 129.972 88.262 129.324 88.658C128.676 89.054 127.932 89.252 127.092 89.252C125.688 89.252 124.626 88.76 123.906 87.776C123.186 86.792 122.826 85.358 122.826 83.474C122.826 81.926 122.982 80.666 123.294 79.694C123.606 78.71 124.116 77.936 124.824 77.372C125.544 76.808 126.522 76.412 127.758 76.184C128.454 76.052 129 75.92 129.396 75.788C129.804 75.644 130.128 75.476 130.368 75.284L130.854 76.562C130.566 76.766 130.212 76.946 129.792 77.102C129.372 77.246 128.826 77.378 128.154 77.498C126.75 77.738 125.73 78.224 125.094 78.956C124.47 79.676 124.122 80.714 124.05 82.07C124.362 81.47 124.812 81.002 125.4 80.666C125.988 80.33 126.654 80.162 127.398 80.162ZM127.146 88.028C127.926 88.028 128.544 87.722 129 87.11C129.468 86.498 129.708 85.682 129.72 84.662C129.72 83.654 129.492 82.856 129.036 82.268C128.58 81.68 127.944 81.386 127.128 81.386C126.312 81.386 125.67 81.668 125.202 82.232C124.734 82.784 124.5 83.552 124.5 84.536C124.5 85.592 124.74 86.438 125.22 87.074C125.712 87.71 126.354 88.028 127.146 88.028ZM138.329 79.64C139.109 79.64 139.799 79.844 140.399 80.252C140.999 80.648 141.461 81.206 141.785 81.926C142.121 82.646 142.289 83.48 142.289 84.428C142.289 85.388 142.115 86.234 141.767 86.966C141.431 87.686 140.957 88.25 140.345 88.658C139.745 89.054 139.055 89.252 138.275 89.252C137.627 89.252 137.033 89.108 136.493 88.82C135.965 88.52 135.545 88.106 135.233 87.578V92.42H133.649V79.892H135.017L135.179 81.548C135.479 80.96 135.905 80.498 136.457 80.162C137.021 79.814 137.645 79.64 138.329 79.64ZM137.951 88.028C138.767 88.028 139.415 87.71 139.895 87.074C140.375 86.426 140.615 85.556 140.615 84.464C140.615 83.36 140.369 82.484 139.877 81.836C139.397 81.188 138.749 80.864 137.933 80.864C137.117 80.864 136.463 81.194 135.971 81.854C135.479 82.514 135.233 83.39 135.233 84.482C135.233 85.55 135.479 86.408 135.971 87.056C136.463 87.704 137.123 88.028 137.951 88.028ZM146.941 89.252C146.017 89.252 145.267 89 144.691 88.496C144.127 87.98 143.845 87.308 143.845 86.48C143.845 85.544 144.217 84.812 144.961 84.284C145.717 83.756 146.767 83.492 148.111 83.492C148.711 83.492 149.311 83.534 149.911 83.618V83.06C149.911 82.4 149.707 81.872 149.299 81.476C148.903 81.068 148.369 80.864 147.697 80.864C147.241 80.864 146.773 80.972 146.293 81.188C145.825 81.404 145.405 81.692 145.033 82.052L144.187 80.99C144.667 80.558 145.219 80.228 145.843 80C146.479 79.76 147.139 79.64 147.823 79.64C148.543 79.64 149.179 79.778 149.731 80.054C150.295 80.33 150.727 80.714 151.027 81.206C151.339 81.698 151.495 82.268 151.495 82.916V89H150.127L150.001 87.65C149.689 88.166 149.269 88.562 148.741 88.838C148.213 89.114 147.613 89.252 146.941 89.252ZM147.301 88.082C147.781 88.082 148.219 87.968 148.615 87.74C149.023 87.5 149.341 87.182 149.569 86.786C149.797 86.378 149.911 85.928 149.911 85.436V84.752C149.335 84.668 148.813 84.626 148.345 84.626C147.397 84.626 146.671 84.782 146.167 85.094C145.675 85.394 145.429 85.838 145.429 86.426C145.429 86.93 145.597 87.332 145.933 87.632C146.281 87.932 146.737 88.082 147.301 88.082ZM158.28 89.252C157.38 89.252 156.582 89.048 155.886 88.64C155.202 88.232 154.668 87.662 154.284 86.93C153.912 86.198 153.726 85.364 153.726 84.428C153.726 83.492 153.918 82.664 154.302 81.944C154.686 81.212 155.22 80.648 155.904 80.252C156.588 79.844 157.374 79.64 158.262 79.64C159.054 79.64 159.762 79.808 160.386 80.144C161.01 80.48 161.496 80.954 161.844 81.566L160.746 82.34C160.098 81.356 159.282 80.864 158.298 80.864C157.434 80.864 156.732 81.194 156.192 81.854C155.664 82.502 155.4 83.348 155.4 84.392C155.4 85.1 155.52 85.73 155.76 86.282C156.012 86.834 156.354 87.266 156.786 87.578C157.23 87.878 157.74 88.028 158.316 88.028C159.324 88.028 160.14 87.53 160.764 86.534L161.862 87.326C161.514 87.95 161.028 88.43 160.404 88.766C159.792 89.09 159.084 89.252 158.28 89.252ZM167.145 83.258C168.249 83.258 169.113 83.516 169.737 84.032C170.373 84.548 170.691 85.25 170.691 86.138C170.691 87.014 170.379 87.71 169.755 88.226C169.143 88.742 168.303 89 167.235 89H163.743V79.892H165.327V83.258H167.145ZM167.037 87.776C167.649 87.776 168.129 87.632 168.477 87.344C168.837 87.056 169.017 86.654 169.017 86.138C169.017 85.622 168.843 85.22 168.495 84.932C168.147 84.632 167.661 84.482 167.037 84.482H165.327V87.776H167.037ZM172.761 79.892H174.363V89H172.761V79.892ZM182.752 84.248C183.424 84.38 183.94 84.638 184.3 85.022C184.66 85.406 184.84 85.874 184.84 86.426C184.84 87.218 184.492 87.848 183.796 88.316C183.112 88.772 182.164 89 180.952 89H177.172V79.892H180.952C182.056 79.892 182.92 80.102 183.544 80.522C184.18 80.942 184.498 81.518 184.498 82.25C184.498 82.73 184.348 83.15 184.048 83.51C183.748 83.858 183.316 84.104 182.752 84.248ZM178.774 81.098V83.69H180.97C181.582 83.69 182.05 83.582 182.374 83.366C182.698 83.138 182.86 82.814 182.86 82.394C182.86 81.986 182.692 81.668 182.356 81.44C182.032 81.212 181.57 81.098 180.97 81.098H178.774ZM180.988 87.794C181.672 87.794 182.206 87.668 182.59 87.416C182.974 87.152 183.166 86.786 183.166 86.318C183.166 85.85 182.968 85.496 182.572 85.256C182.188 85.016 181.66 84.896 180.988 84.896H178.774V87.794H180.988ZM189.428 89.252C188.504 89.252 187.754 89 187.178 88.496C186.614 87.98 186.332 87.308 186.332 86.48C186.332 85.544 186.704 84.812 187.448 84.284C188.204 83.756 189.254 83.492 190.598 83.492C191.198 83.492 191.798 83.534 192.398 83.618V83.06C192.398 82.4 192.194 81.872 191.786 81.476C191.39 81.068 190.856 80.864 190.184 80.864C189.728 80.864 189.26 80.972 188.78 81.188C188.312 81.404 187.892 81.692 187.52 82.052L186.674 80.99C187.154 80.558 187.706 80.228 188.33 80C188.966 79.76 189.626 79.64 190.31 79.64C191.03 79.64 191.666 79.778 192.218 80.054C192.782 80.33 193.214 80.714 193.514 81.206C193.826 81.698 193.982 82.268 193.982 82.916V89H192.614L192.488 87.65C192.176 88.166 191.756 88.562 191.228 88.838C190.7 89.114 190.1 89.252 189.428 89.252ZM189.788 88.082C190.268 88.082 190.706 87.968 191.102 87.74C191.51 87.5 191.828 87.182 192.056 86.786C192.284 86.378 192.398 85.928 192.398 85.436V84.752C191.822 84.668 191.3 84.626 190.832 84.626C189.884 84.626 189.158 84.782 188.654 85.094C188.162 85.394 187.916 85.838 187.916 86.426C187.916 86.93 188.084 87.332 188.42 87.632C188.768 87.932 189.224 88.082 189.788 88.082ZM203.286 79.892H204.87V89H203.322V81.872L198.444 89H196.842V79.892H198.408V87.02L203.286 79.892ZM200.838 78.56C200.022 78.56 199.356 78.32 198.84 77.84C198.336 77.36 198.072 76.73 198.048 75.95H199.308C199.332 76.406 199.482 76.76 199.758 77.012C200.034 77.264 200.4 77.39 200.856 77.39C201.324 77.39 201.69 77.264 201.954 77.012C202.23 76.748 202.38 76.394 202.404 75.95H203.664C203.64 76.73 203.37 77.36 202.854 77.84C202.338 78.32 201.666 78.56 200.838 78.56ZM214.634 79.892V81.098H211.412V89H209.81V81.098H206.57V79.892H214.634ZM223.706 84.05C223.706 84.242 223.694 84.458 223.67 84.698H216.992C217.052 85.73 217.34 86.546 217.856 87.146C218.372 87.734 219.062 88.028 219.926 88.028C220.442 88.028 220.94 87.902 221.42 87.65C221.9 87.386 222.302 87.014 222.626 86.534L223.652 87.398C223.256 87.998 222.728 88.46 222.068 88.784C221.408 89.096 220.688 89.252 219.908 89.252C219.008 89.252 218.216 89.054 217.532 88.658C216.86 88.25 216.338 87.68 215.966 86.948C215.594 86.216 215.408 85.37 215.408 84.41C215.408 83.474 215.588 82.646 215.948 81.926C216.308 81.194 216.812 80.63 217.46 80.234C218.12 79.838 218.882 79.64 219.746 79.64C220.538 79.64 221.234 79.82 221.834 80.18C222.434 80.54 222.896 81.056 223.22 81.728C223.544 82.388 223.706 83.162 223.706 84.05ZM222.104 83.546C222.08 82.718 221.858 82.064 221.438 81.584C221.03 81.092 220.454 80.846 219.71 80.846C218.978 80.846 218.378 81.086 217.91 81.566C217.442 82.034 217.154 82.694 217.046 83.546H222.104ZM77.704 114L74.644 109.968H73.024V114H71.44V104.892H73.024V108.78H74.608L77.452 104.892H79.324L75.994 109.266L79.63 114H77.704ZM84.9055 114.252C84.0415 114.252 83.2735 114.054 82.6015 113.658C81.9415 113.25 81.4255 112.686 81.0535 111.966C80.6815 111.234 80.4955 110.394 80.4955 109.446C80.4955 108.51 80.6815 107.676 81.0535 106.944C81.4255 106.212 81.9415 105.648 82.6015 105.252C83.2735 104.844 84.0475 104.64 84.9235 104.64C85.7875 104.64 86.5555 104.844 87.2275 105.252C87.8995 105.648 88.4215 106.212 88.7935 106.944C89.1655 107.664 89.3515 108.492 89.3515 109.428C89.3515 110.376 89.1655 111.216 88.7935 111.948C88.4215 112.68 87.8995 113.25 87.2275 113.658C86.5555 114.054 85.7815 114.252 84.9055 114.252ZM84.9055 113.028C85.7455 113.028 86.4115 112.698 86.9035 112.038C87.4075 111.378 87.6595 110.502 87.6595 109.41C87.6595 108.342 87.4075 107.484 86.9035 106.836C86.3995 106.188 85.7335 105.864 84.9055 105.864C84.0775 105.864 83.4115 106.194 82.9075 106.854C82.4155 107.502 82.1695 108.366 82.1695 109.446C82.1695 110.526 82.4155 111.396 82.9075 112.056C83.4115 112.704 84.0775 113.028 84.9055 113.028ZM97.9201 104.892H99.5041V114H97.9201V109.95H93.1861V114H91.6021V104.892H93.1861V108.762H97.9201V104.892ZM112.944 109.446C112.944 110.73 112.506 111.774 111.63 112.578C110.766 113.37 109.602 113.832 108.138 113.964V117.42H106.554V113.964C105.078 113.832 103.908 113.364 103.044 112.56C102.18 111.756 101.748 110.712 101.748 109.428C101.748 108.132 102.18 107.088 103.044 106.296C103.908 105.504 105.078 105.048 106.554 104.928V100.95H108.138V104.928C109.614 105.06 110.784 105.528 111.648 106.332C112.512 107.124 112.944 108.162 112.944 109.446ZM108.138 112.722C109.098 112.614 109.86 112.278 110.424 111.714C110.988 111.15 111.27 110.394 111.27 109.446C111.27 108.498 110.988 107.748 110.424 107.196C109.86 106.632 109.098 106.29 108.138 106.17V112.722ZM103.422 109.41C103.422 110.358 103.704 111.114 104.268 111.678C104.832 112.242 105.594 112.59 106.554 112.722V106.17C105.594 106.29 104.832 106.632 104.268 107.196C103.704 107.748 103.422 108.486 103.422 109.41ZM121.636 104.892H123.22V114H121.672V106.872L116.794 114H115.192V104.892H116.758V112.02L121.636 104.892ZM134.856 112.776V116.088H133.362V114H126.522V116.088H125.01V112.776H125.964C126.552 112.2 126.96 111.528 127.188 110.76C127.428 109.992 127.548 108.972 127.548 107.7V104.892H133.542V112.776H134.856ZM128.988 107.862C128.988 108.99 128.88 109.95 128.664 110.742C128.448 111.534 128.13 112.212 127.71 112.776H131.958V106.116H128.988V107.862ZM144.305 109.05C144.305 109.242 144.293 109.458 144.269 109.698H137.591C137.651 110.73 137.939 111.546 138.455 112.146C138.971 112.734 139.661 113.028 140.525 113.028C141.041 113.028 141.539 112.902 142.019 112.65C142.499 112.386 142.901 112.014 143.225 111.534L144.251 112.398C143.855 112.998 143.327 113.46 142.667 113.784C142.007 114.096 141.287 114.252 140.507 114.252C139.607 114.252 138.815 114.054 138.131 113.658C137.459 113.25 136.937 112.68 136.565 111.948C136.193 111.216 136.007 110.37 136.007 109.41C136.007 108.474 136.187 107.646 136.547 106.926C136.907 106.194 137.411 105.63 138.059 105.234C138.719 104.838 139.481 104.64 140.345 104.64C141.137 104.64 141.833 104.82 142.433 105.18C143.033 105.54 143.495 106.056 143.819 106.728C144.143 107.388 144.305 108.162 144.305 109.05ZM142.703 108.546C142.679 107.718 142.457 107.064 142.037 106.584C141.629 106.092 141.053 105.846 140.309 105.846C139.577 105.846 138.977 106.086 138.509 106.566C138.041 107.034 137.753 107.694 137.645 108.546H142.703ZM152.869 104.892H154.453V114H152.869V109.95H148.135V114H146.551V104.892H148.135V108.762H152.869V104.892ZM164.833 112.776H166.237V116.088H164.743V114H157.327V104.892H158.929V112.776H163.231V104.892H164.833V112.776ZM174.458 104.892H176.042V114H174.494V106.872L169.616 114H168.014V104.892H169.58V112.02L174.458 104.892ZM181.324 114.252C180.4 114.252 179.65 114 179.074 113.496C178.51 112.98 178.228 112.308 178.228 111.48C178.228 110.544 178.6 109.812 179.344 109.284C180.1 108.756 181.15 108.492 182.494 108.492C183.094 108.492 183.694 108.534 184.294 108.618V108.06C184.294 107.4 184.09 106.872 183.682 106.476C183.286 106.068 182.752 105.864 182.08 105.864C181.624 105.864 181.156 105.972 180.676 106.188C180.208 106.404 179.788 106.692 179.416 107.052L178.57 105.99C179.05 105.558 179.602 105.228 180.226 105C180.862 104.76 181.522 104.64 182.206 104.64C182.926 104.64 183.562 104.778 184.114 105.054C184.678 105.33 185.11 105.714 185.41 106.206C185.722 106.698 185.878 107.268 185.878 107.916V114H184.51L184.384 112.65C184.072 113.166 183.652 113.562 183.124 113.838C182.596 114.114 181.996 114.252 181.324 114.252ZM181.684 113.082C182.164 113.082 182.602 112.968 182.998 112.74C183.406 112.5 183.724 112.182 183.952 111.786C184.18 111.378 184.294 110.928 184.294 110.436V109.752C183.718 109.668 183.196 109.626 182.728 109.626C181.78 109.626 181.054 109.782 180.55 110.094C180.058 110.394 179.812 110.838 179.812 111.426C179.812 111.93 179.98 112.332 180.316 112.632C180.664 112.932 181.12 113.082 181.684 113.082ZM187.695 112.614H187.911C188.487 112.614 188.961 112.326 189.333 111.75C189.705 111.162 189.891 110.082 189.891 108.51V104.892H195.759V114H194.175V106.116H191.331V108.69C191.331 110.166 191.085 111.42 190.593 112.452C190.101 113.484 189.249 114 188.037 114H187.695V112.614ZM202.037 108.258C203.141 108.258 204.005 108.516 204.629 109.032C205.265 109.548 205.583 110.25 205.583 111.138C205.583 112.014 205.271 112.71 204.647 113.226C204.035 113.742 203.195 114 202.127 114H198.635V104.892H200.219V108.258H202.037ZM201.929 112.776C202.541 112.776 203.021 112.632 203.369 112.344C203.729 112.056 203.909 111.654 203.909 111.138C203.909 110.622 203.735 110.22 203.387 109.932C203.039 109.632 202.553 109.482 201.929 109.482H200.219V112.776H201.929ZM214.059 104.892H215.643V114H214.059V109.95H209.325V114H207.741V104.892H209.325V108.762H214.059V104.892ZM221.918 108.258C223.022 108.258 223.886 108.516 224.51 109.032C225.146 109.548 225.464 110.25 225.464 111.138C225.464 112.014 225.152 112.71 224.528 113.226C223.916 113.742 223.076 114 222.008 114H218.516V104.892H220.1V108.258H221.918ZM221.81 112.776C222.422 112.776 222.902 112.632 223.25 112.344C223.61 112.056 223.79 111.654 223.79 111.138C223.79 110.622 223.616 110.22 223.268 109.932C222.92 109.632 222.434 109.482 221.81 109.482H220.1V112.776H221.81ZM227.534 104.892H229.136V114H227.534V104.892ZM239.614 109.05C239.614 109.242 239.602 109.458 239.578 109.698H232.9C232.96 110.73 233.248 111.546 233.764 112.146C234.28 112.734 234.97 113.028 235.834 113.028C236.35 113.028 236.848 112.902 237.328 112.65C237.808 112.386 238.21 112.014 238.534 111.534L239.56 112.398C239.164 112.998 238.636 113.46 237.976 113.784C237.316 114.096 236.596 114.252 235.816 114.252C234.916 114.252 234.124 114.054 233.44 113.658C232.768 113.25 232.246 112.68 231.874 111.948C231.502 111.216 231.316 110.37 231.316 109.41C231.316 108.474 231.496 107.646 231.856 106.926C232.216 106.194 232.72 105.63 233.368 105.234C234.028 104.838 234.79 104.64 235.654 104.64C236.446 104.64 237.142 104.82 237.742 105.18C238.342 105.54 238.804 106.056 239.128 106.728C239.452 107.388 239.614 108.162 239.614 109.05ZM238.012 108.546C237.988 107.718 237.766 107.064 237.346 106.584C236.938 106.092 236.362 105.846 235.618 105.846C234.886 105.846 234.286 106.086 233.818 106.566C233.35 107.034 233.062 107.694 232.954 108.546H238.012ZM255.653 112.776V116.088H254.159V114H247.319V116.088H245.807V112.776H246.761C247.349 112.2 247.757 111.528 247.985 110.76C248.225 109.992 248.345 108.972 248.345 107.7V104.892H254.339V112.776H255.653ZM249.785 107.862C249.785 108.99 249.677 109.95 249.461 110.742C249.245 111.534 248.927 112.212 248.507 112.776H252.755V106.116H249.785V107.862ZM261.214 114.252C260.35 114.252 259.582 114.054 258.91 113.658C258.25 113.25 257.734 112.686 257.362 111.966C256.99 111.234 256.804 110.394 256.804 109.446C256.804 108.51 256.99 107.676 257.362 106.944C257.734 106.212 258.25 105.648 258.91 105.252C259.582 104.844 260.356 104.64 261.232 104.64C262.096 104.64 262.864 104.844 263.536 105.252C264.208 105.648 264.73 106.212 265.102 106.944C265.474 107.664 265.66 108.492 265.66 109.428C265.66 110.376 265.474 111.216 265.102 111.948C264.73 112.68 264.208 113.25 263.536 113.658C262.864 114.054 262.09 114.252 261.214 114.252ZM261.214 113.028C262.054 113.028 262.72 112.698 263.212 112.038C263.716 111.378 263.968 110.502 263.968 109.41C263.968 108.342 263.716 107.484 263.212 106.836C262.708 106.188 262.042 105.864 261.214 105.864C260.386 105.864 259.72 106.194 259.216 106.854C258.724 107.502 258.478 108.366 258.478 109.446C258.478 110.526 258.724 111.396 259.216 112.056C259.72 112.704 260.386 113.028 261.214 113.028ZM274.175 114L271.115 109.968H269.495V114H267.911V104.892H269.495V108.78H271.079L273.923 104.892H275.795L272.465 109.266L276.101 114H274.175ZM285.263 104.892L281.159 115.242C280.823 116.082 280.427 116.694 279.971 117.078C279.527 117.474 278.987 117.672 278.351 117.672C277.871 117.672 277.379 117.552 276.875 117.312L277.271 116.088C277.415 116.196 277.577 116.28 277.757 116.34C277.937 116.412 278.099 116.448 278.243 116.448C278.675 116.448 279.035 116.298 279.323 115.998C279.623 115.698 279.887 115.2 280.115 114.504L280.187 114.324L276.407 104.892H278.117L280.889 112.434L283.697 104.892H285.263ZM294.509 104.892H296.759V114H295.211V106.764L292.421 114H291.143L288.389 106.8V114H286.913V104.892H289.145L291.791 112.128L294.509 104.892ZM307.307 109.05C307.307 109.242 307.295 109.458 307.271 109.698H300.593C300.653 110.73 300.941 111.546 301.457 112.146C301.973 112.734 302.663 113.028 303.527 113.028C304.043 113.028 304.541 112.902 305.021 112.65C305.501 112.386 305.903 112.014 306.227 111.534L307.253 112.398C306.857 112.998 306.329 113.46 305.669 113.784C305.009 114.096 304.289 114.252 303.509 114.252C302.609 114.252 301.817 114.054 301.133 113.658C300.461 113.25 299.939 112.68 299.567 111.948C299.195 111.216 299.009 110.37 299.009 109.41C299.009 108.474 299.189 107.646 299.549 106.926C299.909 106.194 300.413 105.63 301.061 105.234C301.721 104.838 302.483 104.64 303.347 104.64C304.139 104.64 304.835 104.82 305.435 105.18C306.035 105.54 306.497 106.056 306.821 106.728C307.145 107.388 307.307 108.162 307.307 109.05ZM305.705 108.546C305.681 107.718 305.459 107.064 305.039 106.584C304.631 106.092 304.055 105.846 303.311 105.846C302.579 105.846 301.979 106.086 301.511 106.566C301.043 107.034 300.755 107.694 300.647 108.546H305.705ZM315.871 104.892H317.455V114H315.871V109.95H311.137V114H309.553V104.892H311.137V108.762H315.871V104.892ZM327.205 104.892V106.098H323.983V114H322.381V106.098H319.141V104.892H327.205ZM332.309 108.258C333.413 108.258 334.277 108.516 334.901 109.032C335.537 109.548 335.855 110.25 335.855 111.138C335.855 112.014 335.543 112.71 334.919 113.226C334.307 113.742 333.467 114 332.399 114H328.907V104.892H330.491V108.258H332.309ZM332.201 112.776C332.813 112.776 333.293 112.632 333.641 112.344C334.001 112.056 334.181 111.654 334.181 111.138C334.181 110.622 334.007 110.22 333.659 109.932C333.311 109.632 332.825 109.482 332.201 109.482H330.491V112.776H332.201ZM337.925 104.892H339.527V114H337.925V104.892ZM352.961 109.248C353.633 109.38 354.149 109.638 354.509 110.022C354.869 110.406 355.049 110.874 355.049 111.426C355.049 112.218 354.701 112.848 354.005 113.316C353.321 113.772 352.373 114 351.161 114H347.381V104.892H351.161C352.265 104.892 353.129 105.102 353.753 105.522C354.389 105.942 354.707 106.518 354.707 107.25C354.707 107.73 354.557 108.15 354.257 108.51C353.957 108.858 353.525 109.104 352.961 109.248ZM348.983 106.098V108.69H351.179C351.791 108.69 352.259 108.582 352.583 108.366C352.907 108.138 353.069 107.814 353.069 107.394C353.069 106.986 352.901 106.668 352.565 106.44C352.241 106.212 351.779 106.098 351.179 106.098H348.983ZM351.197 112.794C351.881 112.794 352.415 112.668 352.799 112.416C353.183 112.152 353.375 111.786 353.375 111.318C353.375 110.85 353.177 110.496 352.781 110.256C352.397 110.016 351.869 109.896 351.197 109.896H348.983V112.794H351.197ZM79.054 129.892L74.95 140.242C74.614 141.082 74.218 141.694 73.762 142.078C73.318 142.474 72.778 142.672 72.142 142.672C71.662 142.672 71.17 142.552 70.666 142.312L71.062 141.088C71.206 141.196 71.368 141.28 71.548 141.34C71.728 141.412 71.89 141.448 72.034 141.448C72.466 141.448 72.826 141.298 73.114 140.998C73.414 140.698 73.678 140.2 73.906 139.504L73.978 139.324L70.198 129.892H71.908L74.68 137.434L77.488 129.892H79.054ZM85.3837 129.64C86.1637 129.64 86.8537 129.844 87.4537 130.252C88.0537 130.648 88.5157 131.206 88.8397 131.926C89.1757 132.646 89.3437 133.48 89.3437 134.428C89.3437 135.388 89.1697 136.234 88.8217 136.966C88.4857 137.686 88.0117 138.25 87.3997 138.658C86.7997 139.054 86.1097 139.252 85.3297 139.252C84.6817 139.252 84.0877 139.108 83.5477 138.82C83.0197 138.52 82.5997 138.106 82.2877 137.578V142.42H80.7037V129.892H82.0717L82.2337 131.548C82.5337 130.96 82.9597 130.498 83.5117 130.162C84.0757 129.814 84.6997 129.64 85.3837 129.64ZM85.0057 138.028C85.8217 138.028 86.4697 137.71 86.9497 137.074C87.4297 136.426 87.6697 135.556 87.6697 134.464C87.6697 133.36 87.4237 132.484 86.9317 131.836C86.4517 131.188 85.8037 130.864 84.9877 130.864C84.1717 130.864 83.5177 131.194 83.0257 131.854C82.5337 132.514 82.2877 133.39 82.2877 134.482C82.2877 135.55 82.5337 136.408 83.0257 137.056C83.5177 137.704 84.1777 138.028 85.0057 138.028ZM97.9201 129.892H99.5041V139H97.9201V134.95H93.1861V139H91.6021V129.892H93.1861V133.762H97.9201V129.892ZM109.992 129.892L105.888 140.242C105.552 141.082 105.156 141.694 104.7 142.078C104.256 142.474 103.716 142.672 103.08 142.672C102.6 142.672 102.108 142.552 101.604 142.312L102 141.088C102.144 141.196 102.306 141.28 102.486 141.34C102.666 141.412 102.828 141.448 102.972 141.448C103.404 141.448 103.764 141.298 104.052 140.998C104.352 140.698 104.616 140.2 104.844 139.504L104.916 139.324L101.136 129.892H102.846L105.618 137.434L108.426 129.892H109.992ZM111.456 139.252C111.12 139.252 110.85 139.156 110.646 138.964C110.442 138.76 110.34 138.49 110.34 138.154C110.34 137.83 110.442 137.566 110.646 137.362C110.85 137.158 111.12 137.056 111.456 137.056C111.792 137.056 112.062 137.158 112.266 137.362C112.482 137.566 112.59 137.83 112.59 138.154C112.59 138.49 112.482 138.76 112.266 138.964C112.062 139.156 111.792 139.252 111.456 139.252ZM129.717 125.95H131.103V139H129.573V128.344L122.121 139H120.735V125.95H122.265V136.606L129.717 125.95ZM138.171 139.252C137.271 139.252 136.473 139.048 135.777 138.64C135.093 138.232 134.559 137.662 134.175 136.93C133.803 136.198 133.617 135.364 133.617 134.428C133.617 133.492 133.809 132.664 134.193 131.944C134.577 131.212 135.111 130.648 135.795 130.252C136.479 129.844 137.265 129.64 138.153 129.64C138.945 129.64 139.653 129.808 140.277 130.144C140.901 130.48 141.387 130.954 141.735 131.566L140.637 132.34C139.989 131.356 139.173 130.864 138.189 130.864C137.325 130.864 136.623 131.194 136.083 131.854C135.555 132.502 135.291 133.348 135.291 134.392C135.291 135.1 135.411 135.73 135.651 136.282C135.903 136.834 136.245 137.266 136.677 137.578C137.121 137.878 137.631 138.028 138.207 138.028C139.215 138.028 140.031 137.53 140.655 136.534L141.753 137.326C141.405 137.95 140.919 138.43 140.295 138.766C139.683 139.09 138.975 139.252 138.171 139.252ZM151.445 129.892V139H149.843V131.098H145.235V139H143.633V129.892H151.445ZM158.101 139.252C157.237 139.252 156.469 139.054 155.797 138.658C155.137 138.25 154.621 137.686 154.249 136.966C153.877 136.234 153.691 135.394 153.691 134.446C153.691 133.51 153.877 132.676 154.249 131.944C154.621 131.212 155.137 130.648 155.797 130.252C156.469 129.844 157.243 129.64 158.119 129.64C158.983 129.64 159.751 129.844 160.423 130.252C161.095 130.648 161.617 131.212 161.989 131.944C162.361 132.664 162.547 133.492 162.547 134.428C162.547 135.376 162.361 136.216 161.989 136.948C161.617 137.68 161.095 138.25 160.423 138.658C159.751 139.054 158.977 139.252 158.101 139.252ZM158.101 138.028C158.941 138.028 159.607 137.698 160.099 137.038C160.603 136.378 160.855 135.502 160.855 134.41C160.855 133.342 160.603 132.484 160.099 131.836C159.595 131.188 158.929 130.864 158.101 130.864C157.273 130.864 156.607 131.194 156.103 131.854C155.611 132.502 155.365 133.366 155.365 134.446C155.365 135.526 155.611 136.396 156.103 137.056C156.607 137.704 157.273 138.028 158.101 138.028ZM163.402 137.614H163.618C164.194 137.614 164.668 137.326 165.04 136.75C165.412 136.162 165.598 135.082 165.598 133.51V129.892H171.466V139H169.882V131.116H167.038V133.69C167.038 135.166 166.792 136.42 166.3 137.452C165.808 138.484 164.956 139 163.744 139H163.402V137.614ZM177.744 133.258C178.848 133.258 179.712 133.516 180.336 134.032C180.972 134.548 181.29 135.25 181.29 136.138C181.29 137.014 180.978 137.71 180.354 138.226C179.742 138.742 178.902 139 177.834 139H174.342V129.892H175.926V133.258H177.744ZM177.636 137.776C178.248 137.776 178.728 137.632 179.076 137.344C179.436 137.056 179.616 136.654 179.616 136.138C179.616 135.622 179.442 135.22 179.094 134.932C178.746 134.632 178.26 134.482 177.636 134.482H175.926V137.776H177.636ZM187.876 134.32C188.56 134.512 189.082 134.806 189.442 135.202C189.802 135.586 189.982 136.048 189.982 136.588C189.982 137.092 189.826 137.548 189.514 137.956C189.202 138.352 188.758 138.664 188.182 138.892C187.606 139.12 186.94 139.234 186.184 139.234C184.6 139.234 183.352 138.7 182.44 137.632L183.466 136.696C184.126 137.572 185.014 138.01 186.13 138.01C186.79 138.01 187.318 137.872 187.714 137.596C188.11 137.32 188.308 136.948 188.308 136.48C188.308 136 188.098 135.628 187.678 135.364C187.27 135.1 186.694 134.968 185.95 134.968H184.978V133.744H186.004C186.628 133.744 187.126 133.612 187.498 133.348C187.882 133.072 188.074 132.718 188.074 132.286C188.074 131.854 187.888 131.512 187.516 131.26C187.144 130.996 186.682 130.864 186.13 130.864C185.65 130.864 185.188 130.972 184.744 131.188C184.312 131.404 183.964 131.71 183.7 132.106L182.692 131.206C183.052 130.714 183.544 130.33 184.168 130.054C184.804 129.778 185.5 129.64 186.256 129.64C186.928 129.64 187.522 129.754 188.038 129.982C188.566 130.198 188.974 130.498 189.262 130.882C189.562 131.266 189.712 131.698 189.712 132.178C189.712 132.67 189.55 133.102 189.226 133.474C188.914 133.846 188.464 134.128 187.876 134.32ZM199.868 129.892L195.764 140.242C195.428 141.082 195.032 141.694 194.576 142.078C194.132 142.474 193.592 142.672 192.956 142.672C192.476 142.672 191.984 142.552 191.48 142.312L191.876 141.088C192.02 141.196 192.182 141.28 192.362 141.34C192.542 141.412 192.704 141.448 192.848 141.448C193.28 141.448 193.64 141.298 193.928 140.998C194.228 140.698 194.492 140.2 194.72 139.504L194.792 139.324L191.012 129.892H192.722L195.494 137.434L198.302 129.892H199.868ZM207.962 129.892H209.546V139H207.998V131.872L203.12 139H201.518V129.892H203.084V137.02L207.962 129.892ZM205.514 128.56C204.698 128.56 204.032 128.32 203.516 127.84C203.012 127.36 202.748 126.73 202.724 125.95H203.984C204.008 126.406 204.158 126.76 204.434 127.012C204.71 127.264 205.076 127.39 205.532 127.39C206 127.39 206.366 127.264 206.63 127.012C206.906 126.748 207.056 126.394 207.08 125.95H208.34C208.316 126.73 208.046 127.36 207.53 127.84C207.014 128.32 206.342 128.56 205.514 128.56ZM219.31 129.892V131.098H216.088V139H214.486V131.098H211.246V129.892H219.31ZM228.381 134.05C228.381 134.242 228.369 134.458 228.345 134.698H221.667C221.727 135.73 222.015 136.546 222.531 137.146C223.047 137.734 223.737 138.028 224.601 138.028C225.117 138.028 225.615 137.902 226.095 137.65C226.575 137.386 226.977 137.014 227.301 136.534L228.327 137.398C227.931 137.998 227.403 138.46 226.743 138.784C226.083 139.096 225.363 139.252 224.583 139.252C223.683 139.252 222.891 139.054 222.207 138.658C221.535 138.25 221.013 137.68 220.641 136.948C220.269 136.216 220.083 135.37 220.083 134.41C220.083 133.474 220.263 132.646 220.623 131.926C220.983 131.194 221.487 130.63 222.135 130.234C222.795 129.838 223.557 129.64 224.421 129.64C225.213 129.64 225.909 129.82 226.509 130.18C227.109 130.54 227.571 131.056 227.895 131.728C228.219 132.388 228.381 133.162 228.381 134.05ZM226.779 133.546C226.755 132.718 226.533 132.064 226.113 131.584C225.705 131.092 225.129 130.846 224.385 130.846C223.653 130.846 223.053 131.086 222.585 131.566C222.117 132.034 221.829 132.694 221.721 133.546H226.779ZM245.482 129.892H247.066V139H235.672V129.892H237.238V137.776H240.568V129.892H242.152V137.776H245.482V129.892ZM254.626 129.64C255.406 129.64 256.096 129.844 256.696 130.252C257.296 130.648 257.758 131.206 258.082 131.926C258.418 132.646 258.586 133.48 258.586 134.428C258.586 135.388 258.412 136.234 258.064 136.966C257.728 137.686 257.254 138.25 256.642 138.658C256.042 139.054 255.352 139.252 254.572 139.252C253.924 139.252 253.33 139.108 252.79 138.82C252.262 138.52 251.842 138.106 251.53 137.578V142.42H249.946V129.892H251.314L251.476 131.548C251.776 130.96 252.202 130.498 252.754 130.162C253.318 129.814 253.942 129.64 254.626 129.64ZM254.248 138.028C255.064 138.028 255.712 137.71 256.192 137.074C256.672 136.426 256.912 135.556 256.912 134.464C256.912 133.36 256.666 132.484 256.174 131.836C255.694 131.188 255.046 130.864 254.23 130.864C253.414 130.864 252.76 131.194 252.268 131.854C251.776 132.514 251.53 133.39 251.53 134.482C251.53 135.55 251.776 136.408 252.268 137.056C252.76 137.704 253.42 138.028 254.248 138.028ZM268.512 134.05C268.512 134.242 268.5 134.458 268.476 134.698H261.798C261.858 135.73 262.146 136.546 262.662 137.146C263.178 137.734 263.868 138.028 264.732 138.028C265.248 138.028 265.746 137.902 266.226 137.65C266.706 137.386 267.108 137.014 267.432 136.534L268.458 137.398C268.062 137.998 267.534 138.46 266.874 138.784C266.214 139.096 265.494 139.252 264.714 139.252C263.814 139.252 263.022 139.054 262.338 138.658C261.666 138.25 261.144 137.68 260.772 136.948C260.4 136.216 260.214 135.37 260.214 134.41C260.214 133.474 260.394 132.646 260.754 131.926C261.114 131.194 261.618 130.63 262.266 130.234C262.926 129.838 263.688 129.64 264.552 129.64C265.344 129.64 266.04 129.82 266.64 130.18C267.24 130.54 267.702 131.056 268.026 131.728C268.35 132.388 268.512 133.162 268.512 134.05ZM266.91 133.546C266.886 132.718 266.664 132.064 266.244 131.584C265.836 131.092 265.26 130.846 264.516 130.846C263.784 130.846 263.184 131.086 262.716 131.566C262.248 132.034 261.96 132.694 261.852 133.546H266.91ZM279.506 137.776V141.088H278.012V139H271.172V141.088H269.66V137.776H270.614C271.202 137.2 271.61 136.528 271.838 135.76C272.078 134.992 272.198 133.972 272.198 132.7V129.892H278.192V137.776H279.506ZM273.638 132.862C273.638 133.99 273.53 134.95 273.314 135.742C273.098 136.534 272.78 137.212 272.36 137.776H276.608V131.116H273.638V132.862ZM288.956 134.05C288.956 134.242 288.944 134.458 288.92 134.698H282.242C282.302 135.73 282.59 136.546 283.106 137.146C283.622 137.734 284.312 138.028 285.176 138.028C285.692 138.028 286.19 137.902 286.67 137.65C287.15 137.386 287.552 137.014 287.876 136.534L288.902 137.398C288.506 137.998 287.978 138.46 287.318 138.784C286.658 139.096 285.938 139.252 285.158 139.252C284.258 139.252 283.466 139.054 282.782 138.658C282.11 138.25 281.588 137.68 281.216 136.948C280.844 136.216 280.658 135.37 280.658 134.41C280.658 133.474 280.838 132.646 281.198 131.926C281.558 131.194 282.062 130.63 282.71 130.234C283.37 129.838 284.132 129.64 284.996 129.64C285.788 129.64 286.484 129.82 287.084 130.18C287.684 130.54 288.146 131.056 288.47 131.728C288.794 132.388 288.956 133.162 288.956 134.05ZM287.354 133.546C287.33 132.718 287.108 132.064 286.688 131.584C286.28 131.092 285.704 130.846 284.96 130.846C284.228 130.846 283.628 131.086 283.16 131.566C282.692 132.034 282.404 132.694 282.296 133.546H287.354ZM295.882 129.64C296.662 129.64 297.352 129.844 297.952 130.252C298.552 130.648 299.014 131.206 299.338 131.926C299.674 132.646 299.842 133.48 299.842 134.428C299.842 135.388 299.668 136.234 299.32 136.966C298.984 137.686 298.51 138.25 297.898 138.658C297.298 139.054 296.608 139.252 295.828 139.252C295.18 139.252 294.586 139.108 294.046 138.82C293.518 138.52 293.098 138.106 292.786 137.578V142.42H291.202V129.892H292.57L292.732 131.548C293.032 130.96 293.458 130.498 294.01 130.162C294.574 129.814 295.198 129.64 295.882 129.64ZM295.504 138.028C296.32 138.028 296.968 137.71 297.448 137.074C297.928 136.426 298.168 135.556 298.168 134.464C298.168 133.36 297.922 132.484 297.43 131.836C296.95 131.188 296.302 130.864 295.486 130.864C294.67 130.864 294.016 131.194 293.524 131.854C293.032 132.514 292.786 133.39 292.786 134.482C292.786 135.55 293.032 136.408 293.524 137.056C294.016 137.704 294.676 138.028 295.504 138.028ZM313.589 129.892H315.173V139H313.625V131.872L308.747 139H307.145V129.892H308.711V137.02L313.589 129.892ZM317.017 137.614H317.233C317.809 137.614 318.283 137.326 318.655 136.75C319.027 136.162 319.213 135.082 319.213 133.51V129.892H325.081V139H323.497V131.116H320.653V133.69C320.653 135.166 320.407 136.42 319.915 137.452C319.423 138.484 318.571 139 317.359 139H317.017V137.614ZM334.402 129.892H335.986V139H334.438V131.872L329.56 139H327.958V129.892H329.524V137.02L334.402 129.892ZM75.364 164.252C74.464 164.252 73.666 164.048 72.97 163.64C72.286 163.232 71.752 162.662 71.368 161.93C70.996 161.198 70.81 160.364 70.81 159.428C70.81 158.492 71.002 157.664 71.386 156.944C71.77 156.212 72.304 155.648 72.988 155.252C73.672 154.844 74.458 154.64 75.346 154.64C76.138 154.64 76.846 154.808 77.47 155.144C78.094 155.48 78.58 155.954 78.928 156.566L77.83 157.34C77.182 156.356 76.366 155.864 75.382 155.864C74.518 155.864 73.816 156.194 73.276 156.854C72.748 157.502 72.484 158.348 72.484 159.392C72.484 160.1 72.604 160.73 72.844 161.282C73.096 161.834 73.438 162.266 73.87 162.578C74.314 162.878 74.824 163.028 75.4 163.028C76.408 163.028 77.224 162.53 77.848 161.534L78.946 162.326C78.598 162.95 78.112 163.43 77.488 163.766C76.876 164.09 76.168 164.252 75.364 164.252ZM88.6387 154.892V164H87.0367V156.098H82.4287V164H80.8267V154.892H88.6387ZM99.1822 159.05C99.1822 159.242 99.1702 159.458 99.1462 159.698H92.4682C92.5282 160.73 92.8162 161.546 93.3322 162.146C93.8482 162.734 94.5382 163.028 95.4022 163.028C95.9182 163.028 96.4162 162.902 96.8962 162.65C97.3762 162.386 97.7782 162.014 98.1022 161.534L99.1282 162.398C98.7322 162.998 98.2042 163.46 97.5442 163.784C96.8842 164.096 96.1642 164.252 95.3842 164.252C94.4842 164.252 93.6922 164.054 93.0082 163.658C92.3362 163.25 91.8142 162.68 91.4422 161.948C91.0702 161.216 90.8842 160.37 90.8842 159.41C90.8842 158.474 91.0642 157.646 91.4242 156.926C91.7842 156.194 92.2882 155.63 92.9362 155.234C93.5962 154.838 94.3582 154.64 95.2222 154.64C96.0142 154.64 96.7102 154.82 97.3102 155.18C97.9102 155.54 98.3722 156.056 98.6962 156.728C99.0202 157.388 99.1822 158.162 99.1822 159.05ZM97.5802 158.546C97.5562 157.718 97.3342 157.064 96.9142 156.584C96.5062 156.092 95.9302 155.846 95.1862 155.846C94.4542 155.846 93.8542 156.086 93.3862 156.566C92.9182 157.034 92.6302 157.694 92.5222 158.546H97.5802ZM108.934 162.776H110.338V166.088H108.844V164H101.428V154.892H103.03V162.776H107.332V154.892H108.934V162.776ZM118.56 154.892H120.144V164H118.596V156.872L113.718 164H112.116V154.892H113.682V162.02L118.56 154.892ZM125.426 164.252C124.502 164.252 123.752 164 123.176 163.496C122.612 162.98 122.33 162.308 122.33 161.48C122.33 160.544 122.702 159.812 123.446 159.284C124.202 158.756 125.252 158.492 126.596 158.492C127.196 158.492 127.796 158.534 128.396 158.618V158.06C128.396 157.4 128.192 156.872 127.784 156.476C127.388 156.068 126.854 155.864 126.182 155.864C125.726 155.864 125.258 155.972 124.778 156.188C124.31 156.404 123.89 156.692 123.518 157.052L122.672 155.99C123.152 155.558 123.704 155.228 124.328 155C124.964 154.76 125.624 154.64 126.308 154.64C127.028 154.64 127.664 154.778 128.216 155.054C128.78 155.33 129.212 155.714 129.512 156.206C129.824 156.698 129.98 157.268 129.98 157.916V164H128.612L128.486 162.65C128.174 163.166 127.754 163.562 127.226 163.838C126.698 164.114 126.098 164.252 125.426 164.252ZM125.786 163.082C126.266 163.082 126.704 162.968 127.1 162.74C127.508 162.5 127.826 162.182 128.054 161.786C128.282 161.378 128.396 160.928 128.396 160.436V159.752C127.82 159.668 127.298 159.626 126.83 159.626C125.882 159.626 125.156 159.782 124.652 160.094C124.16 160.394 123.914 160.838 123.914 161.426C123.914 161.93 124.082 162.332 124.418 162.632C124.766 162.932 125.222 163.082 125.786 163.082ZM131.796 162.614H132.012C132.588 162.614 133.062 162.326 133.434 161.75C133.806 161.162 133.992 160.082 133.992 158.51V154.892H139.86V164H138.276V156.116H135.432V158.69C135.432 160.166 135.186 161.42 134.694 162.452C134.202 163.484 133.35 164 132.138 164H131.796V162.614ZM146.139 158.258C147.243 158.258 148.107 158.516 148.731 159.032C149.367 159.548 149.685 160.25 149.685 161.138C149.685 162.014 149.373 162.71 148.749 163.226C148.137 163.742 147.297 164 146.229 164H142.737V154.892H144.321V158.258H146.139ZM146.031 162.776C146.643 162.776 147.123 162.632 147.471 162.344C147.831 162.056 148.011 161.654 148.011 161.138C148.011 160.622 147.837 160.22 147.489 159.932C147.141 159.632 146.655 159.482 146.031 159.482H144.321V162.776H146.031ZM158.16 154.892H159.744V164H158.16V159.95H153.426V164H151.842V154.892H153.426V158.762H158.16V154.892ZM166.02 158.258C167.124 158.258 167.988 158.516 168.612 159.032C169.248 159.548 169.566 160.25 169.566 161.138C169.566 162.014 169.254 162.71 168.63 163.226C168.018 163.742 167.178 164 166.11 164H162.618V154.892H164.202V158.258H166.02ZM165.912 162.776C166.524 162.776 167.004 162.632 167.352 162.344C167.712 162.056 167.892 161.654 167.892 161.138C167.892 160.622 167.718 160.22 167.37 159.932C167.022 159.632 166.536 159.482 165.912 159.482H164.202V162.776H165.912ZM171.636 154.892H173.238V164H171.636V154.892ZM182.491 154.892H184.075V164H182.527V156.872L177.649 164H176.047V154.892H177.613V162.02L182.491 154.892ZM180.043 153.56C179.227 153.56 178.561 153.32 178.045 152.84C177.541 152.36 177.277 151.73 177.253 150.95H178.513C178.537 151.406 178.687 151.76 178.963 152.012C179.239 152.264 179.605 152.39 180.061 152.39C180.529 152.39 180.895 152.264 181.159 152.012C181.435 151.748 181.585 151.394 181.609 150.95H182.869C182.845 151.73 182.575 152.36 182.059 152.84C181.543 153.32 180.871 153.56 180.043 153.56ZM198.272 164L195.212 159.968H193.592V164H192.008V154.892H193.592V158.78H195.176L198.02 154.892H199.892L196.562 159.266L200.198 164H198.272ZM205.474 164.252C204.61 164.252 203.842 164.054 203.17 163.658C202.51 163.25 201.994 162.686 201.622 161.966C201.25 161.234 201.064 160.394 201.064 159.446C201.064 158.51 201.25 157.676 201.622 156.944C201.994 156.212 202.51 155.648 203.17 155.252C203.842 154.844 204.616 154.64 205.492 154.64C206.356 154.64 207.124 154.844 207.796 155.252C208.468 155.648 208.99 156.212 209.362 156.944C209.734 157.664 209.92 158.492 209.92 159.428C209.92 160.376 209.734 161.216 209.362 161.948C208.99 162.68 208.468 163.25 207.796 163.658C207.124 164.054 206.35 164.252 205.474 164.252ZM205.474 163.028C206.314 163.028 206.98 162.698 207.472 162.038C207.976 161.378 208.228 160.502 208.228 159.41C208.228 158.342 207.976 157.484 207.472 156.836C206.968 156.188 206.302 155.864 205.474 155.864C204.646 155.864 203.98 156.194 203.476 156.854C202.984 157.502 202.738 158.366 202.738 159.446C202.738 160.526 202.984 161.396 203.476 162.056C203.98 162.704 204.646 163.028 205.474 163.028ZM218.488 154.892H220.072V164H218.488V159.95H213.754V164H212.17V154.892H213.754V158.762H218.488V154.892ZM229.822 154.892V156.098H226.6V164H224.998V156.098H221.758V154.892H229.822ZM238.893 159.05C238.893 159.242 238.881 159.458 238.857 159.698H232.179C232.239 160.73 232.527 161.546 233.043 162.146C233.559 162.734 234.249 163.028 235.113 163.028C235.629 163.028 236.127 162.902 236.607 162.65C237.087 162.386 237.489 162.014 237.813 161.534L238.839 162.398C238.443 162.998 237.915 163.46 237.255 163.784C236.595 164.096 235.875 164.252 235.095 164.252C234.195 164.252 233.403 164.054 232.719 163.658C232.047 163.25 231.525 162.68 231.153 161.948C230.781 161.216 230.595 160.37 230.595 159.41C230.595 158.474 230.775 157.646 231.135 156.926C231.495 156.194 231.999 155.63 232.647 155.234C233.307 154.838 234.069 154.64 234.933 154.64C235.725 154.64 236.421 154.82 237.021 155.18C237.621 155.54 238.083 156.056 238.407 156.728C238.731 157.388 238.893 158.162 238.893 159.05ZM237.291 158.546C237.267 157.718 237.045 157.064 236.625 156.584C236.217 156.092 235.641 155.846 234.897 155.846C234.165 155.846 233.565 156.086 233.097 156.566C232.629 157.034 232.341 157.694 232.233 158.546H237.291ZM247.583 154.892H249.167V164H247.619V156.872L242.741 164H241.139V154.892H242.705V162.02L247.583 154.892ZM245.135 153.56C244.319 153.56 243.653 153.32 243.137 152.84C242.633 152.36 242.369 151.73 242.345 150.95H243.605C243.629 151.406 243.779 151.76 244.055 152.012C244.331 152.264 244.697 152.39 245.153 152.39C245.621 152.39 245.987 152.264 246.251 152.012C246.527 151.748 246.677 151.394 246.701 150.95H247.961C247.937 151.73 247.667 152.36 247.151 152.84C246.635 153.32 245.963 153.56 245.135 153.56ZM258.373 154.892H259.957V164H258.373V159.95H253.639V164H252.055V154.892H253.639V158.762H258.373V154.892ZM270.499 159.05C270.499 159.242 270.487 159.458 270.463 159.698H263.785C263.845 160.73 264.133 161.546 264.649 162.146C265.165 162.734 265.855 163.028 266.719 163.028C267.235 163.028 267.733 162.902 268.213 162.65C268.693 162.386 269.095 162.014 269.419 161.534L270.445 162.398C270.049 162.998 269.521 163.46 268.861 163.784C268.201 164.096 267.481 164.252 266.701 164.252C265.801 164.252 265.009 164.054 264.325 163.658C263.653 163.25 263.131 162.68 262.759 161.948C262.387 161.216 262.201 160.37 262.201 159.41C262.201 158.474 262.381 157.646 262.741 156.926C263.101 156.194 263.605 155.63 264.253 155.234C264.913 154.838 265.675 154.64 266.539 154.64C267.331 154.64 268.027 154.82 268.627 155.18C269.227 155.54 269.689 156.056 270.013 156.728C270.337 157.388 270.499 158.162 270.499 159.05ZM268.897 158.546C268.873 157.718 268.651 157.064 268.231 156.584C267.823 156.092 267.247 155.846 266.503 155.846C265.771 155.846 265.171 156.086 264.703 156.566C264.235 157.034 263.947 157.694 263.839 158.546H268.897ZM277.425 154.64C278.205 154.64 278.895 154.844 279.495 155.252C280.095 155.648 280.557 156.206 280.881 156.926C281.217 157.646 281.385 158.48 281.385 159.428C281.385 160.388 281.211 161.234 280.863 161.966C280.527 162.686 280.053 163.25 279.441 163.658C278.841 164.054 278.151 164.252 277.371 164.252C276.723 164.252 276.129 164.108 275.589 163.82C275.061 163.52 274.641 163.106 274.329 162.578V167.42H272.745V154.892H274.113L274.275 156.548C274.575 155.96 275.001 155.498 275.553 155.162C276.117 154.814 276.741 154.64 277.425 154.64ZM277.047 163.028C277.863 163.028 278.511 162.71 278.991 162.074C279.471 161.426 279.711 160.556 279.711 159.464C279.711 158.36 279.465 157.484 278.973 156.836C278.493 156.188 277.845 155.864 277.029 155.864C276.213 155.864 275.559 156.194 275.067 156.854C274.575 157.514 274.329 158.39 274.329 159.482C274.329 160.55 274.575 161.408 275.067 162.056C275.559 162.704 276.219 163.028 277.047 163.028ZM297.436 162.776V166.088H295.942V164H289.102V166.088H287.59V162.776H288.544C289.132 162.2 289.54 161.528 289.768 160.76C290.008 159.992 290.128 158.972 290.128 157.7V154.892H296.122V162.776H297.436ZM291.568 157.862C291.568 158.99 291.46 159.95 291.244 160.742C291.028 161.534 290.71 162.212 290.29 162.776H294.538V156.116H291.568V157.862ZM298.718 162.614H298.934C299.51 162.614 299.984 162.326 300.356 161.75C300.728 161.162 300.914 160.082 300.914 158.51V154.892H306.782V164H305.198V156.116H302.354V158.69C302.354 160.166 302.108 161.42 301.616 162.452C301.124 163.484 300.272 164 299.06 164H298.718V162.614ZM316.391 164H314.807V160.58H312.953L310.523 164H308.687L311.297 160.31C310.649 160.142 310.133 159.83 309.749 159.374C309.377 158.906 309.191 158.348 309.191 157.7C309.191 156.836 309.509 156.152 310.145 155.648C310.781 155.144 311.663 154.892 312.791 154.892H316.391V164ZM314.807 159.356V156.098H312.917C312.257 156.098 311.747 156.242 311.387 156.53C311.027 156.806 310.847 157.202 310.847 157.718C310.847 158.234 311.033 158.636 311.405 158.924C311.789 159.212 312.323 159.356 313.007 159.356H314.807ZM79.054 179.892L74.95 190.242C74.614 191.082 74.218 191.694 73.762 192.078C73.318 192.474 72.778 192.672 72.142 192.672C71.662 192.672 71.17 192.552 70.666 192.312L71.062 191.088C71.206 191.196 71.368 191.28 71.548 191.34C71.728 191.412 71.89 191.448 72.034 191.448C72.466 191.448 72.826 191.298 73.114 190.998C73.414 190.698 73.678 190.2 73.906 189.504L73.978 189.324L70.198 179.892H71.908L74.68 187.434L77.488 179.892H79.054ZM87.0217 179.892H88.6057V189H87.0217V184.95H82.2877V189H80.7037V179.892H82.2877V183.762H87.0217V179.892ZM97.9231 179.892H99.5071V189H97.9591V181.872L93.0811 189H91.4791V179.892H93.0451V187.02L97.9231 179.892ZM109.271 179.892V189H107.669V185.76C106.853 185.928 106.109 186.012 105.437 186.012C104.309 186.012 103.451 185.742 102.863 185.202C102.275 184.65 101.981 183.858 101.981 182.826V179.892H103.583V182.826C103.583 184.134 104.309 184.788 105.761 184.788C106.349 184.788 106.985 184.722 107.669 184.59V179.892H109.271ZM119.027 179.892V181.098H115.805V189H114.203V181.098H110.963V179.892H119.027ZM124.21 189.252C123.346 189.252 122.578 189.054 121.906 188.658C121.246 188.25 120.73 187.686 120.358 186.966C119.986 186.234 119.8 185.394 119.8 184.446C119.8 183.51 119.986 182.676 120.358 181.944C120.73 181.212 121.246 180.648 121.906 180.252C122.578 179.844 123.352 179.64 124.228 179.64C125.092 179.64 125.86 179.844 126.532 180.252C127.204 180.648 127.726 181.212 128.098 181.944C128.47 182.664 128.656 183.492 128.656 184.428C128.656 185.376 128.47 186.216 128.098 186.948C127.726 187.68 127.204 188.25 126.532 188.658C125.86 189.054 125.086 189.252 124.21 189.252ZM124.21 188.028C125.05 188.028 125.716 187.698 126.208 187.038C126.712 186.378 126.964 185.502 126.964 184.41C126.964 183.342 126.712 182.484 126.208 181.836C125.704 181.188 125.038 180.864 124.21 180.864C123.382 180.864 122.716 181.194 122.212 181.854C121.72 182.502 121.474 183.366 121.474 184.446C121.474 185.526 121.72 186.396 122.212 187.056C122.716 187.704 123.382 188.028 124.21 188.028ZM141.712 189L138.652 184.986H137.374V189H135.79V184.986H134.512L131.452 189H129.526L133.198 184.23L129.85 179.892H131.704L134.548 183.762H135.79V179.892H137.374V183.762H138.616L141.46 179.892H143.314L139.966 184.23L143.638 189H141.712ZM152.69 184.05C152.69 184.242 152.678 184.458 152.654 184.698H145.976C146.036 185.73 146.324 186.546 146.84 187.146C147.356 187.734 148.046 188.028 148.91 188.028C149.426 188.028 149.924 187.902 150.404 187.65C150.884 187.386 151.286 187.014 151.61 186.534L152.636 187.398C152.24 187.998 151.712 188.46 151.052 188.784C150.392 189.096 149.672 189.252 148.892 189.252C147.992 189.252 147.2 189.054 146.516 188.658C145.844 188.25 145.322 187.68 144.95 186.948C144.578 186.216 144.392 185.37 144.392 184.41C144.392 183.474 144.572 182.646 144.932 181.926C145.292 181.194 145.796 180.63 146.444 180.234C147.104 179.838 147.866 179.64 148.73 179.64C149.522 179.64 150.218 179.82 150.818 180.18C151.418 180.54 151.88 181.056 152.204 181.728C152.528 182.388 152.69 183.162 152.69 184.05ZM151.088 183.546C151.064 182.718 150.842 182.064 150.422 181.584C150.014 181.092 149.438 180.846 148.694 180.846C147.962 180.846 147.362 181.086 146.894 181.566C146.426 182.034 146.138 182.694 146.03 183.546H151.088ZM161.254 179.892H162.838V189H161.254V184.95H156.52V189H154.936V179.892H156.52V183.762H161.254V179.892ZM172.155 179.892H173.739V189H172.191V181.872L167.313 189H165.711V179.892H167.277V187.02L172.155 179.892ZM183.36 189H181.776V185.58H179.922L177.492 189H175.656L178.266 185.31C177.618 185.142 177.102 184.83 176.718 184.374C176.346 183.906 176.16 183.348 176.16 182.7C176.16 181.836 176.478 181.152 177.114 180.648C177.75 180.144 178.632 179.892 179.76 179.892H183.36V189ZM181.776 184.356V181.098H179.886C179.226 181.098 178.716 181.242 178.356 181.53C177.996 181.806 177.816 182.202 177.816 182.718C177.816 183.234 178.002 183.636 178.374 183.924C178.758 184.212 179.292 184.356 179.976 184.356H181.776ZM200.036 187.776V191.088H198.542V189H191.702V191.088H190.19V187.776H191.144C191.732 187.2 192.14 186.528 192.368 185.76C192.608 184.992 192.728 183.972 192.728 182.7V179.892H198.722V187.776H200.036ZM194.168 182.862C194.168 183.99 194.06 184.95 193.844 185.742C193.628 186.534 193.31 187.212 192.89 187.776H197.138V181.116H194.168V182.862ZM205.597 189.252C204.733 189.252 203.965 189.054 203.293 188.658C202.633 188.25 202.117 187.686 201.745 186.966C201.373 186.234 201.187 185.394 201.187 184.446C201.187 183.51 201.373 182.676 201.745 181.944C202.117 181.212 202.633 180.648 203.293 180.252C203.965 179.844 204.739 179.64 205.615 179.64C206.479 179.64 207.247 179.844 207.919 180.252C208.591 180.648 209.113 181.212 209.485 181.944C209.857 182.664 210.043 183.492 210.043 184.428C210.043 185.376 209.857 186.216 209.485 186.948C209.113 187.68 208.591 188.25 207.919 188.658C207.247 189.054 206.473 189.252 205.597 189.252ZM205.597 188.028C206.437 188.028 207.103 187.698 207.595 187.038C208.099 186.378 208.351 185.502 208.351 184.41C208.351 183.342 208.099 182.484 207.595 181.836C207.091 181.188 206.425 180.864 205.597 180.864C204.769 180.864 204.103 181.194 203.599 181.854C203.107 182.502 202.861 183.366 202.861 184.446C202.861 185.526 203.107 186.396 203.599 187.056C204.103 187.704 204.769 188.028 205.597 188.028ZM218.558 189L215.498 184.968H213.878V189H212.294V179.892H213.878V183.78H215.462L218.306 179.892H220.178L216.848 184.266L220.484 189H218.558ZM229.646 179.892L225.542 190.242C225.206 191.082 224.81 191.694 224.354 192.078C223.91 192.474 223.37 192.672 222.734 192.672C222.254 192.672 221.762 192.552 221.258 192.312L221.654 191.088C221.798 191.196 221.96 191.28 222.14 191.34C222.32 191.412 222.482 191.448 222.626 191.448C223.058 191.448 223.418 191.298 223.706 190.998C224.006 190.698 224.27 190.2 224.498 189.504L224.57 189.324L220.79 179.892H222.5L225.272 187.434L228.08 179.892H229.646ZM238.891 179.892H241.141V189H239.593V181.764L236.803 189H235.525L232.771 181.8V189H231.295V179.892H233.527L236.173 187.128L238.891 179.892ZM251.69 184.05C251.69 184.242 251.678 184.458 251.654 184.698H244.976C245.036 185.73 245.324 186.546 245.84 187.146C246.356 187.734 247.046 188.028 247.91 188.028C248.426 188.028 248.924 187.902 249.404 187.65C249.884 187.386 250.286 187.014 250.61 186.534L251.636 187.398C251.24 187.998 250.712 188.46 250.052 188.784C249.392 189.096 248.672 189.252 247.892 189.252C246.992 189.252 246.2 189.054 245.516 188.658C244.844 188.25 244.322 187.68 243.95 186.948C243.578 186.216 243.392 185.37 243.392 184.41C243.392 183.474 243.572 182.646 243.932 181.926C244.292 181.194 244.796 180.63 245.444 180.234C246.104 179.838 246.866 179.64 247.73 179.64C248.522 179.64 249.218 179.82 249.818 180.18C250.418 180.54 250.88 181.056 251.204 181.728C251.528 182.388 251.69 183.162 251.69 184.05ZM250.088 183.546C250.064 182.718 249.842 182.064 249.422 181.584C249.014 181.092 248.438 180.846 247.694 180.846C246.962 180.846 246.362 181.086 245.894 181.566C245.426 182.034 245.138 182.694 245.03 183.546H250.088ZM260.254 179.892H261.838V189H260.254V184.95H255.52V189H253.936V179.892H255.52V183.762H260.254V179.892ZM271.587 179.892V181.098H268.365V189H266.763V181.098H263.523V179.892H271.587ZM276.771 189.252C275.907 189.252 275.139 189.054 274.467 188.658C273.807 188.25 273.291 187.686 272.919 186.966C272.547 186.234 272.361 185.394 272.361 184.446C272.361 183.51 272.547 182.676 272.919 181.944C273.291 181.212 273.807 180.648 274.467 180.252C275.139 179.844 275.913 179.64 276.789 179.64C277.653 179.64 278.421 179.844 279.093 180.252C279.765 180.648 280.287 181.212 280.659 181.944C281.031 182.664 281.217 183.492 281.217 184.428C281.217 185.376 281.031 186.216 280.659 186.948C280.287 187.68 279.765 188.25 279.093 188.658C278.421 189.054 277.647 189.252 276.771 189.252ZM276.771 188.028C277.611 188.028 278.277 187.698 278.769 187.038C279.273 186.378 279.525 185.502 279.525 184.41C279.525 183.342 279.273 182.484 278.769 181.836C278.265 181.188 277.599 180.864 276.771 180.864C275.943 180.864 275.277 181.194 274.773 181.854C274.281 182.502 274.035 183.366 274.035 184.446C274.035 185.526 274.281 186.396 274.773 187.056C275.277 187.704 275.943 188.028 276.771 188.028ZM289.047 184.248C289.719 184.38 290.235 184.638 290.595 185.022C290.955 185.406 291.135 185.874 291.135 186.426C291.135 187.218 290.787 187.848 290.091 188.316C289.407 188.772 288.459 189 287.247 189H283.467V179.892H287.247C288.351 179.892 289.215 180.102 289.839 180.522C290.475 180.942 290.793 181.518 290.793 182.25C290.793 182.73 290.643 183.15 290.343 183.51C290.043 183.858 289.611 184.104 289.047 184.248ZM285.069 181.098V183.69H287.265C287.877 183.69 288.345 183.582 288.669 183.366C288.993 183.138 289.155 182.814 289.155 182.394C289.155 181.986 288.987 181.668 288.651 181.44C288.327 181.212 287.865 181.098 287.265 181.098H285.069ZM287.283 187.794C287.967 187.794 288.501 187.668 288.885 187.416C289.269 187.152 289.461 186.786 289.461 186.318C289.461 185.85 289.263 185.496 288.867 185.256C288.483 185.016 287.955 184.896 287.283 184.896H285.069V187.794H287.283ZM294.409 189.252C294.073 189.252 293.803 189.156 293.599 188.964C293.395 188.76 293.293 188.49 293.293 188.154C293.293 187.83 293.395 187.566 293.599 187.362C293.803 187.158 294.073 187.056 294.409 187.056C294.745 187.056 295.015 187.158 295.219 187.362C295.435 187.566 295.543 187.83 295.543 188.154C295.543 188.49 295.435 188.76 295.219 188.964C295.015 189.156 294.745 189.252 294.409 189.252Z" fill="#2F2F2F"/>
<path d="M395 76L383 88" stroke="#2F2F2F" stroke-width="2" stroke-linecap="round" stroke-linejoin="round"/>
<path d="M383 76L395 88" stroke="#2F2F2F" stroke-width="2" stroke-linecap="round" stroke-linejoin="round"/>
<path d="M448.481 135.248C450.702 133.652 450.702 130.348 448.481 128.752L421 109L421 155L448.481 135.248Z" fill="white"/>
</g>
<defs>
<filter id="filter0_d_2_1827" x="0" y="0" width="503" height="265" filterUnits="userSpaceOnUse" color-interpolation-filters="sRGB">
<feFlood flood-opacity="0" result="BackgroundImageFix"/>
<feColorMatrix in="SourceAlpha" type="matrix" values="0 0 0 0 0 0 0 0 0 0 0 0 0 0 0 0 0 0 127 0" result="hardAlpha"/>
<feOffset/>
<feGaussianBlur stdDeviation="25"/>
<feComposite in2="hardAlpha" operator="out"/>
<feColorMatrix type="matrix" values="0 0 0 0 0 0 0 0 0 0 0 0 0 0 0 0 0 0 0.25 0"/>
<feBlend mode="normal" in2="BackgroundImageFix" result="effect1_dropShadow_2_1827"/>
<feBlend mode="normal" in="SourceGraphic" in2="effect1_dropShadow_2_1827" result="shape"/>
</filter>
</defs>
</svg>
