<svg width="440" height="272" viewBox="0 0 440 272" fill="none" xmlns="http://www.w3.org/2000/svg">
<g filter="url(#filter0_d_2_1787)">
<path d="M216.752 54.519C218.348 52.2984 221.652 52.2984 223.248 54.519L243 82H197L216.752 54.519Z" fill="white"/>
<rect x="50" y="82" width="340" height="140" rx="20" fill="white"/>
<path d="M80.152 121L76.228 115.078H73.42V121H71.71V107.95H73.42V113.728H76.21L79.864 107.95H81.772L77.668 114.106V114.322L82.222 121H80.152ZM87.1731 121.252C86.3091 121.252 85.5411 121.054 84.8691 120.658C84.2091 120.25 83.6931 119.686 83.3211 118.966C82.9491 118.234 82.7631 117.394 82.7631 116.446C82.7631 115.51 82.9491 114.676 83.3211 113.944C83.6931 113.212 84.2091 112.648 84.8691 112.252C85.5411 111.844 86.3151 111.64 87.1911 111.64C88.0551 111.64 88.8231 111.844 89.4951 112.252C90.1671 112.648 90.6891 113.212 91.0611 113.944C91.4331 114.664 91.6191 115.492 91.6191 116.428C91.6191 117.376 91.4331 118.216 91.0611 118.948C90.6891 119.68 90.1671 120.25 89.4951 120.658C88.8231 121.054 88.0491 121.252 87.1731 121.252ZM87.1731 120.028C88.0131 120.028 88.6791 119.698 89.1711 119.038C89.6751 118.378 89.9271 117.502 89.9271 116.41C89.9271 115.342 89.6751 114.484 89.1711 113.836C88.6671 113.188 88.0011 112.864 87.1731 112.864C86.3451 112.864 85.6791 113.194 85.1751 113.854C84.6831 114.502 84.4371 115.366 84.4371 116.446C84.4371 117.526 84.6831 118.396 85.1751 119.056C85.6791 119.704 86.3451 120.028 87.1731 120.028ZM100.026 111.892V113.08H95.4537V121H93.8697V111.892H100.026ZM109.262 119.776V123.088H107.768V121H100.928V123.088H99.4162V119.776H100.37C100.958 119.2 101.366 118.528 101.594 117.76C101.834 116.992 101.954 115.972 101.954 114.7V111.892H107.948V119.776H109.262ZM103.394 114.862C103.394 115.99 103.286 116.95 103.07 117.742C102.854 118.534 102.536 119.212 102.116 119.776H106.364V113.116H103.394V114.862ZM113.438 121.252C112.514 121.252 111.764 121 111.188 120.496C110.624 119.98 110.342 119.308 110.342 118.48C110.342 117.544 110.714 116.812 111.458 116.284C112.214 115.756 113.264 115.492 114.608 115.492C115.208 115.492 115.808 115.534 116.408 115.618V115.06C116.408 114.4 116.204 113.872 115.796 113.476C115.4 113.068 114.866 112.864 114.194 112.864C113.738 112.864 113.27 112.972 112.79 113.188C112.322 113.404 111.902 113.692 111.53 114.052L110.684 112.99C111.164 112.558 111.716 112.228 112.34 112C112.976 111.76 113.636 111.64 114.32 111.64C115.04 111.64 115.676 111.778 116.228 112.054C116.792 112.33 117.224 112.714 117.524 113.206C117.836 113.698 117.992 114.268 117.992 114.916V121H116.624L116.498 119.65C116.186 120.166 115.766 120.562 115.238 120.838C114.71 121.114 114.11 121.252 113.438 121.252ZM113.798 120.082C114.278 120.082 114.716 119.968 115.112 119.74C115.52 119.5 115.838 119.182 116.066 118.786C116.294 118.378 116.408 117.928 116.408 117.436V116.752C115.832 116.668 115.31 116.626 114.842 116.626C113.894 116.626 113.168 116.782 112.664 117.094C112.172 117.394 111.926 117.838 111.926 118.426C111.926 118.93 112.094 119.332 112.43 119.632C112.778 119.932 113.234 120.082 113.798 120.082ZM129.677 121.252C128.813 121.252 128.045 121.054 127.373 120.658C126.713 120.25 126.197 119.686 125.825 118.966C125.453 118.234 125.267 117.394 125.267 116.446C125.267 115.51 125.453 114.676 125.825 113.944C126.197 113.212 126.713 112.648 127.373 112.252C128.045 111.844 128.819 111.64 129.695 111.64C130.559 111.64 131.327 111.844 131.999 112.252C132.671 112.648 133.193 113.212 133.565 113.944C133.937 114.664 134.123 115.492 134.123 116.428C134.123 117.376 133.937 118.216 133.565 118.948C133.193 119.68 132.671 120.25 131.999 120.658C131.327 121.054 130.553 121.252 129.677 121.252ZM129.677 120.028C130.517 120.028 131.183 119.698 131.675 119.038C132.179 118.378 132.431 117.502 132.431 116.41C132.431 115.342 132.179 114.484 131.675 113.836C131.171 113.188 130.505 112.864 129.677 112.864C128.849 112.864 128.183 113.194 127.679 113.854C127.187 114.502 126.941 115.366 126.941 116.446C126.941 117.526 127.187 118.396 127.679 119.056C128.183 119.704 128.849 120.028 129.677 120.028ZM142.951 111.892V113.098H139.729V121H138.127V113.098H134.887V111.892H142.951ZM152.213 121H150.305L147.713 117.31L145.139 121H143.429L146.867 116.284L143.645 111.892H145.499L147.857 115.24L150.251 111.892H151.979L148.703 116.248L152.213 121ZM157.292 121.252C156.428 121.252 155.66 121.054 154.988 120.658C154.328 120.25 153.812 119.686 153.44 118.966C153.068 118.234 152.882 117.394 152.882 116.446C152.882 115.51 153.068 114.676 153.44 113.944C153.812 113.212 154.328 112.648 154.988 112.252C155.66 111.844 156.434 111.64 157.31 111.64C158.174 111.64 158.942 111.844 159.614 112.252C160.286 112.648 160.808 113.212 161.18 113.944C161.552 114.664 161.738 115.492 161.738 116.428C161.738 117.376 161.552 118.216 161.18 118.948C160.808 119.68 160.286 120.25 159.614 120.658C158.942 121.054 158.168 121.252 157.292 121.252ZM157.292 120.028C158.132 120.028 158.798 119.698 159.29 119.038C159.794 118.378 160.046 117.502 160.046 116.41C160.046 115.342 159.794 114.484 159.29 113.836C158.786 113.188 158.12 112.864 157.292 112.864C156.464 112.864 155.798 113.194 155.294 113.854C154.802 114.502 154.556 115.366 154.556 116.446C154.556 117.526 154.802 118.396 155.294 119.056C155.798 119.704 156.464 120.028 157.292 120.028ZM172.315 119.776V123.088H170.821V121H163.981V123.088H162.469V119.776H163.423C164.011 119.2 164.419 118.528 164.647 117.76C164.887 116.992 165.007 115.972 165.007 114.7V111.892H171.001V119.776H172.315ZM166.447 114.862C166.447 115.99 166.339 116.95 166.123 117.742C165.907 118.534 165.589 119.212 165.169 119.776H169.417V113.116H166.447V114.862ZM180.54 111.892H182.124V121H180.576V113.872L175.698 121H174.096V111.892H175.662V119.02L180.54 111.892ZM191.888 111.892V113.098H188.666V121H187.064V113.098H183.824V111.892H191.888ZM200.96 116.05C200.96 116.242 200.948 116.458 200.924 116.698H194.246C194.306 117.73 194.594 118.546 195.11 119.146C195.626 119.734 196.316 120.028 197.18 120.028C197.696 120.028 198.194 119.902 198.674 119.65C199.154 119.386 199.556 119.014 199.88 118.534L200.906 119.398C200.51 119.998 199.982 120.46 199.322 120.784C198.662 121.096 197.942 121.252 197.162 121.252C196.262 121.252 195.47 121.054 194.786 120.658C194.114 120.25 193.592 119.68 193.22 118.948C192.848 118.216 192.662 117.37 192.662 116.41C192.662 115.474 192.842 114.646 193.202 113.926C193.562 113.194 194.066 112.63 194.714 112.234C195.374 111.838 196.136 111.64 197 111.64C197.792 111.64 198.488 111.82 199.088 112.18C199.688 112.54 200.15 113.056 200.474 113.728C200.798 114.388 200.96 115.162 200.96 116.05ZM199.358 115.546C199.334 114.718 199.112 114.064 198.692 113.584C198.284 113.092 197.708 112.846 196.964 112.846C196.232 112.846 195.632 113.086 195.164 113.566C194.696 114.034 194.408 114.694 194.3 115.546H199.358ZM212.031 121.252C211.167 121.252 210.399 121.054 209.727 120.658C209.067 120.25 208.551 119.686 208.179 118.966C207.807 118.234 207.621 117.394 207.621 116.446C207.621 115.51 207.807 114.676 208.179 113.944C208.551 113.212 209.067 112.648 209.727 112.252C210.399 111.844 211.173 111.64 212.049 111.64C212.913 111.64 213.681 111.844 214.353 112.252C215.025 112.648 215.547 113.212 215.919 113.944C216.291 114.664 216.477 115.492 216.477 116.428C216.477 117.376 216.291 118.216 215.919 118.948C215.547 119.68 215.025 120.25 214.353 120.658C213.681 121.054 212.907 121.252 212.031 121.252ZM212.031 120.028C212.871 120.028 213.537 119.698 214.029 119.038C214.533 118.378 214.785 117.502 214.785 116.41C214.785 115.342 214.533 114.484 214.029 113.836C213.525 113.188 212.859 112.864 212.031 112.864C211.203 112.864 210.537 113.194 210.033 113.854C209.541 114.502 209.295 115.366 209.295 116.446C209.295 117.526 209.541 118.396 210.033 119.056C210.537 119.704 211.203 120.028 212.031 120.028ZM225.304 111.892V113.098H222.082V121H220.48V113.098H217.24V111.892H225.304ZM236.731 111.64C237.511 111.64 238.201 111.844 238.801 112.252C239.401 112.648 239.863 113.206 240.187 113.926C240.523 114.646 240.691 115.48 240.691 116.428C240.691 117.388 240.517 118.234 240.169 118.966C239.833 119.686 239.359 120.25 238.747 120.658C238.147 121.054 237.457 121.252 236.677 121.252C236.029 121.252 235.435 121.108 234.895 120.82C234.367 120.52 233.947 120.106 233.635 119.578V124.42H232.051V111.892H233.419L233.581 113.548C233.881 112.96 234.307 112.498 234.859 112.162C235.423 111.814 236.047 111.64 236.731 111.64ZM236.353 120.028C237.169 120.028 237.817 119.71 238.297 119.074C238.777 118.426 239.017 117.556 239.017 116.464C239.017 115.36 238.771 114.484 238.279 113.836C237.799 113.188 237.151 112.864 236.335 112.864C235.519 112.864 234.865 113.194 234.373 113.854C233.881 114.514 233.635 115.39 233.635 116.482C233.635 117.55 233.881 118.408 234.373 119.056C234.865 119.704 235.525 120.028 236.353 120.028ZM245.344 121.252C244.42 121.252 243.67 121 243.094 120.496C242.53 119.98 242.248 119.308 242.248 118.48C242.248 117.544 242.62 116.812 243.364 116.284C244.12 115.756 245.17 115.492 246.514 115.492C247.114 115.492 247.714 115.534 248.314 115.618V115.06C248.314 114.4 248.11 113.872 247.702 113.476C247.306 113.068 246.772 112.864 246.1 112.864C245.644 112.864 245.176 112.972 244.696 113.188C244.228 113.404 243.808 113.692 243.436 114.052L242.59 112.99C243.07 112.558 243.622 112.228 244.246 112C244.882 111.76 245.542 111.64 246.226 111.64C246.946 111.64 247.582 111.778 248.134 112.054C248.698 112.33 249.13 112.714 249.43 113.206C249.742 113.698 249.898 114.268 249.898 114.916V121H248.53L248.404 119.65C248.092 120.166 247.672 120.562 247.144 120.838C246.616 121.114 246.016 121.252 245.344 121.252ZM245.704 120.082C246.184 120.082 246.622 119.968 247.018 119.74C247.426 119.5 247.744 119.182 247.972 118.786C248.2 118.378 248.314 117.928 248.314 117.436V116.752C247.738 116.668 247.216 116.626 246.748 116.626C245.8 116.626 245.074 116.782 244.57 117.094C244.078 117.394 243.832 117.838 243.832 118.426C243.832 118.93 244 119.332 244.336 119.632C244.684 119.932 245.14 120.082 245.704 120.082ZM256.79 112.162C257.558 112.162 258.242 112.348 258.842 112.72C259.454 113.092 259.928 113.614 260.264 114.286C260.612 114.946 260.786 115.702 260.786 116.554C260.786 117.466 260.6 118.282 260.228 119.002C259.868 119.71 259.364 120.262 258.716 120.658C258.068 121.054 257.324 121.252 256.484 121.252C255.08 121.252 254.018 120.76 253.298 119.776C252.578 118.792 252.218 117.358 252.218 115.474C252.218 113.926 252.374 112.666 252.686 111.694C252.998 110.71 253.508 109.936 254.216 109.372C254.936 108.808 255.914 108.412 257.15 108.184C257.846 108.052 258.392 107.92 258.788 107.788C259.196 107.644 259.52 107.476 259.76 107.284L260.246 108.562C259.958 108.766 259.604 108.946 259.184 109.102C258.764 109.246 258.218 109.378 257.546 109.498C256.142 109.738 255.122 110.224 254.486 110.956C253.862 111.676 253.514 112.714 253.442 114.07C253.754 113.47 254.204 113.002 254.792 112.666C255.38 112.33 256.046 112.162 256.79 112.162ZM256.538 120.028C257.318 120.028 257.936 119.722 258.392 119.11C258.86 118.498 259.1 117.682 259.112 116.662C259.112 115.654 258.884 114.856 258.428 114.268C257.972 113.68 257.336 113.386 256.52 113.386C255.704 113.386 255.062 113.668 254.594 114.232C254.126 114.784 253.892 115.552 253.892 116.536C253.892 117.592 254.132 118.438 254.612 119.074C255.104 119.71 255.746 120.028 256.538 120.028ZM266.822 121.252C265.958 121.252 265.19 121.054 264.518 120.658C263.858 120.25 263.342 119.686 262.97 118.966C262.598 118.234 262.412 117.394 262.412 116.446C262.412 115.51 262.598 114.676 262.97 113.944C263.342 113.212 263.858 112.648 264.518 112.252C265.19 111.844 265.964 111.64 266.84 111.64C267.704 111.64 268.472 111.844 269.144 112.252C269.816 112.648 270.338 113.212 270.71 113.944C271.082 114.664 271.268 115.492 271.268 116.428C271.268 117.376 271.082 118.216 270.71 118.948C270.338 119.68 269.816 120.25 269.144 120.658C268.472 121.054 267.698 121.252 266.822 121.252ZM266.822 120.028C267.662 120.028 268.328 119.698 268.82 119.038C269.324 118.378 269.576 117.502 269.576 116.41C269.576 115.342 269.324 114.484 268.82 113.836C268.316 113.188 267.65 112.864 266.822 112.864C265.994 112.864 265.328 113.194 264.824 113.854C264.332 114.502 264.086 115.366 264.086 116.446C264.086 117.526 264.332 118.396 264.824 119.056C265.328 119.704 265.994 120.028 266.822 120.028ZM280.218 111.892V121H278.616V117.76C277.8 117.928 277.056 118.012 276.384 118.012C275.256 118.012 274.398 117.742 273.81 117.202C273.222 116.65 272.928 115.858 272.928 114.826V111.892H274.53V114.826C274.53 116.134 275.256 116.788 276.708 116.788C277.296 116.788 277.932 116.722 278.616 116.59V111.892H280.218ZM290.766 116.05C290.766 116.242 290.754 116.458 290.73 116.698H284.052C284.112 117.73 284.4 118.546 284.916 119.146C285.432 119.734 286.122 120.028 286.986 120.028C287.502 120.028 288 119.902 288.48 119.65C288.96 119.386 289.362 119.014 289.686 118.534L290.712 119.398C290.316 119.998 289.788 120.46 289.128 120.784C288.468 121.096 287.748 121.252 286.968 121.252C286.068 121.252 285.276 121.054 284.592 120.658C283.92 120.25 283.398 119.68 283.026 118.948C282.654 118.216 282.468 117.37 282.468 116.41C282.468 115.474 282.648 114.646 283.008 113.926C283.368 113.194 283.872 112.63 284.52 112.234C285.18 111.838 285.942 111.64 286.806 111.64C287.598 111.64 288.294 111.82 288.894 112.18C289.494 112.54 289.956 113.056 290.28 113.728C290.604 114.388 290.766 115.162 290.766 116.05ZM289.164 115.546C289.14 114.718 288.918 114.064 288.498 113.584C288.09 113.092 287.514 112.846 286.77 112.846C286.038 112.846 285.438 113.086 284.97 113.566C284.502 114.034 284.214 114.694 284.106 115.546H289.164ZM299.168 111.892V113.08H294.596V121H293.012V111.892H299.168ZM304.158 121.252C303.294 121.252 302.526 121.054 301.854 120.658C301.194 120.25 300.678 119.686 300.306 118.966C299.934 118.234 299.748 117.394 299.748 116.446C299.748 115.51 299.934 114.676 300.306 113.944C300.678 113.212 301.194 112.648 301.854 112.252C302.526 111.844 303.3 111.64 304.176 111.64C305.04 111.64 305.808 111.844 306.48 112.252C307.152 112.648 307.674 113.212 308.046 113.944C308.418 114.664 308.604 115.492 308.604 116.428C308.604 117.376 308.418 118.216 308.046 118.948C307.674 119.68 307.152 120.25 306.48 120.658C305.808 121.054 305.034 121.252 304.158 121.252ZM304.158 120.028C304.998 120.028 305.664 119.698 306.156 119.038C306.66 118.378 306.912 117.502 306.912 116.41C306.912 115.342 306.66 114.484 306.156 113.836C305.652 113.188 304.986 112.864 304.158 112.864C303.33 112.864 302.664 113.194 302.16 113.854C301.668 114.502 301.422 115.366 301.422 116.446C301.422 117.526 301.668 118.396 302.16 119.056C302.664 119.704 303.33 120.028 304.158 120.028ZM79.036 136.892H81.286V146H79.738V138.764L76.948 146H75.67L72.916 138.8V146H71.44V136.892H73.672L76.318 144.128L79.036 136.892ZM91.8346 141.05C91.8346 141.242 91.8226 141.458 91.7986 141.698H85.1206C85.1806 142.73 85.4686 143.546 85.9846 144.146C86.5006 144.734 87.1906 145.028 88.0546 145.028C88.5706 145.028 89.0686 144.902 89.5486 144.65C90.0286 144.386 90.4306 144.014 90.7546 143.534L91.7806 144.398C91.3846 144.998 90.8566 145.46 90.1966 145.784C89.5366 146.096 88.8166 146.252 88.0366 146.252C87.1366 146.252 86.3446 146.054 85.6606 145.658C84.9886 145.25 84.4666 144.68 84.0946 143.948C83.7226 143.216 83.5366 142.37 83.5366 141.41C83.5366 140.474 83.7166 139.646 84.0766 138.926C84.4366 138.194 84.9406 137.63 85.5886 137.234C86.2486 136.838 87.0106 136.64 87.8746 136.64C88.6666 136.64 89.3626 136.82 89.9626 137.18C90.5626 137.54 91.0246 138.056 91.3486 138.728C91.6726 139.388 91.8346 140.162 91.8346 141.05ZM90.2326 140.546C90.2086 139.718 89.9866 139.064 89.5666 138.584C89.1586 138.092 88.5826 137.846 87.8386 137.846C87.1066 137.846 86.5066 138.086 86.0386 138.566C85.5706 139.034 85.2826 139.694 85.1746 140.546H90.2326ZM98.0046 146.252C97.1046 146.252 96.3066 146.048 95.6106 145.64C94.9266 145.232 94.3926 144.662 94.0086 143.93C93.6366 143.198 93.4506 142.364 93.4506 141.428C93.4506 140.492 93.6426 139.664 94.0266 138.944C94.4106 138.212 94.9446 137.648 95.6286 137.252C96.3126 136.844 97.0986 136.64 97.9866 136.64C98.7786 136.64 99.4866 136.808 100.111 137.144C100.735 137.48 101.221 137.954 101.569 138.566L100.471 139.34C99.8226 138.356 99.0066 137.864 98.0226 137.864C97.1586 137.864 96.4566 138.194 95.9166 138.854C95.3886 139.502 95.1246 140.348 95.1246 141.392C95.1246 142.1 95.2446 142.73 95.4846 143.282C95.7366 143.834 96.0786 144.266 96.5106 144.578C96.9546 144.878 97.4646 145.028 98.0406 145.028C99.0486 145.028 99.8646 144.53 100.489 143.534L101.587 144.326C101.239 144.95 100.753 145.43 100.129 145.766C99.5166 146.09 98.8086 146.252 98.0046 146.252ZM110.343 136.892V138.098H107.121V146H105.519V138.098H102.279V136.892H110.343ZM114.439 146.252C113.515 146.252 112.765 146 112.189 145.496C111.625 144.98 111.343 144.308 111.343 143.48C111.343 142.544 111.715 141.812 112.459 141.284C113.215 140.756 114.265 140.492 115.609 140.492C116.209 140.492 116.809 140.534 117.409 140.618V140.06C117.409 139.4 117.205 138.872 116.797 138.476C116.401 138.068 115.867 137.864 115.195 137.864C114.739 137.864 114.271 137.972 113.791 138.188C113.323 138.404 112.903 138.692 112.531 139.052L111.685 137.99C112.165 137.558 112.717 137.228 113.341 137C113.977 136.76 114.637 136.64 115.321 136.64C116.041 136.64 116.677 136.778 117.229 137.054C117.793 137.33 118.225 137.714 118.525 138.206C118.837 138.698 118.993 139.268 118.993 139.916V146H117.625L117.499 144.65C117.187 145.166 116.767 145.562 116.239 145.838C115.711 146.114 115.111 146.252 114.439 146.252ZM114.799 145.082C115.279 145.082 115.717 144.968 116.113 144.74C116.521 144.5 116.839 144.182 117.067 143.786C117.295 143.378 117.409 142.928 117.409 142.436V141.752C116.833 141.668 116.311 141.626 115.843 141.626C114.895 141.626 114.169 141.782 113.665 142.094C113.173 142.394 112.927 142.838 112.927 143.426C112.927 143.93 113.095 144.332 113.431 144.632C113.779 144.932 114.235 145.082 114.799 145.082ZM122.25 143.93H123.996L122.484 148.304H121.278L122.25 143.93ZM135.976 137.162C136.744 137.162 137.428 137.348 138.028 137.72C138.64 138.092 139.114 138.614 139.45 139.286C139.798 139.946 139.972 140.702 139.972 141.554C139.972 142.466 139.786 143.282 139.414 144.002C139.054 144.71 138.55 145.262 137.902 145.658C137.254 146.054 136.51 146.252 135.67 146.252C134.266 146.252 133.204 145.76 132.484 144.776C131.764 143.792 131.404 142.358 131.404 140.474C131.404 138.926 131.56 137.666 131.872 136.694C132.184 135.71 132.694 134.936 133.402 134.372C134.122 133.808 135.1 133.412 136.336 133.184C137.032 133.052 137.578 132.92 137.974 132.788C138.382 132.644 138.706 132.476 138.946 132.284L139.432 133.562C139.144 133.766 138.79 133.946 138.37 134.102C137.95 134.246 137.404 134.378 136.732 134.498C135.328 134.738 134.308 135.224 133.672 135.956C133.048 136.676 132.7 137.714 132.628 139.07C132.94 138.47 133.39 138.002 133.978 137.666C134.566 137.33 135.232 137.162 135.976 137.162ZM135.724 145.028C136.504 145.028 137.122 144.722 137.578 144.11C138.046 143.498 138.286 142.682 138.298 141.662C138.298 140.654 138.07 139.856 137.614 139.268C137.158 138.68 136.522 138.386 135.706 138.386C134.89 138.386 134.248 138.668 133.78 139.232C133.312 139.784 133.078 140.552 133.078 141.536C133.078 142.592 133.318 143.438 133.798 144.074C134.29 144.71 134.932 145.028 135.724 145.028ZM141.183 144.614H141.399C141.975 144.614 142.449 144.326 142.821 143.75C143.193 143.162 143.379 142.082 143.379 140.51V136.892H149.247V146H147.663V138.116H144.819V140.69C144.819 142.166 144.573 143.42 144.081 144.452C143.589 145.484 142.737 146 141.525 146H141.183V144.614ZM155.904 146.252C155.04 146.252 154.272 146.054 153.6 145.658C152.94 145.25 152.424 144.686 152.052 143.966C151.68 143.234 151.494 142.394 151.494 141.446C151.494 140.51 151.68 139.676 152.052 138.944C152.424 138.212 152.94 137.648 153.6 137.252C154.272 136.844 155.046 136.64 155.922 136.64C156.786 136.64 157.554 136.844 158.226 137.252C158.898 137.648 159.42 138.212 159.792 138.944C160.164 139.664 160.35 140.492 160.35 141.428C160.35 142.376 160.164 143.216 159.792 143.948C159.42 144.68 158.898 145.25 158.226 145.658C157.554 146.054 156.78 146.252 155.904 146.252ZM155.904 145.028C156.744 145.028 157.41 144.698 157.902 144.038C158.406 143.378 158.658 142.502 158.658 141.41C158.658 140.342 158.406 139.484 157.902 138.836C157.398 138.188 156.732 137.864 155.904 137.864C155.076 137.864 154.41 138.194 153.906 138.854C153.414 139.502 153.168 140.366 153.168 141.446C153.168 142.526 153.414 143.396 153.906 144.056C154.41 144.704 155.076 145.028 155.904 145.028ZM168.864 146L165.804 141.968H164.184V146H162.6V136.892H164.184V140.78H165.768L168.612 136.892H170.484L167.154 141.266L170.79 146H168.864ZM178.958 136.892H180.542V146H178.994V138.872L174.116 146H172.514V136.892H174.08V144.02L178.958 136.892ZM188.11 136.64C188.89 136.64 189.58 136.844 190.18 137.252C190.78 137.648 191.242 138.206 191.566 138.926C191.902 139.646 192.07 140.48 192.07 141.428C192.07 142.388 191.896 143.234 191.548 143.966C191.212 144.686 190.738 145.25 190.126 145.658C189.526 146.054 188.836 146.252 188.056 146.252C187.408 146.252 186.814 146.108 186.274 145.82C185.746 145.52 185.326 145.106 185.014 144.578V149.42H183.43V136.892H184.798L184.96 138.548C185.26 137.96 185.686 137.498 186.238 137.162C186.802 136.814 187.426 136.64 188.11 136.64ZM187.732 145.028C188.548 145.028 189.196 144.71 189.676 144.074C190.156 143.426 190.396 142.556 190.396 141.464C190.396 140.36 190.15 139.484 189.658 138.836C189.178 138.188 188.53 137.864 187.714 137.864C186.898 137.864 186.244 138.194 185.752 138.854C185.26 139.514 185.014 140.39 185.014 141.482C185.014 142.55 185.26 143.408 185.752 144.056C186.244 144.704 186.904 145.028 187.732 145.028ZM201.714 136.892L197.61 147.242C197.274 148.082 196.878 148.694 196.422 149.078C195.978 149.474 195.438 149.672 194.802 149.672C194.322 149.672 193.83 149.552 193.326 149.312L193.722 148.088C193.866 148.196 194.028 148.28 194.208 148.34C194.388 148.412 194.55 148.448 194.694 148.448C195.126 148.448 195.486 148.298 195.774 147.998C196.074 147.698 196.338 147.2 196.566 146.504L196.638 146.324L192.858 136.892H194.568L197.34 144.434L200.148 136.892H201.714ZM209.808 136.892H211.392V146H209.844V138.872L204.966 146H203.364V136.892H204.93V144.02L209.808 136.892ZM207.36 135.56C206.544 135.56 205.878 135.32 205.362 134.84C204.858 134.36 204.594 133.73 204.57 132.95H205.83C205.854 133.406 206.004 133.76 206.28 134.012C206.556 134.264 206.922 134.39 207.378 134.39C207.846 134.39 208.212 134.264 208.476 134.012C208.752 133.748 208.902 133.394 208.926 132.95H210.186C210.162 133.73 209.892 134.36 209.376 134.84C208.86 135.32 208.188 135.56 207.36 135.56ZM221.156 136.892V138.098H217.934V146H216.332V138.098H213.092V136.892H221.156ZM230.227 141.05C230.227 141.242 230.215 141.458 230.191 141.698H223.513C223.573 142.73 223.861 143.546 224.377 144.146C224.893 144.734 225.583 145.028 226.447 145.028C226.963 145.028 227.461 144.902 227.941 144.65C228.421 144.386 228.823 144.014 229.147 143.534L230.173 144.398C229.777 144.998 229.249 145.46 228.589 145.784C227.929 146.096 227.209 146.252 226.429 146.252C225.529 146.252 224.737 146.054 224.053 145.658C223.381 145.25 222.859 144.68 222.487 143.948C222.115 143.216 221.929 142.37 221.929 141.41C221.929 140.474 222.109 139.646 222.469 138.926C222.829 138.194 223.333 137.63 223.981 137.234C224.641 136.838 225.403 136.64 226.267 136.64C227.059 136.64 227.755 136.82 228.355 137.18C228.955 137.54 229.417 138.056 229.741 138.728C230.065 139.388 230.227 140.162 230.227 141.05ZM228.625 140.546C228.601 139.718 228.379 139.064 227.959 138.584C227.551 138.092 226.975 137.846 226.231 137.846C225.499 137.846 224.899 138.086 224.431 138.566C223.963 139.034 223.675 139.694 223.567 140.546H228.625ZM240.128 136.64C241.016 136.64 241.796 136.844 242.468 137.252C243.14 137.648 243.656 138.212 244.016 138.944C244.388 139.664 244.574 140.498 244.574 141.446C244.574 142.394 244.394 143.234 244.034 143.966C243.674 144.686 243.158 145.25 242.486 145.658C241.826 146.054 241.052 146.252 240.164 146.252C239.432 146.252 238.754 146.114 238.13 145.838C237.506 145.55 236.984 145.13 236.564 144.578L237.608 143.696C237.908 144.104 238.268 144.422 238.688 144.65C239.108 144.866 239.558 144.974 240.038 144.974C240.818 144.974 241.466 144.704 241.982 144.164C242.498 143.624 242.804 142.898 242.9 141.986H238.184V140.762H242.882C242.762 139.898 242.438 139.208 241.91 138.692C241.394 138.176 240.764 137.918 240.02 137.918C239.072 137.918 238.304 138.332 237.716 139.16L236.636 138.26C237.068 137.72 237.578 137.318 238.166 137.054C238.754 136.778 239.408 136.64 240.128 136.64ZM253.081 146L250.021 141.968H248.401V146H246.817V136.892H248.401V140.78H249.985L252.829 136.892H254.701L251.371 141.266L255.007 146H253.081ZM261.411 136.64C262.191 136.64 262.881 136.844 263.481 137.252C264.081 137.648 264.543 138.206 264.867 138.926C265.203 139.646 265.371 140.48 265.371 141.428C265.371 142.388 265.197 143.234 264.849 143.966C264.513 144.686 264.039 145.25 263.427 145.658C262.827 146.054 262.137 146.252 261.357 146.252C260.709 146.252 260.115 146.108 259.575 145.82C259.047 145.52 258.627 145.106 258.315 144.578V149.42H256.731V136.892H258.099L258.261 138.548C258.561 137.96 258.987 137.498 259.539 137.162C260.103 136.814 260.727 136.64 261.411 136.64ZM261.033 145.028C261.849 145.028 262.497 144.71 262.977 144.074C263.457 143.426 263.697 142.556 263.697 141.464C263.697 140.36 263.451 139.484 262.959 138.836C262.479 138.188 261.831 137.864 261.015 137.864C260.199 137.864 259.545 138.194 259.053 138.854C258.561 139.514 258.315 140.39 258.315 141.482C258.315 142.55 258.561 143.408 259.053 144.056C259.545 144.704 260.205 145.028 261.033 145.028ZM270.023 146.252C269.099 146.252 268.349 146 267.773 145.496C267.209 144.98 266.927 144.308 266.927 143.48C266.927 142.544 267.299 141.812 268.043 141.284C268.799 140.756 269.849 140.492 271.193 140.492C271.793 140.492 272.393 140.534 272.993 140.618V140.06C272.993 139.4 272.789 138.872 272.381 138.476C271.985 138.068 271.451 137.864 270.779 137.864C270.323 137.864 269.855 137.972 269.375 138.188C268.907 138.404 268.487 138.692 268.115 139.052L267.269 137.99C267.749 137.558 268.301 137.228 268.925 137C269.561 136.76 270.221 136.64 270.905 136.64C271.625 136.64 272.261 136.778 272.813 137.054C273.377 137.33 273.809 137.714 274.109 138.206C274.421 138.698 274.577 139.268 274.577 139.916V146H273.209L273.083 144.65C272.771 145.166 272.351 145.562 271.823 145.838C271.295 146.114 270.695 146.252 270.023 146.252ZM270.383 145.082C270.863 145.082 271.301 144.968 271.697 144.74C272.105 144.5 272.423 144.182 272.651 143.786C272.879 143.378 272.993 142.928 272.993 142.436V141.752C272.417 141.668 271.895 141.626 271.427 141.626C270.479 141.626 269.753 141.782 269.249 142.094C268.757 142.394 268.511 142.838 268.511 143.426C268.511 143.93 268.679 144.332 269.015 144.632C269.363 144.932 269.819 145.082 270.383 145.082ZM283.756 136.892H285.34V146H283.756V141.95H279.022V146H277.438V136.892H279.022V140.762H283.756V136.892ZM77.758 161.892H79.342V171H77.758V166.95H73.024V171H71.44V161.892H73.024V165.762H77.758V161.892ZM85.9954 171.252C85.1314 171.252 84.3634 171.054 83.6914 170.658C83.0314 170.25 82.5154 169.686 82.1434 168.966C81.7714 168.234 81.5854 167.394 81.5854 166.446C81.5854 165.51 81.7714 164.676 82.1434 163.944C82.5154 163.212 83.0314 162.648 83.6914 162.252C84.3634 161.844 85.1374 161.64 86.0134 161.64C86.8774 161.64 87.6454 161.844 88.3174 162.252C88.9894 162.648 89.5114 163.212 89.8834 163.944C90.2554 164.664 90.4414 165.492 90.4414 166.428C90.4414 167.376 90.2554 168.216 89.8834 168.948C89.5114 169.68 88.9894 170.25 88.3174 170.658C87.6454 171.054 86.8714 171.252 85.9954 171.252ZM85.9954 170.028C86.8354 170.028 87.5014 169.698 87.9934 169.038C88.4974 168.378 88.7494 167.502 88.7494 166.41C88.7494 165.342 88.4974 164.484 87.9934 163.836C87.4894 163.188 86.8234 162.864 85.9954 162.864C85.1674 162.864 84.5014 163.194 83.9974 163.854C83.5054 164.502 83.2594 165.366 83.2594 166.446C83.2594 167.526 83.5054 168.396 83.9974 169.056C84.5014 169.704 85.1674 170.028 85.9954 170.028ZM100.077 161.892L95.9734 172.242C95.6374 173.082 95.2414 173.694 94.7854 174.078C94.3414 174.474 93.8014 174.672 93.1654 174.672C92.6854 174.672 92.1934 174.552 91.6894 174.312L92.0854 173.088C92.2294 173.196 92.3914 173.28 92.5714 173.34C92.7514 173.412 92.9134 173.448 93.0574 173.448C93.4894 173.448 93.8494 173.298 94.1374 172.998C94.4374 172.698 94.7014 172.2 94.9294 171.504L95.0014 171.324L91.2214 161.892H92.9314L95.7034 169.434L98.5114 161.892H100.077ZM108.603 161.892V163.098H105.381V171H103.779V163.098H100.539V161.892H108.603ZM114.337 162.162C115.105 162.162 115.789 162.348 116.389 162.72C117.001 163.092 117.475 163.614 117.811 164.286C118.159 164.946 118.333 165.702 118.333 166.554C118.333 167.466 118.147 168.282 117.775 169.002C117.415 169.71 116.911 170.262 116.263 170.658C115.615 171.054 114.871 171.252 114.031 171.252C112.627 171.252 111.565 170.76 110.845 169.776C110.125 168.792 109.765 167.358 109.765 165.474C109.765 163.926 109.921 162.666 110.233 161.694C110.545 160.71 111.055 159.936 111.763 159.372C112.483 158.808 113.461 158.412 114.697 158.184C115.393 158.052 115.939 157.92 116.335 157.788C116.743 157.644 117.067 157.476 117.307 157.284L117.793 158.562C117.505 158.766 117.151 158.946 116.731 159.102C116.311 159.246 115.765 159.378 115.093 159.498C113.689 159.738 112.669 160.224 112.033 160.956C111.409 161.676 111.061 162.714 110.989 164.07C111.301 163.47 111.751 163.002 112.339 162.666C112.927 162.33 113.593 162.162 114.337 162.162ZM114.085 170.028C114.865 170.028 115.483 169.722 115.939 169.11C116.407 168.498 116.647 167.682 116.659 166.662C116.659 165.654 116.431 164.856 115.975 164.268C115.519 163.68 114.883 163.386 114.067 163.386C113.251 163.386 112.609 163.668 112.141 164.232C111.673 164.784 111.439 165.552 111.439 166.536C111.439 167.592 111.679 168.438 112.159 169.074C112.651 169.71 113.293 170.028 114.085 170.028ZM128.202 161.892L124.098 172.242C123.762 173.082 123.366 173.694 122.91 174.078C122.466 174.474 121.926 174.672 121.29 174.672C120.81 174.672 120.318 174.552 119.814 174.312L120.21 173.088C120.354 173.196 120.516 173.28 120.696 173.34C120.876 173.412 121.038 173.448 121.182 173.448C121.614 173.448 121.974 173.298 122.262 172.998C122.562 172.698 122.826 172.2 123.054 171.504L123.126 171.324L119.346 161.892H121.056L123.828 169.434L126.636 161.892H128.202ZM136.116 171L133.056 166.968H131.436V171H129.852V161.892H131.436V165.78H133.02L135.864 161.892H137.736L134.406 166.266L138.042 171H136.116ZM142.16 171.252C141.236 171.252 140.486 171 139.91 170.496C139.346 169.98 139.064 169.308 139.064 168.48C139.064 167.544 139.436 166.812 140.18 166.284C140.936 165.756 141.986 165.492 143.33 165.492C143.93 165.492 144.53 165.534 145.13 165.618V165.06C145.13 164.4 144.926 163.872 144.518 163.476C144.122 163.068 143.588 162.864 142.916 162.864C142.46 162.864 141.992 162.972 141.512 163.188C141.044 163.404 140.624 163.692 140.252 164.052L139.406 162.99C139.886 162.558 140.438 162.228 141.062 162C141.698 161.76 142.358 161.64 143.042 161.64C143.762 161.64 144.398 161.778 144.95 162.054C145.514 162.33 145.946 162.714 146.246 163.206C146.558 163.698 146.714 164.268 146.714 164.916V171H145.346L145.22 169.65C144.908 170.166 144.488 170.562 143.96 170.838C143.432 171.114 142.832 171.252 142.16 171.252ZM142.52 170.082C143 170.082 143.438 169.968 143.834 169.74C144.242 169.5 144.56 169.182 144.788 168.786C145.016 168.378 145.13 167.928 145.13 167.436V166.752C144.554 166.668 144.032 166.626 143.564 166.626C142.616 166.626 141.89 166.782 141.386 167.094C140.894 167.394 140.648 167.838 140.648 168.426C140.648 168.93 140.816 169.332 141.152 169.632C141.5 169.932 141.956 170.082 142.52 170.082ZM158.544 171.252C157.644 171.252 156.846 171.048 156.15 170.64C155.466 170.232 154.932 169.662 154.548 168.93C154.176 168.198 153.99 167.364 153.99 166.428C153.99 165.492 154.182 164.664 154.566 163.944C154.95 163.212 155.484 162.648 156.168 162.252C156.852 161.844 157.638 161.64 158.526 161.64C159.318 161.64 160.026 161.808 160.65 162.144C161.274 162.48 161.76 162.954 162.108 163.566L161.01 164.34C160.362 163.356 159.546 162.864 158.562 162.864C157.698 162.864 156.996 163.194 156.456 163.854C155.928 164.502 155.664 165.348 155.664 166.392C155.664 167.1 155.784 167.73 156.024 168.282C156.276 168.834 156.618 169.266 157.05 169.578C157.494 169.878 158.004 170.028 158.58 170.028C159.588 170.028 160.404 169.53 161.028 168.534L162.126 169.326C161.778 169.95 161.292 170.43 160.668 170.766C160.056 171.09 159.348 171.252 158.544 171.252ZM176.863 161.892V171H175.261V163.098H170.653V171H169.051V161.892H176.863ZM183.519 171.252C182.655 171.252 181.887 171.054 181.215 170.658C180.555 170.25 180.039 169.686 179.667 168.966C179.295 168.234 179.109 167.394 179.109 166.446C179.109 165.51 179.295 164.676 179.667 163.944C180.039 163.212 180.555 162.648 181.215 162.252C181.887 161.844 182.661 161.64 183.537 161.64C184.401 161.64 185.169 161.844 185.841 162.252C186.513 162.648 187.035 163.212 187.407 163.944C187.779 164.664 187.965 165.492 187.965 166.428C187.965 167.376 187.779 168.216 187.407 168.948C187.035 169.68 186.513 170.25 185.841 170.658C185.169 171.054 184.395 171.252 183.519 171.252ZM183.519 170.028C184.359 170.028 185.025 169.698 185.517 169.038C186.021 168.378 186.273 167.502 186.273 166.41C186.273 165.342 186.021 164.484 185.517 163.836C185.013 163.188 184.347 162.864 183.519 162.864C182.691 162.864 182.025 163.194 181.521 163.854C181.029 164.502 180.783 165.366 180.783 166.446C180.783 167.526 181.029 168.396 181.521 169.056C182.025 169.704 182.691 170.028 183.519 170.028ZM197.811 161.892H200.061V171H198.513V163.764L195.723 171H194.445L191.691 163.8V171H190.215V161.892H192.447L195.093 169.128L197.811 161.892ZM206.722 171.252C205.858 171.252 205.09 171.054 204.418 170.658C203.758 170.25 203.242 169.686 202.87 168.966C202.498 168.234 202.312 167.394 202.312 166.446C202.312 165.51 202.498 164.676 202.87 163.944C203.242 163.212 203.758 162.648 204.418 162.252C205.09 161.844 205.864 161.64 206.74 161.64C207.604 161.64 208.372 161.844 209.044 162.252C209.716 162.648 210.238 163.212 210.61 163.944C210.982 164.664 211.168 165.492 211.168 166.428C211.168 167.376 210.982 168.216 210.61 168.948C210.238 169.68 209.716 170.25 209.044 170.658C208.372 171.054 207.598 171.252 206.722 171.252ZM206.722 170.028C207.562 170.028 208.228 169.698 208.72 169.038C209.224 168.378 209.476 167.502 209.476 166.41C209.476 165.342 209.224 164.484 208.72 163.836C208.216 163.188 207.55 162.864 206.722 162.864C205.894 162.864 205.228 163.194 204.724 163.854C204.232 164.502 203.986 165.366 203.986 166.446C203.986 167.526 204.232 168.396 204.724 169.056C205.228 169.704 205.894 170.028 206.722 170.028ZM224.813 169.776H226.253V173.088H224.741V171H213.419V161.892H214.985V169.776H218.315V161.892H219.899V169.776H223.229V161.892H224.813V169.776ZM231.428 165.258C232.532 165.258 233.396 165.516 234.02 166.032C234.656 166.548 234.974 167.25 234.974 168.138C234.974 169.014 234.662 169.71 234.038 170.226C233.426 170.742 232.586 171 231.518 171H228.026V161.892H229.61V165.258H231.428ZM231.32 169.776C231.932 169.776 232.412 169.632 232.76 169.344C233.12 169.056 233.3 168.654 233.3 168.138C233.3 167.622 233.126 167.22 232.778 166.932C232.43 166.632 231.944 166.482 231.32 166.482H229.61V169.776H231.32ZM244.565 161.64C245.417 161.64 246.167 161.844 246.815 162.252C247.475 162.648 247.985 163.212 248.345 163.944C248.717 164.664 248.903 165.492 248.903 166.428C248.903 167.376 248.723 168.216 248.363 168.948C248.003 169.68 247.493 170.25 246.833 170.658C246.173 171.054 245.417 171.252 244.565 171.252C243.341 171.252 242.339 170.868 241.559 170.1C240.791 169.32 240.359 168.282 240.263 166.986H238.715V171H237.131V161.892H238.715V165.762H240.281C240.413 164.514 240.857 163.518 241.613 162.774C242.381 162.018 243.365 161.64 244.565 161.64ZM244.565 170.046C245.369 170.046 246.011 169.716 246.491 169.056C246.983 168.384 247.229 167.502 247.229 166.41C247.229 165.342 246.983 164.484 246.491 163.836C246.011 163.188 245.369 162.864 244.565 162.864C243.737 162.864 243.089 163.188 242.621 163.836C242.153 164.484 241.919 165.354 241.919 166.446C241.919 167.538 242.153 168.414 242.621 169.074C243.089 169.722 243.737 170.046 244.565 170.046ZM77.704 196L74.644 191.968H73.024V196H71.44V186.892H73.024V190.78H74.608L77.452 186.892H79.324L75.994 191.266L79.63 196H77.704ZM84.9055 196.252C84.0415 196.252 83.2735 196.054 82.6015 195.658C81.9415 195.25 81.4255 194.686 81.0535 193.966C80.6815 193.234 80.4955 192.394 80.4955 191.446C80.4955 190.51 80.6815 189.676 81.0535 188.944C81.4255 188.212 81.9415 187.648 82.6015 187.252C83.2735 186.844 84.0475 186.64 84.9235 186.64C85.7875 186.64 86.5555 186.844 87.2275 187.252C87.8995 187.648 88.4215 188.212 88.7935 188.944C89.1655 189.664 89.3515 190.492 89.3515 191.428C89.3515 192.376 89.1655 193.216 88.7935 193.948C88.4215 194.68 87.8995 195.25 87.2275 195.658C86.5555 196.054 85.7815 196.252 84.9055 196.252ZM84.9055 195.028C85.7455 195.028 86.4115 194.698 86.9035 194.038C87.4075 193.378 87.6595 192.502 87.6595 191.41C87.6595 190.342 87.4075 189.484 86.9035 188.836C86.3995 188.188 85.7335 187.864 84.9055 187.864C84.0775 187.864 83.4115 188.194 82.9075 188.854C82.4155 189.502 82.1695 190.366 82.1695 191.446C82.1695 192.526 82.4155 193.396 82.9075 194.056C83.4115 194.704 84.0775 195.028 84.9055 195.028ZM99.1981 186.892H101.448V196H99.9001V188.764L97.1101 196H95.8321L93.0781 188.8V196H91.6021V186.892H93.8341L96.4801 194.128L99.1981 186.892ZM108.361 187.162C109.129 187.162 109.813 187.348 110.413 187.72C111.025 188.092 111.499 188.614 111.835 189.286C112.183 189.946 112.357 190.702 112.357 191.554C112.357 192.466 112.171 193.282 111.799 194.002C111.439 194.71 110.935 195.262 110.287 195.658C109.639 196.054 108.895 196.252 108.055 196.252C106.651 196.252 105.589 195.76 104.869 194.776C104.149 193.792 103.789 192.358 103.789 190.474C103.789 188.926 103.945 187.666 104.257 186.694C104.569 185.71 105.079 184.936 105.787 184.372C106.507 183.808 107.485 183.412 108.721 183.184C109.417 183.052 109.963 182.92 110.359 182.788C110.767 182.644 111.091 182.476 111.331 182.284L111.817 183.562C111.529 183.766 111.175 183.946 110.755 184.102C110.335 184.246 109.789 184.378 109.117 184.498C107.713 184.738 106.693 185.224 106.057 185.956C105.433 186.676 105.085 187.714 105.013 189.07C105.325 188.47 105.775 188.002 106.363 187.666C106.951 187.33 107.617 187.162 108.361 187.162ZM108.109 195.028C108.889 195.028 109.507 194.722 109.963 194.11C110.431 193.498 110.671 192.682 110.683 191.662C110.683 190.654 110.455 189.856 109.999 189.268C109.543 188.68 108.907 188.386 108.091 188.386C107.275 188.386 106.633 188.668 106.165 189.232C105.697 189.784 105.463 190.552 105.463 191.536C105.463 192.592 105.703 193.438 106.183 194.074C106.675 194.71 107.317 195.028 108.109 195.028ZM121.056 186.892H122.64V196H121.092V188.872L116.214 196H114.612V186.892H116.178V194.02L121.056 186.892ZM131.846 186.892H133.43V196H131.846V191.95H127.112V196H125.528V186.892H127.112V190.762H131.846V186.892ZM138.697 196.252C137.773 196.252 137.023 196 136.447 195.496C135.883 194.98 135.601 194.308 135.601 193.48C135.601 192.544 135.973 191.812 136.717 191.284C137.473 190.756 138.523 190.492 139.867 190.492C140.467 190.492 141.067 190.534 141.667 190.618V190.06C141.667 189.4 141.463 188.872 141.055 188.476C140.659 188.068 140.125 187.864 139.453 187.864C138.997 187.864 138.529 187.972 138.049 188.188C137.581 188.404 137.161 188.692 136.789 189.052L135.943 187.99C136.423 187.558 136.975 187.228 137.599 187C138.235 186.76 138.895 186.64 139.579 186.64C140.299 186.64 140.935 186.778 141.487 187.054C142.051 187.33 142.483 187.714 142.783 188.206C143.095 188.698 143.251 189.268 143.251 189.916V196H141.883L141.757 194.65C141.445 195.166 141.025 195.562 140.497 195.838C139.969 196.114 139.369 196.252 138.697 196.252ZM139.057 195.082C139.537 195.082 139.975 194.968 140.371 194.74C140.779 194.5 141.097 194.182 141.325 193.786C141.553 193.378 141.667 192.928 141.667 192.436V191.752C141.091 191.668 140.569 191.626 140.101 191.626C139.153 191.626 138.427 191.782 137.923 192.094C137.431 192.394 137.185 192.838 137.185 193.426C137.185 193.93 137.353 194.332 137.689 194.632C138.037 194.932 138.493 195.082 139.057 195.082ZM153.618 194.776H155.022V198.088H153.528V196H146.112V186.892H147.714V194.776H152.016V186.892H153.618V194.776ZM163.243 186.892H164.827V196H163.279V188.872L158.401 196H156.799V186.892H158.365V194.02L163.243 186.892ZM174.159 186.892H175.743V196H174.195V188.872L169.317 196H167.715V186.892H169.281V194.02L174.159 186.892ZM189.94 196L186.88 191.968H185.26V196H183.676V186.892H185.26V190.78H186.844L189.688 186.892H191.56L188.23 191.266L191.866 196H189.94ZM192.546 194.614H192.762C193.338 194.614 193.812 194.326 194.184 193.75C194.556 193.162 194.742 192.082 194.742 190.51V186.892H200.61V196H199.026V188.116H196.182V190.69C196.182 192.166 195.936 193.42 195.444 194.452C194.952 195.484 194.1 196 192.888 196H192.546V194.614ZM205.881 196.252C204.957 196.252 204.207 196 203.631 195.496C203.067 194.98 202.785 194.308 202.785 193.48C202.785 192.544 203.157 191.812 203.901 191.284C204.657 190.756 205.707 190.492 207.051 190.492C207.651 190.492 208.251 190.534 208.851 190.618V190.06C208.851 189.4 208.647 188.872 208.239 188.476C207.843 188.068 207.309 187.864 206.637 187.864C206.181 187.864 205.713 187.972 205.233 188.188C204.765 188.404 204.345 188.692 203.973 189.052L203.127 187.99C203.607 187.558 204.159 187.228 204.783 187C205.419 186.76 206.079 186.64 206.763 186.64C207.483 186.64 208.119 186.778 208.671 187.054C209.235 187.33 209.667 187.714 209.967 188.206C210.279 188.698 210.435 189.268 210.435 189.916V196H209.067L208.941 194.65C208.629 195.166 208.209 195.562 207.681 195.838C207.153 196.114 206.553 196.252 205.881 196.252ZM206.241 195.082C206.721 195.082 207.159 194.968 207.555 194.74C207.963 194.5 208.281 194.182 208.509 193.786C208.737 193.378 208.851 192.928 208.851 192.436V191.752C208.275 191.668 207.753 191.626 207.285 191.626C206.337 191.626 205.611 191.782 205.107 192.094C204.615 192.394 204.369 192.838 204.369 193.426C204.369 193.93 204.537 194.332 204.873 194.632C205.221 194.932 205.677 195.082 206.241 195.082ZM218.875 191.248C219.547 191.38 220.063 191.638 220.423 192.022C220.783 192.406 220.963 192.874 220.963 193.426C220.963 194.218 220.615 194.848 219.919 195.316C219.235 195.772 218.287 196 217.075 196H213.295V186.892H217.075C218.179 186.892 219.043 187.102 219.667 187.522C220.303 187.942 220.621 188.518 220.621 189.25C220.621 189.73 220.471 190.15 220.171 190.51C219.871 190.858 219.439 191.104 218.875 191.248ZM214.897 188.098V190.69H217.093C217.705 190.69 218.173 190.582 218.497 190.366C218.821 190.138 218.983 189.814 218.983 189.394C218.983 188.986 218.815 188.668 218.479 188.44C218.155 188.212 217.693 188.098 217.093 188.098H214.897ZM217.111 194.794C217.795 194.794 218.329 194.668 218.713 194.416C219.097 194.152 219.289 193.786 219.289 193.318C219.289 192.85 219.091 192.496 218.695 192.256C218.311 192.016 217.783 191.896 217.111 191.896H214.897V194.794H217.111ZM229.601 186.892H231.185V196H229.637V188.872L224.759 196H223.157V186.892H224.723V194.02L229.601 186.892ZM243.883 186.892H245.467V196H234.073V186.892H235.639V194.776H238.969V186.892H240.553V194.776H243.883V186.892ZM256.037 191.266L257.981 187.774H259.403L257.729 191.266L259.403 194.776H257.981L256.037 191.266ZM252.905 191.266L254.849 187.774H256.271L254.597 191.266L256.271 194.776H254.849L252.905 191.266ZM276.787 182.95H278.515L274.627 196H272.935L269.515 184.948L266.131 196H264.439L260.587 182.95H262.369L265.321 193.84L268.669 182.95H270.415L273.799 193.93L276.787 182.95ZM280.937 185.038C280.649 185.038 280.409 184.942 280.217 184.75C280.025 184.558 279.929 184.324 279.929 184.048C279.929 183.772 280.025 183.55 280.217 183.382C280.409 183.202 280.649 183.112 280.937 183.112C281.225 183.112 281.465 183.202 281.657 183.382C281.861 183.562 281.963 183.784 281.963 184.048C281.963 184.324 281.867 184.558 281.675 184.75C281.483 184.942 281.237 185.038 280.937 185.038ZM280.145 186.892H281.729V196H280.145V186.892ZM289.326 186.64C290.31 186.64 291.078 186.952 291.63 187.576C292.194 188.188 292.476 189.034 292.476 190.114V196H290.874V190.384C290.874 189.568 290.7 188.944 290.352 188.512C290.016 188.08 289.524 187.864 288.876 187.864C288.072 187.864 287.43 188.182 286.95 188.818C286.47 189.454 286.23 190.294 286.23 191.338V196H284.628V186.892H285.996L286.158 188.458C286.47 187.87 286.902 187.42 287.454 187.108C288.006 186.796 288.63 186.64 289.326 186.64ZM298.555 192.058H294.613V190.636H298.555V186.694H300.049V190.636H303.973V192.058H300.049V196H298.555V192.058ZM308.088 194.668H314.118V196H306.396V182.95H308.088V194.668ZM316.923 194.776H315.501L317.175 191.266L315.501 187.774H316.923L318.867 191.266L316.923 194.776ZM320.055 194.776H318.633L320.307 191.266L318.633 187.774H320.055L321.999 191.266L320.055 194.776ZM324.801 196.252C324.465 196.252 324.195 196.156 323.991 195.964C323.787 195.76 323.685 195.49 323.685 195.154C323.685 194.83 323.787 194.566 323.991 194.362C324.195 194.158 324.465 194.056 324.801 194.056C325.137 194.056 325.407 194.158 325.611 194.362C325.827 194.566 325.935 194.83 325.935 195.154C325.935 195.49 325.827 195.76 325.611 195.964C325.407 196.156 325.137 196.252 324.801 196.252Z" fill="#2F2F2F"/>
<path d="M364 108L352 120" stroke="#2F2F2F" stroke-width="2" stroke-linecap="round" stroke-linejoin="round"/>
<path d="M352 108L364 120" stroke="#2F2F2F" stroke-width="2" stroke-linecap="round" stroke-linejoin="round"/>
</g>
<defs>
<filter id="filter0_d_2_1787" x="0" y="0" width="440" height="272" filterUnits="userSpaceOnUse" color-interpolation-filters="sRGB">
<feFlood flood-opacity="0" result="BackgroundImageFix"/>
<feColorMatrix in="SourceAlpha" type="matrix" values="0 0 0 0 0 0 0 0 0 0 0 0 0 0 0 0 0 0 127 0" result="hardAlpha"/>
<feOffset/>
<feGaussianBlur stdDeviation="25"/>
<feComposite in2="hardAlpha" operator="out"/>
<feColorMatrix type="matrix" values="0 0 0 0 0 0 0 0 0 0 0 0 0 0 0 0 0 0 0.25 0"/>
<feBlend mode="normal" in2="BackgroundImageFix" result="effect1_dropShadow_2_1787"/>
<feBlend mode="normal" in="SourceGraphic" in2="effect1_dropShadow_2_1787" result="shape"/>
</filter>
</defs>
</svg>
