<svg width="440" height="322" viewBox="0 0 440 322" fill="none" xmlns="http://www.w3.org/2000/svg">
<g filter="url(#filter0_d_2_1777)">
<rect x="50" y="50" width="340" height="190" rx="20" fill="white"/>
<path d="M84.58 82.484C84.58 83.444 84.334 84.296 83.842 85.04C83.35 85.772 82.654 86.36 81.754 86.804C80.866 87.248 79.822 87.512 78.622 87.596V89.558H76.912V87.596C75.724 87.512 74.68 87.248 73.78 86.804C72.88 86.36 72.178 85.772 71.674 85.04C71.182 84.296 70.936 83.444 70.936 82.484C70.936 81.536 71.182 80.696 71.674 79.964C72.166 79.232 72.862 78.65 73.762 78.218C74.662 77.774 75.712 77.51 76.912 77.426V75.464H78.622V77.426C79.822 77.51 80.872 77.774 81.772 78.218C82.672 78.65 83.362 79.232 83.842 79.964C84.334 80.696 84.58 81.536 84.58 82.484ZM72.7 82.484C72.7 83.54 73.078 84.404 73.834 85.076C74.602 85.748 75.628 86.15 76.912 86.282V78.74C75.628 78.872 74.602 79.268 73.834 79.928C73.078 80.588 72.7 81.44 72.7 82.484ZM78.622 86.264C79.894 86.132 80.908 85.73 81.664 85.058C82.432 84.386 82.816 83.528 82.816 82.484C82.816 81.464 82.432 80.624 81.664 79.964C80.908 79.292 79.894 78.89 78.622 78.758V86.264ZM93.4055 79.892H94.9895V89H93.4415V81.872L88.5635 89H86.9615V79.892H88.5275V87.02L93.4055 79.892ZM104.142 89L101.082 84.968H99.4615V89H97.8775V79.892H99.4615V83.78H101.046L103.89 79.892H105.762L102.432 84.266L106.068 89H104.142ZM111.487 89.252C110.587 89.252 109.789 89.048 109.093 88.64C108.409 88.232 107.875 87.662 107.491 86.93C107.119 86.198 106.933 85.364 106.933 84.428C106.933 83.492 107.125 82.664 107.509 81.944C107.893 81.212 108.427 80.648 109.111 80.252C109.795 79.844 110.581 79.64 111.469 79.64C112.261 79.64 112.969 79.808 113.593 80.144C114.217 80.48 114.703 80.954 115.051 81.566L113.953 82.34C113.305 81.356 112.489 80.864 111.505 80.864C110.641 80.864 109.939 81.194 109.399 81.854C108.871 82.502 108.607 83.348 108.607 84.392C108.607 85.1 108.727 85.73 108.967 86.282C109.219 86.834 109.561 87.266 109.993 87.578C110.437 87.878 110.947 88.028 111.523 88.028C112.531 88.028 113.347 87.53 113.971 86.534L115.069 87.326C114.721 87.95 114.235 88.43 113.611 88.766C112.999 89.09 112.291 89.252 111.487 89.252ZM123.394 79.892H124.978V89H123.43V81.872L118.552 89H116.95V79.892H118.516V87.02L123.394 79.892ZM132.546 79.64C133.326 79.64 134.016 79.844 134.616 80.252C135.216 80.648 135.678 81.206 136.002 81.926C136.338 82.646 136.506 83.48 136.506 84.428C136.506 85.388 136.332 86.234 135.984 86.966C135.648 87.686 135.174 88.25 134.562 88.658C133.962 89.054 133.272 89.252 132.492 89.252C131.844 89.252 131.25 89.108 130.71 88.82C130.182 88.52 129.762 88.106 129.45 87.578V92.42H127.866V79.892H129.234L129.396 81.548C129.696 80.96 130.122 80.498 130.674 80.162C131.238 79.814 131.862 79.64 132.546 79.64ZM132.168 88.028C132.984 88.028 133.632 87.71 134.112 87.074C134.592 86.426 134.832 85.556 134.832 84.464C134.832 83.36 134.586 82.484 134.094 81.836C133.614 81.188 132.966 80.864 132.15 80.864C131.334 80.864 130.68 81.194 130.188 81.854C129.696 82.514 129.45 83.39 129.45 84.482C129.45 85.55 129.696 86.408 130.188 87.056C130.68 87.704 131.34 88.028 132.168 88.028ZM146.15 79.892L142.046 90.242C141.71 91.082 141.314 91.694 140.858 92.078C140.414 92.474 139.874 92.672 139.238 92.672C138.758 92.672 138.266 92.552 137.762 92.312L138.158 91.088C138.302 91.196 138.464 91.28 138.644 91.34C138.824 91.412 138.986 91.448 139.13 91.448C139.562 91.448 139.922 91.298 140.21 90.998C140.51 90.698 140.774 90.2 141.002 89.504L141.074 89.324L137.294 79.892H139.004L141.776 87.434L144.584 79.892H146.15ZM154.243 79.892H155.827V89H154.279V81.872L149.401 89H147.799V79.892H149.365V87.02L154.243 79.892ZM151.795 78.56C150.979 78.56 150.313 78.32 149.797 77.84C149.293 77.36 149.029 76.73 149.005 75.95H150.265C150.289 76.406 150.439 76.76 150.715 77.012C150.991 77.264 151.357 77.39 151.813 77.39C152.281 77.39 152.647 77.264 152.911 77.012C153.187 76.748 153.337 76.394 153.361 75.95H154.621C154.597 76.73 154.327 77.36 153.811 77.84C153.295 78.32 152.623 78.56 151.795 78.56ZM165.591 79.892V81.098H162.369V89H160.767V81.098H157.527V79.892H165.591ZM174.663 84.05C174.663 84.242 174.651 84.458 174.627 84.698H167.949C168.009 85.73 168.297 86.546 168.813 87.146C169.329 87.734 170.019 88.028 170.883 88.028C171.399 88.028 171.897 87.902 172.377 87.65C172.857 87.386 173.259 87.014 173.583 86.534L174.609 87.398C174.213 87.998 173.685 88.46 173.025 88.784C172.365 89.096 171.645 89.252 170.865 89.252C169.965 89.252 169.173 89.054 168.489 88.658C167.817 88.25 167.295 87.68 166.923 86.948C166.551 86.216 166.365 85.37 166.365 84.41C166.365 83.474 166.545 82.646 166.905 81.926C167.265 81.194 167.769 80.63 168.417 80.234C169.077 79.838 169.839 79.64 170.703 79.64C171.495 79.64 172.191 79.82 172.791 80.18C173.391 80.54 173.853 81.056 174.177 81.728C174.501 82.388 174.663 83.162 174.663 84.05ZM173.061 83.546C173.037 82.718 172.815 82.064 172.395 81.584C171.987 81.092 171.411 80.846 170.667 80.846C169.935 80.846 169.335 81.086 168.867 81.566C168.399 82.034 168.111 82.694 168.003 83.546H173.061ZM188.272 79.892H189.856V89H188.272V84.95H183.538V89H181.954V79.892H183.538V83.762H188.272V79.892ZM196.509 89.252C195.645 89.252 194.877 89.054 194.205 88.658C193.545 88.25 193.029 87.686 192.657 86.966C192.285 86.234 192.099 85.394 192.099 84.446C192.099 83.51 192.285 82.676 192.657 81.944C193.029 81.212 193.545 80.648 194.205 80.252C194.877 79.844 195.651 79.64 196.527 79.64C197.391 79.64 198.159 79.844 198.831 80.252C199.503 80.648 200.025 81.212 200.397 81.944C200.769 82.664 200.955 83.492 200.955 84.428C200.955 85.376 200.769 86.216 200.397 86.948C200.025 87.68 199.503 88.25 198.831 88.658C198.159 89.054 197.385 89.252 196.509 89.252ZM196.509 88.028C197.349 88.028 198.015 87.698 198.507 87.038C199.011 86.378 199.263 85.502 199.263 84.41C199.263 83.342 199.011 82.484 198.507 81.836C198.003 81.188 197.337 80.864 196.509 80.864C195.681 80.864 195.015 81.194 194.511 81.854C194.019 82.502 193.773 83.366 193.773 84.446C193.773 85.526 194.019 86.396 194.511 87.056C195.015 87.704 195.681 88.028 196.509 88.028ZM210.591 79.892L206.487 90.242C206.151 91.082 205.755 91.694 205.299 92.078C204.855 92.474 204.315 92.672 203.679 92.672C203.199 92.672 202.707 92.552 202.203 92.312L202.599 91.088C202.743 91.196 202.905 91.28 203.085 91.34C203.265 91.412 203.427 91.448 203.571 91.448C204.003 91.448 204.363 91.298 204.651 90.998C204.951 90.698 205.215 90.2 205.443 89.504L205.515 89.324L201.735 79.892H203.445L206.217 87.434L209.025 79.892H210.591ZM219.117 79.892V81.098H215.895V89H214.293V81.098H211.053V79.892H219.117ZM224.851 80.162C225.619 80.162 226.303 80.348 226.903 80.72C227.515 81.092 227.989 81.614 228.325 82.286C228.673 82.946 228.847 83.702 228.847 84.554C228.847 85.466 228.661 86.282 228.289 87.002C227.929 87.71 227.425 88.262 226.777 88.658C226.129 89.054 225.385 89.252 224.545 89.252C223.141 89.252 222.079 88.76 221.359 87.776C220.639 86.792 220.279 85.358 220.279 83.474C220.279 81.926 220.435 80.666 220.747 79.694C221.059 78.71 221.569 77.936 222.277 77.372C222.997 76.808 223.975 76.412 225.211 76.184C225.907 76.052 226.453 75.92 226.849 75.788C227.257 75.644 227.581 75.476 227.821 75.284L228.307 76.562C228.019 76.766 227.665 76.946 227.245 77.102C226.825 77.246 226.279 77.378 225.607 77.498C224.203 77.738 223.183 78.224 222.547 78.956C221.923 79.676 221.575 80.714 221.503 82.07C221.815 81.47 222.265 81.002 222.853 80.666C223.441 80.33 224.107 80.162 224.851 80.162ZM224.599 88.028C225.379 88.028 225.997 87.722 226.453 87.11C226.921 86.498 227.161 85.682 227.173 84.662C227.173 83.654 226.945 82.856 226.489 82.268C226.033 81.68 225.397 81.386 224.581 81.386C223.765 81.386 223.123 81.668 222.655 82.232C222.187 82.784 221.953 83.552 221.953 84.536C221.953 85.592 222.193 86.438 222.673 87.074C223.165 87.71 223.807 88.028 224.599 88.028ZM238.716 79.892L234.612 90.242C234.276 91.082 233.88 91.694 233.424 92.078C232.98 92.474 232.44 92.672 231.804 92.672C231.324 92.672 230.832 92.552 230.328 92.312L230.724 91.088C230.868 91.196 231.03 91.28 231.21 91.34C231.39 91.412 231.552 91.448 231.696 91.448C232.128 91.448 232.488 91.298 232.776 90.998C233.076 90.698 233.34 90.2 233.568 89.504L233.64 89.324L229.86 79.892H231.57L234.342 87.434L237.15 79.892H238.716ZM246.63 89L243.57 84.968H241.95V89H240.366V79.892H241.95V83.78H243.534L246.378 79.892H248.25L244.92 84.266L248.556 89H246.63ZM261.589 89L258.529 84.968H256.909V89H255.325V79.892H256.909V83.78H258.493L261.337 79.892H263.209L259.879 84.266L263.515 89H261.589ZM76.12 104.64C76.9 104.64 77.59 104.844 78.19 105.252C78.79 105.648 79.252 106.206 79.576 106.926C79.912 107.646 80.08 108.48 80.08 109.428C80.08 110.388 79.906 111.234 79.558 111.966C79.222 112.686 78.748 113.25 78.136 113.658C77.536 114.054 76.846 114.252 76.066 114.252C75.418 114.252 74.824 114.108 74.284 113.82C73.756 113.52 73.336 113.106 73.024 112.578V117.42H71.44V104.892H72.808L72.97 106.548C73.27 105.96 73.696 105.498 74.248 105.162C74.812 104.814 75.436 104.64 76.12 104.64ZM75.742 113.028C76.558 113.028 77.206 112.71 77.686 112.074C78.166 111.426 78.406 110.556 78.406 109.464C78.406 108.36 78.16 107.484 77.668 106.836C77.188 106.188 76.54 105.864 75.724 105.864C74.908 105.864 74.254 106.194 73.762 106.854C73.27 107.514 73.024 108.39 73.024 109.482C73.024 110.55 73.27 111.408 73.762 112.056C74.254 112.704 74.914 113.028 75.742 113.028ZM84.7324 114.252C83.8084 114.252 83.0584 114 82.4824 113.496C81.9184 112.98 81.6364 112.308 81.6364 111.48C81.6364 110.544 82.0084 109.812 82.7524 109.284C83.5084 108.756 84.5584 108.492 85.9024 108.492C86.5024 108.492 87.1024 108.534 87.7024 108.618V108.06C87.7024 107.4 87.4984 106.872 87.0904 106.476C86.6944 106.068 86.1604 105.864 85.4884 105.864C85.0324 105.864 84.5644 105.972 84.0844 106.188C83.6164 106.404 83.1964 106.692 82.8244 107.052L81.9784 105.99C82.4584 105.558 83.0104 105.228 83.6344 105C84.2704 104.76 84.9304 104.64 85.6144 104.64C86.3344 104.64 86.9704 104.778 87.5224 105.054C88.0864 105.33 88.5184 105.714 88.8184 106.206C89.1304 106.698 89.2864 107.268 89.2864 107.916V114H87.9184L87.7924 112.65C87.4804 113.166 87.0604 113.562 86.5324 113.838C86.0044 114.114 85.4044 114.252 84.7324 114.252ZM85.0924 113.082C85.5724 113.082 86.0104 112.968 86.4064 112.74C86.8144 112.5 87.1324 112.182 87.3604 111.786C87.5884 111.378 87.7024 110.928 87.7024 110.436V109.752C87.1264 109.668 86.6044 109.626 86.1364 109.626C85.1884 109.626 84.4624 109.782 83.9584 110.094C83.4664 110.394 83.2204 110.838 83.2204 111.426C83.2204 111.93 83.3884 112.332 83.7244 112.632C84.0724 112.932 84.5284 113.082 85.0924 113.082ZM96.179 105.162C96.947 105.162 97.631 105.348 98.231 105.72C98.843 106.092 99.317 106.614 99.653 107.286C100.001 107.946 100.175 108.702 100.175 109.554C100.175 110.466 99.989 111.282 99.617 112.002C99.257 112.71 98.753 113.262 98.105 113.658C97.457 114.054 96.713 114.252 95.873 114.252C94.469 114.252 93.407 113.76 92.687 112.776C91.967 111.792 91.607 110.358 91.607 108.474C91.607 106.926 91.763 105.666 92.075 104.694C92.387 103.71 92.897 102.936 93.605 102.372C94.325 101.808 95.303 101.412 96.539 101.184C97.235 101.052 97.781 100.92 98.177 100.788C98.585 100.644 98.909 100.476 99.149 100.284L99.635 101.562C99.347 101.766 98.993 101.946 98.573 102.102C98.153 102.246 97.607 102.378 96.935 102.498C95.531 102.738 94.511 103.224 93.875 103.956C93.251 104.676 92.903 105.714 92.831 107.07C93.143 106.47 93.593 106.002 94.181 105.666C94.769 105.33 95.435 105.162 96.179 105.162ZM95.927 113.028C96.707 113.028 97.325 112.722 97.781 112.11C98.249 111.498 98.489 110.682 98.501 109.662C98.501 108.654 98.273 107.856 97.817 107.268C97.361 106.68 96.725 106.386 95.909 106.386C95.093 106.386 94.451 106.668 93.983 107.232C93.515 107.784 93.281 108.552 93.281 109.536C93.281 110.592 93.521 111.438 94.001 112.074C94.493 112.71 95.135 113.028 95.927 113.028ZM106.21 114.252C105.346 114.252 104.578 114.054 103.906 113.658C103.246 113.25 102.73 112.686 102.358 111.966C101.986 111.234 101.8 110.394 101.8 109.446C101.8 108.51 101.986 107.676 102.358 106.944C102.73 106.212 103.246 105.648 103.906 105.252C104.578 104.844 105.352 104.64 106.228 104.64C107.092 104.64 107.86 104.844 108.532 105.252C109.204 105.648 109.726 106.212 110.098 106.944C110.47 107.664 110.656 108.492 110.656 109.428C110.656 110.376 110.47 111.216 110.098 111.948C109.726 112.68 109.204 113.25 108.532 113.658C107.86 114.054 107.086 114.252 106.21 114.252ZM106.21 113.028C107.05 113.028 107.716 112.698 108.208 112.038C108.712 111.378 108.964 110.502 108.964 109.41C108.964 108.342 108.712 107.484 108.208 106.836C107.704 106.188 107.038 105.864 106.21 105.864C105.382 105.864 104.716 106.194 104.212 106.854C103.72 107.502 103.474 108.366 103.474 109.446C103.474 110.526 103.72 111.396 104.212 112.056C104.716 112.704 105.382 113.028 106.21 113.028ZM119.607 104.892V114H118.005V110.76C117.189 110.928 116.445 111.012 115.773 111.012C114.645 111.012 113.787 110.742 113.199 110.202C112.611 109.65 112.317 108.858 112.317 107.826V104.892H113.919V107.826C113.919 109.134 114.645 109.788 116.097 109.788C116.685 109.788 117.321 109.722 118.005 109.59V104.892H119.607ZM130.155 109.05C130.155 109.242 130.143 109.458 130.119 109.698H123.441C123.501 110.73 123.789 111.546 124.305 112.146C124.821 112.734 125.511 113.028 126.375 113.028C126.891 113.028 127.389 112.902 127.869 112.65C128.349 112.386 128.751 112.014 129.075 111.534L130.101 112.398C129.705 112.998 129.177 113.46 128.517 113.784C127.857 114.096 127.137 114.252 126.357 114.252C125.457 114.252 124.665 114.054 123.981 113.658C123.309 113.25 122.787 112.68 122.415 111.948C122.043 111.216 121.857 110.37 121.857 109.41C121.857 108.474 122.037 107.646 122.397 106.926C122.757 106.194 123.261 105.63 123.909 105.234C124.569 104.838 125.331 104.64 126.195 104.64C126.987 104.64 127.683 104.82 128.283 105.18C128.883 105.54 129.345 106.056 129.669 106.728C129.993 107.388 130.155 108.162 130.155 109.05ZM128.553 108.546C128.529 107.718 128.307 107.064 127.887 106.584C127.479 106.092 126.903 105.846 126.159 105.846C125.427 105.846 124.827 106.086 124.359 106.566C123.891 107.034 123.603 107.694 123.495 108.546H128.553ZM139.997 104.892H142.247V114H140.699V106.764L137.909 114H136.631L133.877 106.8V114H132.401V104.892H134.633L137.279 112.128L139.997 104.892ZM152.742 104.892L148.638 115.242C148.302 116.082 147.906 116.694 147.45 117.078C147.006 117.474 146.466 117.672 145.83 117.672C145.35 117.672 144.858 117.552 144.354 117.312L144.75 116.088C144.894 116.196 145.056 116.28 145.236 116.34C145.416 116.412 145.578 116.448 145.722 116.448C146.154 116.448 146.514 116.298 146.802 115.998C147.102 115.698 147.366 115.2 147.594 114.504L147.666 114.324L143.886 104.892H145.596L148.368 112.434L151.176 104.892H152.742ZM166.856 104.892H169.106V114H167.558V106.764L164.768 114H163.49L160.736 106.8V114H159.26V104.892H161.492L164.138 112.128L166.856 104.892ZM179.655 109.05C179.655 109.242 179.643 109.458 179.619 109.698H172.941C173.001 110.73 173.289 111.546 173.805 112.146C174.321 112.734 175.011 113.028 175.875 113.028C176.391 113.028 176.889 112.902 177.369 112.65C177.849 112.386 178.251 112.014 178.575 111.534L179.601 112.398C179.205 112.998 178.677 113.46 178.017 113.784C177.357 114.096 176.637 114.252 175.857 114.252C174.957 114.252 174.165 114.054 173.481 113.658C172.809 113.25 172.287 112.68 171.915 111.948C171.543 111.216 171.357 110.37 171.357 109.41C171.357 108.474 171.537 107.646 171.897 106.926C172.257 106.194 172.761 105.63 173.409 105.234C174.069 104.838 174.831 104.64 175.695 104.64C176.487 104.64 177.183 104.82 177.783 105.18C178.383 105.54 178.845 106.056 179.169 106.728C179.493 107.388 179.655 108.162 179.655 109.05ZM178.053 108.546C178.029 107.718 177.807 107.064 177.387 106.584C176.979 106.092 176.403 105.846 175.659 105.846C174.927 105.846 174.327 106.086 173.859 106.566C173.391 107.034 173.103 107.694 172.995 108.546H178.053ZM185.825 114.252C184.925 114.252 184.127 114.048 183.431 113.64C182.747 113.232 182.213 112.662 181.829 111.93C181.457 111.198 181.271 110.364 181.271 109.428C181.271 108.492 181.463 107.664 181.847 106.944C182.231 106.212 182.765 105.648 183.449 105.252C184.133 104.844 184.919 104.64 185.807 104.64C186.599 104.64 187.307 104.808 187.931 105.144C188.555 105.48 189.041 105.954 189.389 106.566L188.291 107.34C187.643 106.356 186.827 105.864 185.843 105.864C184.979 105.864 184.277 106.194 183.737 106.854C183.209 107.502 182.945 108.348 182.945 109.392C182.945 110.1 183.065 110.73 183.305 111.282C183.557 111.834 183.899 112.266 184.331 112.578C184.775 112.878 185.285 113.028 185.861 113.028C186.869 113.028 187.685 112.53 188.309 111.534L189.407 112.326C189.059 112.95 188.573 113.43 187.949 113.766C187.337 114.09 186.629 114.252 185.825 114.252ZM198.164 104.892V106.098H194.942V114H193.34V106.098H190.1V104.892H198.164ZM207.48 104.892L203.376 115.242C203.04 116.082 202.644 116.694 202.188 117.078C201.744 117.474 201.204 117.672 200.568 117.672C200.088 117.672 199.596 117.552 199.092 117.312L199.488 116.088C199.632 116.196 199.794 116.28 199.974 116.34C200.154 116.412 200.316 116.448 200.46 116.448C200.892 116.448 201.252 116.298 201.54 115.998C201.84 115.698 202.104 115.2 202.332 114.504L202.404 114.324L198.624 104.892H200.334L203.106 112.434L205.914 104.892H207.48ZM217.923 114.252C217.023 114.252 216.225 114.048 215.529 113.64C214.845 113.232 214.311 112.662 213.927 111.93C213.555 111.198 213.369 110.364 213.369 109.428C213.369 108.492 213.561 107.664 213.945 106.944C214.329 106.212 214.863 105.648 215.547 105.252C216.231 104.844 217.017 104.64 217.905 104.64C218.697 104.64 219.405 104.808 220.029 105.144C220.653 105.48 221.139 105.954 221.487 106.566L220.389 107.34C219.741 106.356 218.925 105.864 217.941 105.864C217.077 105.864 216.375 106.194 215.835 106.854C215.307 107.502 215.043 108.348 215.043 109.392C215.043 110.1 215.163 110.73 215.403 111.282C215.655 111.834 215.997 112.266 216.429 112.578C216.873 112.878 217.383 113.028 217.959 113.028C218.967 113.028 219.783 112.53 220.407 111.534L221.505 112.326C221.157 112.95 220.671 113.43 220.047 113.766C219.435 114.09 218.727 114.252 217.923 114.252ZM231.197 104.892V114H229.595V106.098H224.987V114H223.385V104.892H231.197ZM241.741 109.05C241.741 109.242 241.729 109.458 241.705 109.698H235.027C235.087 110.73 235.375 111.546 235.891 112.146C236.407 112.734 237.097 113.028 237.961 113.028C238.477 113.028 238.975 112.902 239.455 112.65C239.935 112.386 240.337 112.014 240.661 111.534L241.687 112.398C241.291 112.998 240.763 113.46 240.103 113.784C239.443 114.096 238.723 114.252 237.943 114.252C237.043 114.252 236.251 114.054 235.567 113.658C234.895 113.25 234.373 112.68 234.001 111.948C233.629 111.216 233.443 110.37 233.443 109.41C233.443 108.474 233.623 107.646 233.983 106.926C234.343 106.194 234.847 105.63 235.495 105.234C236.155 104.838 236.917 104.64 237.781 104.64C238.573 104.64 239.269 104.82 239.869 105.18C240.469 105.54 240.931 106.056 241.255 106.728C241.579 107.388 241.741 108.162 241.741 109.05ZM240.139 108.546C240.115 107.718 239.893 107.064 239.473 106.584C239.065 106.092 238.489 105.846 237.745 105.846C237.013 105.846 236.413 106.086 235.945 106.566C235.477 107.034 235.189 107.694 235.081 108.546H240.139ZM251.493 112.776H252.897V116.088H251.403V114H243.987V104.892H245.589V112.776H249.891V104.892H251.493V112.776ZM261.118 104.892H262.702V114H261.154V106.872L256.276 114H254.674V104.892H256.24V112.02L261.118 104.892ZM267.984 114.252C267.06 114.252 266.31 114 265.734 113.496C265.17 112.98 264.888 112.308 264.888 111.48C264.888 110.544 265.26 109.812 266.004 109.284C266.76 108.756 267.81 108.492 269.154 108.492C269.754 108.492 270.354 108.534 270.954 108.618V108.06C270.954 107.4 270.75 106.872 270.342 106.476C269.946 106.068 269.412 105.864 268.74 105.864C268.284 105.864 267.816 105.972 267.336 106.188C266.868 106.404 266.448 106.692 266.076 107.052L265.23 105.99C265.71 105.558 266.262 105.228 266.886 105C267.522 104.76 268.182 104.64 268.866 104.64C269.586 104.64 270.222 104.778 270.774 105.054C271.338 105.33 271.77 105.714 272.07 106.206C272.382 106.698 272.538 107.268 272.538 107.916V114H271.17L271.044 112.65C270.732 113.166 270.312 113.562 269.784 113.838C269.256 114.114 268.656 114.252 267.984 114.252ZM268.344 113.082C268.824 113.082 269.262 112.968 269.658 112.74C270.066 112.5 270.384 112.182 270.612 111.786C270.84 111.378 270.954 110.928 270.954 110.436V109.752C270.378 109.668 269.856 109.626 269.388 109.626C268.44 109.626 267.714 109.782 267.21 110.094C266.718 110.394 266.472 110.838 266.472 111.426C266.472 111.93 266.64 112.332 266.976 112.632C267.324 112.932 267.78 113.082 268.344 113.082ZM274.355 112.614H274.571C275.147 112.614 275.621 112.326 275.993 111.75C276.365 111.162 276.551 110.082 276.551 108.51V104.892H282.419V114H280.835V106.116H277.991V108.69C277.991 110.166 277.745 111.42 277.253 112.452C276.761 113.484 275.909 114 274.697 114H274.355V112.614ZM288.697 108.258C289.801 108.258 290.665 108.516 291.289 109.032C291.925 109.548 292.243 110.25 292.243 111.138C292.243 112.014 291.931 112.71 291.307 113.226C290.695 113.742 289.855 114 288.787 114H285.295V104.892H286.879V108.258H288.697ZM288.589 112.776C289.201 112.776 289.681 112.632 290.029 112.344C290.389 112.056 290.569 111.654 290.569 111.138C290.569 110.622 290.395 110.22 290.047 109.932C289.699 109.632 289.213 109.482 288.589 109.482H286.879V112.776H288.589ZM300.719 104.892H302.303V114H300.719V109.95H295.985V114H294.401V104.892H295.985V108.762H300.719V104.892ZM308.578 108.258C309.682 108.258 310.546 108.516 311.17 109.032C311.806 109.548 312.124 110.25 312.124 111.138C312.124 112.014 311.812 112.71 311.188 113.226C310.576 113.742 309.736 114 308.668 114H305.176V104.892H306.76V108.258H308.578ZM308.47 112.776C309.082 112.776 309.562 112.632 309.91 112.344C310.27 112.056 310.45 111.654 310.45 111.138C310.45 110.622 310.276 110.22 309.928 109.932C309.58 109.632 309.094 109.482 308.47 109.482H306.76V112.776H308.47ZM314.194 104.892H315.796V114H314.194V104.892ZM326.202 104.892H328.452V114H326.904V106.764L324.114 114H322.836L320.082 106.8V114H318.606V104.892H320.838L323.484 112.128L326.202 104.892ZM78.316 129.892V131.098H75.094V139H73.492V131.098H70.252V129.892H78.316ZM84.6981 129.64C85.4781 129.64 86.1681 129.844 86.7681 130.252C87.3681 130.648 87.8301 131.206 88.1541 131.926C88.4901 132.646 88.6581 133.48 88.6581 134.428C88.6581 135.388 88.4841 136.234 88.1361 136.966C87.8001 137.686 87.3261 138.25 86.7141 138.658C86.1141 139.054 85.4241 139.252 84.6441 139.252C83.9961 139.252 83.4021 139.108 82.8621 138.82C82.3341 138.52 81.9141 138.106 81.6021 137.578V142.42H80.0181V129.892H81.3861L81.5481 131.548C81.8481 130.96 82.2741 130.498 82.8261 130.162C83.3901 129.814 84.0141 129.64 84.6981 129.64ZM84.3201 138.028C85.1361 138.028 85.7841 137.71 86.2641 137.074C86.7441 136.426 86.9841 135.556 86.9841 134.464C86.9841 133.36 86.7381 132.484 86.2461 131.836C85.7661 131.188 85.1181 130.864 84.3021 130.864C83.4861 130.864 82.8321 131.194 82.3401 131.854C81.8481 132.514 81.6021 133.39 81.6021 134.482C81.6021 135.55 81.8481 136.408 82.3401 137.056C82.8321 137.704 83.4921 138.028 84.3201 138.028ZM94.6966 139.252C93.8326 139.252 93.0646 139.054 92.3926 138.658C91.7326 138.25 91.2166 137.686 90.8446 136.966C90.4726 136.234 90.2866 135.394 90.2866 134.446C90.2866 133.51 90.4726 132.676 90.8446 131.944C91.2166 131.212 91.7326 130.648 92.3926 130.252C93.0646 129.844 93.8386 129.64 94.7146 129.64C95.5786 129.64 96.3466 129.844 97.0186 130.252C97.6906 130.648 98.2126 131.212 98.5846 131.944C98.9566 132.664 99.1426 133.492 99.1426 134.428C99.1426 135.376 98.9566 136.216 98.5846 136.948C98.2126 137.68 97.6906 138.25 97.0186 138.658C96.3466 139.054 95.5726 139.252 94.6966 139.252ZM94.6966 138.028C95.5366 138.028 96.2026 137.698 96.6946 137.038C97.1986 136.378 97.4506 135.502 97.4506 134.41C97.4506 133.342 97.1986 132.484 96.6946 131.836C96.1906 131.188 95.5246 130.864 94.6966 130.864C93.8686 130.864 93.2026 131.194 92.6986 131.854C92.2066 132.502 91.9606 133.366 91.9606 134.446C91.9606 135.526 92.2066 136.396 92.6986 137.056C93.2026 137.704 93.8686 138.028 94.6966 138.028ZM105.317 139.252C104.417 139.252 103.619 139.048 102.923 138.64C102.239 138.232 101.705 137.662 101.321 136.93C100.949 136.198 100.763 135.364 100.763 134.428C100.763 133.492 100.955 132.664 101.339 131.944C101.723 131.212 102.257 130.648 102.941 130.252C103.625 129.844 104.411 129.64 105.299 129.64C106.091 129.64 106.799 129.808 107.423 130.144C108.047 130.48 108.533 130.954 108.881 131.566L107.783 132.34C107.135 131.356 106.319 130.864 105.335 130.864C104.471 130.864 103.769 131.194 103.229 131.854C102.701 132.502 102.437 133.348 102.437 134.392C102.437 135.1 102.557 135.73 102.797 136.282C103.049 136.834 103.391 137.266 103.823 137.578C104.267 137.878 104.777 138.028 105.353 138.028C106.361 138.028 107.177 137.53 107.801 136.534L108.899 137.326C108.551 137.95 108.065 138.43 107.441 138.766C106.829 139.09 106.121 139.252 105.317 139.252ZM117.224 129.892H118.808V139H117.26V131.872L112.382 139H110.78V129.892H112.346V137.02L117.224 129.892ZM127.96 139L124.9 134.968H123.28V139H121.696V129.892H123.28V133.78H124.864L127.708 129.892H129.58L126.25 134.266L129.886 139H127.96ZM135.161 139.252C134.297 139.252 133.529 139.054 132.857 138.658C132.197 138.25 131.681 137.686 131.309 136.966C130.937 136.234 130.751 135.394 130.751 134.446C130.751 133.51 130.937 132.676 131.309 131.944C131.681 131.212 132.197 130.648 132.857 130.252C133.529 129.844 134.303 129.64 135.179 129.64C136.043 129.64 136.811 129.844 137.483 130.252C138.155 130.648 138.677 131.212 139.049 131.944C139.421 132.664 139.607 133.492 139.607 134.428C139.607 135.376 139.421 136.216 139.049 136.948C138.677 137.68 138.155 138.25 137.483 138.658C136.811 139.054 136.037 139.252 135.161 139.252ZM135.161 138.028C136.001 138.028 136.667 137.698 137.159 137.038C137.663 136.378 137.915 135.502 137.915 134.41C137.915 133.342 137.663 132.484 137.159 131.836C136.655 131.188 135.989 130.864 135.161 130.864C134.333 130.864 133.667 131.194 133.163 131.854C132.671 132.502 132.425 133.366 132.425 134.446C132.425 135.526 132.671 136.396 133.163 137.056C133.667 137.704 134.333 138.028 135.161 138.028ZM149.454 129.892H151.704V139H150.156V131.764L147.366 139H146.088L143.334 131.8V139H141.858V129.892H144.09L146.736 137.128L149.454 129.892ZM155.665 139.252C155.329 139.252 155.059 139.156 154.855 138.964C154.651 138.76 154.549 138.49 154.549 138.154C154.549 137.83 154.651 137.566 154.855 137.362C155.059 137.158 155.329 137.056 155.665 137.056C156.001 137.056 156.271 137.158 156.475 137.362C156.691 137.566 156.799 137.83 156.799 138.154C156.799 138.49 156.691 138.76 156.475 138.964C156.271 139.156 156.001 139.252 155.665 139.252ZM166.654 137.668H173.476V139H164.944V125.95H173.296V127.282H166.654V131.656H172.576V132.988H166.654V137.668ZM179.637 139.252C178.737 139.252 177.939 139.048 177.243 138.64C176.559 138.232 176.025 137.662 175.641 136.93C175.269 136.198 175.083 135.364 175.083 134.428C175.083 133.492 175.275 132.664 175.659 131.944C176.043 131.212 176.577 130.648 177.261 130.252C177.945 129.844 178.731 129.64 179.619 129.64C180.411 129.64 181.119 129.808 181.743 130.144C182.367 130.48 182.853 130.954 183.201 131.566L182.103 132.34C181.455 131.356 180.639 130.864 179.655 130.864C178.791 130.864 178.089 131.194 177.549 131.854C177.021 132.502 176.757 133.348 176.757 134.392C176.757 135.1 176.877 135.73 177.117 136.282C177.369 136.834 177.711 137.266 178.143 137.578C178.587 137.878 179.097 138.028 179.673 138.028C180.681 138.028 181.497 137.53 182.121 136.534L183.219 137.326C182.871 137.95 182.385 138.43 181.761 138.766C181.149 139.09 180.441 139.252 179.637 139.252ZM184.056 137.614H184.272C184.848 137.614 185.322 137.326 185.694 136.75C186.066 136.162 186.252 135.082 186.252 133.51V129.892H192.12V139H190.536V131.116H187.692V133.69C187.692 135.166 187.446 136.42 186.954 137.452C186.462 138.484 185.61 139 184.398 139H184.056V137.614ZM201.441 129.892H203.025V139H201.477V131.872L196.599 139H194.997V129.892H196.563V137.02L201.441 129.892ZM216.538 134.248C217.21 134.38 217.726 134.638 218.086 135.022C218.446 135.406 218.626 135.874 218.626 136.426C218.626 137.218 218.278 137.848 217.582 138.316C216.898 138.772 215.95 139 214.738 139H210.958V129.892H214.738C215.842 129.892 216.706 130.102 217.33 130.522C217.966 130.942 218.284 131.518 218.284 132.25C218.284 132.73 218.134 133.15 217.834 133.51C217.534 133.858 217.102 134.104 216.538 134.248ZM212.56 131.098V133.69H214.756C215.368 133.69 215.836 133.582 216.16 133.366C216.484 133.138 216.646 132.814 216.646 132.394C216.646 131.986 216.478 131.668 216.142 131.44C215.818 131.212 215.356 131.098 214.756 131.098H212.56ZM214.774 137.794C215.458 137.794 215.992 137.668 216.376 137.416C216.76 137.152 216.952 136.786 216.952 136.318C216.952 135.85 216.754 135.496 216.358 135.256C215.974 135.016 215.446 134.896 214.774 134.896H212.56V137.794H214.774ZM224.221 133.258C225.325 133.258 226.189 133.516 226.813 134.032C227.449 134.548 227.767 135.25 227.767 136.138C227.767 137.014 227.455 137.71 226.831 138.226C226.219 138.742 225.379 139 224.311 139H220.819V129.892H222.403V133.258H224.221ZM224.113 137.776C224.725 137.776 225.205 137.632 225.553 137.344C225.913 137.056 226.093 136.654 226.093 136.138C226.093 135.622 225.919 135.22 225.571 134.932C225.223 134.632 224.737 134.482 224.113 134.482H222.403V137.776H224.113ZM229.837 129.892H231.439V139H229.837V129.892ZM246.732 129.892L242.628 140.242C242.292 141.082 241.896 141.694 241.44 142.078C240.996 142.474 240.456 142.672 239.82 142.672C239.34 142.672 238.848 142.552 238.344 142.312L238.74 141.088C238.884 141.196 239.046 141.28 239.226 141.34C239.406 141.412 239.568 141.448 239.712 141.448C240.144 141.448 240.504 141.298 240.792 140.998C241.092 140.698 241.356 140.2 241.584 139.504L241.656 139.324L237.876 129.892H239.586L242.358 137.434L245.166 129.892H246.732ZM255.941 139H254.033L251.441 135.31L248.867 139H247.157L250.595 134.284L247.373 129.892H249.227L251.585 133.24L253.979 129.892H255.707L252.431 134.248L255.941 139ZM261.021 139.252C260.157 139.252 259.389 139.054 258.717 138.658C258.057 138.25 257.541 137.686 257.169 136.966C256.797 136.234 256.611 135.394 256.611 134.446C256.611 133.51 256.797 132.676 257.169 131.944C257.541 131.212 258.057 130.648 258.717 130.252C259.389 129.844 260.163 129.64 261.039 129.64C261.903 129.64 262.671 129.844 263.343 130.252C264.015 130.648 264.537 131.212 264.909 131.944C265.281 132.664 265.467 133.492 265.467 134.428C265.467 135.376 265.281 136.216 264.909 136.948C264.537 137.68 264.015 138.25 263.343 138.658C262.671 139.054 261.897 139.252 261.021 139.252ZM261.021 138.028C261.861 138.028 262.527 137.698 263.019 137.038C263.523 136.378 263.775 135.502 263.775 134.41C263.775 133.342 263.523 132.484 263.019 131.836C262.515 131.188 261.849 130.864 261.021 130.864C260.193 130.864 259.527 131.194 259.023 131.854C258.531 132.502 258.285 133.366 258.285 134.446C258.285 135.526 258.531 136.396 259.023 137.056C259.527 137.704 260.193 138.028 261.021 138.028ZM276.043 137.776V141.088H274.549V139H267.709V141.088H266.197V137.776H267.151C267.739 137.2 268.147 136.528 268.375 135.76C268.615 134.992 268.735 133.972 268.735 132.7V129.892H274.729V137.776H276.043ZM270.175 132.862C270.175 133.99 270.067 134.95 269.851 135.742C269.635 136.534 269.317 137.212 268.897 137.776H273.145V131.116H270.175V132.862ZM284.269 129.892H285.853V139H284.305V131.872L279.427 139H277.825V129.892H279.391V137.02L284.269 129.892ZM295.617 129.892V131.098H292.395V139H290.793V131.098H287.553V129.892H295.617ZM304.688 134.05C304.688 134.242 304.676 134.458 304.652 134.698H297.974C298.034 135.73 298.322 136.546 298.838 137.146C299.354 137.734 300.044 138.028 300.908 138.028C301.424 138.028 301.922 137.902 302.402 137.65C302.882 137.386 303.284 137.014 303.608 136.534L304.634 137.398C304.238 137.998 303.71 138.46 303.05 138.784C302.39 139.096 301.67 139.252 300.89 139.252C299.99 139.252 299.198 139.054 298.514 138.658C297.842 138.25 297.32 137.68 296.948 136.948C296.576 136.216 296.39 135.37 296.39 134.41C296.39 133.474 296.57 132.646 296.93 131.926C297.29 131.194 297.794 130.63 298.442 130.234C299.102 129.838 299.864 129.64 300.728 129.64C301.52 129.64 302.216 129.82 302.816 130.18C303.416 130.54 303.878 131.056 304.202 131.728C304.526 132.388 304.688 133.162 304.688 134.05ZM303.086 133.546C303.062 132.718 302.84 132.064 302.42 131.584C302.012 131.092 301.436 130.846 300.692 130.846C299.96 130.846 299.36 131.086 298.892 131.566C298.424 132.034 298.136 132.694 298.028 133.546H303.086ZM318.297 129.892H319.881V139H318.297V134.95H313.563V139H311.979V129.892H313.563V133.762H318.297V129.892ZM325.148 139.252C324.224 139.252 323.474 139 322.898 138.496C322.334 137.98 322.052 137.308 322.052 136.48C322.052 135.544 322.424 134.812 323.168 134.284C323.924 133.756 324.974 133.492 326.318 133.492C326.918 133.492 327.518 133.534 328.118 133.618V133.06C328.118 132.4 327.914 131.872 327.506 131.476C327.11 131.068 326.576 130.864 325.904 130.864C325.448 130.864 324.98 130.972 324.5 131.188C324.032 131.404 323.612 131.692 323.24 132.052L322.394 130.99C322.874 130.558 323.426 130.228 324.05 130C324.686 129.76 325.346 129.64 326.03 129.64C326.75 129.64 327.386 129.778 327.938 130.054C328.502 130.33 328.934 130.714 329.234 131.206C329.546 131.698 329.702 132.268 329.702 132.916V139H328.334L328.208 137.65C327.896 138.166 327.476 138.562 326.948 138.838C326.42 139.114 325.82 139.252 325.148 139.252ZM325.508 138.082C325.988 138.082 326.426 137.968 326.822 137.74C327.23 137.5 327.548 137.182 327.776 136.786C328.004 136.378 328.118 135.928 328.118 135.436V134.752C327.542 134.668 327.02 134.626 326.552 134.626C325.604 134.626 324.878 134.782 324.374 135.094C323.882 135.394 323.636 135.838 323.636 136.426C323.636 136.93 323.804 137.332 324.14 137.632C324.488 137.932 324.944 138.082 325.508 138.082ZM75.472 155.162C76.24 155.162 76.924 155.348 77.524 155.72C78.136 156.092 78.61 156.614 78.946 157.286C79.294 157.946 79.468 158.702 79.468 159.554C79.468 160.466 79.282 161.282 78.91 162.002C78.55 162.71 78.046 163.262 77.398 163.658C76.75 164.054 76.006 164.252 75.166 164.252C73.762 164.252 72.7 163.76 71.98 162.776C71.26 161.792 70.9 160.358 70.9 158.474C70.9 156.926 71.056 155.666 71.368 154.694C71.68 153.71 72.19 152.936 72.898 152.372C73.618 151.808 74.596 151.412 75.832 151.184C76.528 151.052 77.074 150.92 77.47 150.788C77.878 150.644 78.202 150.476 78.442 150.284L78.928 151.562C78.64 151.766 78.286 151.946 77.866 152.102C77.446 152.246 76.9 152.378 76.228 152.498C74.824 152.738 73.804 153.224 73.168 153.956C72.544 154.676 72.196 155.714 72.124 157.07C72.436 156.47 72.886 156.002 73.474 155.666C74.062 155.33 74.728 155.162 75.472 155.162ZM75.22 163.028C76 163.028 76.618 162.722 77.074 162.11C77.542 161.498 77.782 160.682 77.794 159.662C77.794 158.654 77.566 157.856 77.11 157.268C76.654 156.68 76.018 156.386 75.202 156.386C74.386 156.386 73.744 156.668 73.276 157.232C72.808 157.784 72.574 158.552 72.574 159.536C72.574 160.592 72.814 161.438 73.294 162.074C73.786 162.71 74.428 163.028 75.22 163.028ZM85.5032 164.252C84.6392 164.252 83.8712 164.054 83.1992 163.658C82.5392 163.25 82.0232 162.686 81.6512 161.966C81.2792 161.234 81.0932 160.394 81.0932 159.446C81.0932 158.51 81.2792 157.676 81.6512 156.944C82.0232 156.212 82.5392 155.648 83.1992 155.252C83.8712 154.844 84.6452 154.64 85.5212 154.64C86.3852 154.64 87.1532 154.844 87.8252 155.252C88.4972 155.648 89.0192 156.212 89.3912 156.944C89.7632 157.664 89.9492 158.492 89.9492 159.428C89.9492 160.376 89.7632 161.216 89.3912 161.948C89.0192 162.68 88.4972 163.25 87.8252 163.658C87.1532 164.054 86.3792 164.252 85.5032 164.252ZM85.5032 163.028C86.3432 163.028 87.0092 162.698 87.5012 162.038C88.0052 161.378 88.2572 160.502 88.2572 159.41C88.2572 158.342 88.0052 157.484 87.5012 156.836C86.9972 156.188 86.3312 155.864 85.5032 155.864C84.6752 155.864 84.0092 156.194 83.5052 156.854C83.0132 157.502 82.7672 158.366 82.7672 159.446C82.7672 160.526 83.0132 161.396 83.5052 162.056C84.0092 162.704 84.6752 163.028 85.5032 163.028ZM90.8042 162.614H91.0202C91.5962 162.614 92.0702 162.326 92.4422 161.75C92.8142 161.162 93.0002 160.082 93.0002 158.51V154.892H98.8682V164H97.2842V156.116H94.4402V158.69C94.4402 160.166 94.1942 161.42 93.7022 162.452C93.2102 163.484 92.3582 164 91.1462 164H90.8042V162.614ZM109.413 159.05C109.413 159.242 109.401 159.458 109.377 159.698H102.699C102.759 160.73 103.047 161.546 103.563 162.146C104.079 162.734 104.769 163.028 105.633 163.028C106.149 163.028 106.647 162.902 107.127 162.65C107.607 162.386 108.009 162.014 108.333 161.534L109.359 162.398C108.963 162.998 108.435 163.46 107.775 163.784C107.115 164.096 106.395 164.252 105.615 164.252C104.715 164.252 103.923 164.054 103.239 163.658C102.567 163.25 102.045 162.68 101.673 161.948C101.301 161.216 101.115 160.37 101.115 159.41C101.115 158.474 101.295 157.646 101.655 156.926C102.015 156.194 102.519 155.63 103.167 155.234C103.827 154.838 104.589 154.64 105.453 154.64C106.245 154.64 106.941 154.82 107.541 155.18C108.141 155.54 108.603 156.056 108.927 156.728C109.251 157.388 109.413 158.162 109.413 159.05ZM107.811 158.546C107.787 157.718 107.565 157.064 107.145 156.584C106.737 156.092 106.161 155.846 105.417 155.846C104.685 155.846 104.085 156.086 103.617 156.566C103.149 157.034 102.861 157.694 102.753 158.546H107.811ZM119.327 159.05C119.327 159.242 119.315 159.458 119.291 159.698H112.613C112.673 160.73 112.961 161.546 113.477 162.146C113.993 162.734 114.683 163.028 115.547 163.028C116.063 163.028 116.561 162.902 117.041 162.65C117.521 162.386 117.923 162.014 118.247 161.534L119.273 162.398C118.877 162.998 118.349 163.46 117.689 163.784C117.029 164.096 116.309 164.252 115.529 164.252C114.629 164.252 113.837 164.054 113.153 163.658C112.481 163.25 111.959 162.68 111.587 161.948C111.215 161.216 111.029 160.37 111.029 159.41C111.029 158.474 111.209 157.646 111.569 156.926C111.929 156.194 112.433 155.63 113.081 155.234C113.741 154.838 114.503 154.64 115.367 154.64C116.159 154.64 116.855 154.82 117.455 155.18C118.055 155.54 118.517 156.056 118.841 156.728C119.165 157.388 119.327 158.162 119.327 159.05ZM117.725 158.546C117.701 157.718 117.479 157.064 117.059 156.584C116.651 156.092 116.075 155.846 115.331 155.846C114.599 155.846 113.999 156.086 113.531 156.566C113.063 157.034 112.775 157.694 112.667 158.546H117.725ZM133.494 154.892V164H131.892V160.76C131.076 160.928 130.332 161.012 129.66 161.012C128.532 161.012 127.674 160.742 127.086 160.202C126.498 159.65 126.204 158.858 126.204 157.826V154.892H127.806V157.826C127.806 159.134 128.532 159.788 129.984 159.788C130.572 159.788 131.208 159.722 131.892 159.59V154.892H133.494ZM144.042 159.05C144.042 159.242 144.03 159.458 144.006 159.698H137.328C137.388 160.73 137.676 161.546 138.192 162.146C138.708 162.734 139.398 163.028 140.262 163.028C140.778 163.028 141.276 162.902 141.756 162.65C142.236 162.386 142.638 162.014 142.962 161.534L143.988 162.398C143.592 162.998 143.064 163.46 142.404 163.784C141.744 164.096 141.024 164.252 140.244 164.252C139.344 164.252 138.552 164.054 137.868 163.658C137.196 163.25 136.674 162.68 136.302 161.948C135.93 161.216 135.744 160.37 135.744 159.41C135.744 158.474 135.924 157.646 136.284 156.926C136.644 156.194 137.148 155.63 137.796 155.234C138.456 154.838 139.218 154.64 140.082 154.64C140.874 154.64 141.57 154.82 142.17 155.18C142.77 155.54 143.232 156.056 143.556 156.728C143.88 157.388 144.042 158.162 144.042 159.05ZM142.44 158.546C142.416 157.718 142.194 157.064 141.774 156.584C141.366 156.092 140.79 155.846 140.046 155.846C139.314 155.846 138.714 156.086 138.246 156.566C137.778 157.034 137.49 157.694 137.382 158.546H142.44ZM153.884 154.892H156.134V164H154.586V156.764L151.796 164H150.518L147.764 156.8V164H146.288V154.892H148.52L151.166 162.128L153.884 154.892ZM167.119 159.284C167.815 158.564 168.343 157.994 168.703 157.574C169.075 157.142 169.411 156.638 169.711 156.062C170.011 155.474 170.161 154.868 170.161 154.244C170.161 153.596 169.957 153.068 169.549 152.66C169.153 152.24 168.625 152.03 167.965 152.03C167.317 152.03 166.735 152.24 166.219 152.66C165.715 153.08 165.343 153.662 165.103 154.406L163.753 153.722C164.089 152.786 164.641 152.048 165.409 151.508C166.177 150.968 167.059 150.698 168.055 150.698C168.799 150.698 169.459 150.848 170.035 151.148C170.611 151.436 171.055 151.844 171.367 152.372C171.691 152.9 171.853 153.494 171.853 154.154C171.853 155.726 170.947 157.448 169.135 159.32L165.895 162.65H172.159V164H163.789V162.758L167.119 159.284ZM180.288 161.084H174.06V159.824L180.216 150.95H181.908V159.698H183.6V161.084H181.908V164H180.288V161.084ZM180.288 159.698V153.182L175.824 159.698H180.288ZM197.566 154.892V164H195.964V160.76C195.148 160.928 194.404 161.012 193.732 161.012C192.604 161.012 191.746 160.742 191.158 160.202C190.57 159.65 190.276 158.858 190.276 157.826V154.892H191.878V157.826C191.878 159.134 192.604 159.788 194.056 159.788C194.644 159.788 195.28 159.722 195.964 159.59V154.892H197.566ZM202.84 164.252C201.916 164.252 201.166 164 200.59 163.496C200.026 162.98 199.744 162.308 199.744 161.48C199.744 160.544 200.116 159.812 200.86 159.284C201.616 158.756 202.666 158.492 204.01 158.492C204.61 158.492 205.21 158.534 205.81 158.618V158.06C205.81 157.4 205.606 156.872 205.198 156.476C204.802 156.068 204.268 155.864 203.596 155.864C203.14 155.864 202.672 155.972 202.192 156.188C201.724 156.404 201.304 156.692 200.932 157.052L200.086 155.99C200.566 155.558 201.118 155.228 201.742 155C202.378 154.76 203.038 154.64 203.722 154.64C204.442 154.64 205.078 154.778 205.63 155.054C206.194 155.33 206.626 155.714 206.926 156.206C207.238 156.698 207.394 157.268 207.394 157.916V164H206.026L205.9 162.65C205.588 163.166 205.168 163.562 204.64 163.838C204.112 164.114 203.512 164.252 202.84 164.252ZM203.2 163.082C203.68 163.082 204.118 162.968 204.514 162.74C204.922 162.5 205.24 162.182 205.468 161.786C205.696 161.378 205.81 160.928 205.81 160.436V159.752C205.234 159.668 204.712 159.626 204.244 159.626C203.296 159.626 202.57 159.782 202.066 160.094C201.574 160.394 201.328 160.838 201.328 161.426C201.328 161.93 201.496 162.332 201.832 162.632C202.18 162.932 202.636 163.082 203.2 163.082ZM214.178 164.252C213.278 164.252 212.48 164.048 211.784 163.64C211.1 163.232 210.566 162.662 210.182 161.93C209.81 161.198 209.624 160.364 209.624 159.428C209.624 158.492 209.816 157.664 210.2 156.944C210.584 156.212 211.118 155.648 211.802 155.252C212.486 154.844 213.272 154.64 214.16 154.64C214.952 154.64 215.66 154.808 216.284 155.144C216.908 155.48 217.394 155.954 217.742 156.566L216.644 157.34C215.996 156.356 215.18 155.864 214.196 155.864C213.332 155.864 212.63 156.194 212.09 156.854C211.562 157.502 211.298 158.348 211.298 159.392C211.298 160.1 211.418 160.73 211.658 161.282C211.91 161.834 212.252 162.266 212.684 162.578C213.128 162.878 213.638 163.028 214.214 163.028C215.222 163.028 216.038 162.53 216.662 161.534L217.76 162.326C217.412 162.95 216.926 163.43 216.302 163.766C215.69 164.09 214.982 164.252 214.178 164.252ZM222.035 164.252C221.111 164.252 220.361 164 219.785 163.496C219.221 162.98 218.939 162.308 218.939 161.48C218.939 160.544 219.311 159.812 220.055 159.284C220.811 158.756 221.861 158.492 223.205 158.492C223.805 158.492 224.405 158.534 225.005 158.618V158.06C225.005 157.4 224.801 156.872 224.393 156.476C223.997 156.068 223.463 155.864 222.791 155.864C222.335 155.864 221.867 155.972 221.387 156.188C220.919 156.404 220.499 156.692 220.127 157.052L219.281 155.99C219.761 155.558 220.313 155.228 220.937 155C221.573 154.76 222.233 154.64 222.917 154.64C223.637 154.64 224.273 154.778 224.825 155.054C225.389 155.33 225.821 155.714 226.121 156.206C226.433 156.698 226.589 157.268 226.589 157.916V164H225.221L225.095 162.65C224.783 163.166 224.363 163.562 223.835 163.838C223.307 164.114 222.707 164.252 222.035 164.252ZM222.395 163.082C222.875 163.082 223.313 162.968 223.709 162.74C224.117 162.5 224.435 162.182 224.663 161.786C224.891 161.378 225.005 160.928 225.005 160.436V159.752C224.429 159.668 223.907 159.626 223.439 159.626C222.491 159.626 221.765 159.782 221.261 160.094C220.769 160.394 220.523 160.838 220.523 161.426C220.523 161.93 220.691 162.332 221.027 162.632C221.375 162.932 221.831 163.082 222.395 163.082ZM229.846 161.93H231.592L230.08 166.304H228.874L229.846 161.93ZM246.416 154.892V156.098H243.194V164H241.592V156.098H238.352V154.892H246.416ZM251.599 164.252C250.735 164.252 249.967 164.054 249.295 163.658C248.635 163.25 248.119 162.686 247.747 161.966C247.375 161.234 247.189 160.394 247.189 159.446C247.189 158.51 247.375 157.676 247.747 156.944C248.119 156.212 248.635 155.648 249.295 155.252C249.967 154.844 250.741 154.64 251.617 154.64C252.481 154.64 253.249 154.844 253.921 155.252C254.593 155.648 255.115 156.212 255.487 156.944C255.859 157.664 256.045 158.492 256.045 159.428C256.045 160.376 255.859 161.216 255.487 161.948C255.115 162.68 254.593 163.25 253.921 163.658C253.249 164.054 252.475 164.252 251.599 164.252ZM251.599 163.028C252.439 163.028 253.105 162.698 253.597 162.038C254.101 161.378 254.353 160.502 254.353 159.41C254.353 158.342 254.101 157.484 253.597 156.836C253.093 156.188 252.427 155.864 251.599 155.864C250.771 155.864 250.105 156.194 249.601 156.854C249.109 157.502 248.863 158.366 248.863 159.446C248.863 160.526 249.109 161.396 249.601 162.056C250.105 162.704 250.771 163.028 251.599 163.028ZM79.054 179.892L74.95 190.242C74.614 191.082 74.218 191.694 73.762 192.078C73.318 192.474 72.778 192.672 72.142 192.672C71.662 192.672 71.17 192.552 70.666 192.312L71.062 191.088C71.206 191.196 71.368 191.28 71.548 191.34C71.728 191.412 71.89 191.448 72.034 191.448C72.466 191.448 72.826 191.298 73.114 190.998C73.414 190.698 73.678 190.2 73.906 189.504L73.978 189.324L70.198 179.892H71.908L74.68 187.434L77.488 179.892H79.054ZM84.3992 189.252C83.4992 189.252 82.7012 189.048 82.0052 188.64C81.3212 188.232 80.7872 187.662 80.4032 186.93C80.0312 186.198 79.8452 185.364 79.8452 184.428C79.8452 183.492 80.0372 182.664 80.4212 181.944C80.8052 181.212 81.3392 180.648 82.0232 180.252C82.7072 179.844 83.4932 179.64 84.3812 179.64C85.1732 179.64 85.8812 179.808 86.5052 180.144C87.1292 180.48 87.6152 180.954 87.9632 181.566L86.8652 182.34C86.2172 181.356 85.4012 180.864 84.4172 180.864C83.5532 180.864 82.8512 181.194 82.3112 181.854C81.7832 182.502 81.5192 183.348 81.5192 184.392C81.5192 185.1 81.6392 185.73 81.8792 186.282C82.1312 186.834 82.4732 187.266 82.9052 187.578C83.3492 187.878 83.8592 188.028 84.4352 188.028C85.4432 188.028 86.2592 187.53 86.8832 186.534L87.9812 187.326C87.6332 187.95 87.1472 188.43 86.5232 188.766C85.9112 189.09 85.2032 189.252 84.3992 189.252ZM96.7379 179.892V181.098H93.5159V189H91.9139V181.098H88.6739V179.892H96.7379ZM103.12 179.64C103.9 179.64 104.59 179.844 105.19 180.252C105.79 180.648 106.252 181.206 106.576 181.926C106.912 182.646 107.08 183.48 107.08 184.428C107.08 185.388 106.906 186.234 106.558 186.966C106.222 187.686 105.748 188.25 105.136 188.658C104.536 189.054 103.846 189.252 103.066 189.252C102.418 189.252 101.824 189.108 101.284 188.82C100.756 188.52 100.336 188.106 100.024 187.578V192.42H98.44V179.892H99.808L99.97 181.548C100.27 180.96 100.696 180.498 101.248 180.162C101.812 179.814 102.436 179.64 103.12 179.64ZM102.742 188.028C103.558 188.028 104.206 187.71 104.686 187.074C105.166 186.426 105.406 185.556 105.406 184.464C105.406 183.36 105.16 182.484 104.668 181.836C104.188 181.188 103.54 180.864 102.724 180.864C101.908 180.864 101.254 181.194 100.762 181.854C100.27 182.514 100.024 183.39 100.024 184.482C100.024 185.55 100.27 186.408 100.762 187.056C101.254 187.704 101.914 188.028 102.742 188.028ZM113.118 189.252C112.254 189.252 111.486 189.054 110.814 188.658C110.154 188.25 109.638 187.686 109.266 186.966C108.894 186.234 108.708 185.394 108.708 184.446C108.708 183.51 108.894 182.676 109.266 181.944C109.638 181.212 110.154 180.648 110.814 180.252C111.486 179.844 112.26 179.64 113.136 179.64C114 179.64 114.768 179.844 115.44 180.252C116.112 180.648 116.634 181.212 117.006 181.944C117.378 182.664 117.564 183.492 117.564 184.428C117.564 185.376 117.378 186.216 117.006 186.948C116.634 187.68 116.112 188.25 115.44 188.658C114.768 189.054 113.994 189.252 113.118 189.252ZM113.118 188.028C113.958 188.028 114.624 187.698 115.116 187.038C115.62 186.378 115.872 185.502 115.872 184.41C115.872 183.342 115.62 182.484 115.116 181.836C114.612 181.188 113.946 180.864 113.118 180.864C112.29 180.864 111.624 181.194 111.12 181.854C110.628 182.502 110.382 183.366 110.382 184.446C110.382 185.526 110.628 186.396 111.12 187.056C111.624 187.704 112.29 188.028 113.118 188.028ZM126.259 179.892H127.843V189H126.295V181.872L121.417 189H119.815V179.892H121.381V187.02L126.259 179.892ZM123.811 178.56C122.995 178.56 122.329 178.32 121.813 177.84C121.309 177.36 121.045 176.73 121.021 175.95H122.281C122.305 176.406 122.455 176.76 122.731 177.012C123.007 177.264 123.373 177.39 123.829 177.39C124.297 177.39 124.663 177.264 124.927 177.012C125.203 176.748 125.353 176.394 125.377 175.95H126.637C126.613 176.73 126.343 177.36 125.827 177.84C125.311 178.32 124.639 178.56 123.811 178.56ZM134.655 189.252C133.755 189.252 132.957 189.048 132.261 188.64C131.577 188.232 131.043 187.662 130.659 186.93C130.287 186.198 130.101 185.364 130.101 184.428C130.101 183.492 130.293 182.664 130.677 181.944C131.061 181.212 131.595 180.648 132.279 180.252C132.963 179.844 133.749 179.64 134.637 179.64C135.429 179.64 136.137 179.808 136.761 180.144C137.385 180.48 137.871 180.954 138.219 181.566L137.121 182.34C136.473 181.356 135.657 180.864 134.673 180.864C133.809 180.864 133.107 181.194 132.567 181.854C132.039 182.502 131.775 183.348 131.775 184.392C131.775 185.1 131.895 185.73 132.135 186.282C132.387 186.834 132.729 187.266 133.161 187.578C133.605 187.878 134.115 188.028 134.691 188.028C135.699 188.028 136.515 187.53 137.139 186.534L138.237 187.326C137.889 187.95 137.403 188.43 136.779 188.766C136.167 189.09 135.459 189.252 134.655 189.252ZM146.994 179.892V181.098H143.772V189H142.17V181.098H138.93V179.892H146.994ZM154.276 184.248C154.948 184.38 155.464 184.638 155.824 185.022C156.184 185.406 156.364 185.874 156.364 186.426C156.364 187.218 156.016 187.848 155.32 188.316C154.636 188.772 153.688 189 152.476 189H148.696V179.892H152.476C153.58 179.892 154.444 180.102 155.068 180.522C155.704 180.942 156.022 181.518 156.022 182.25C156.022 182.73 155.872 183.15 155.572 183.51C155.272 183.858 154.84 184.104 154.276 184.248ZM150.298 181.098V183.69H152.494C153.106 183.69 153.574 183.582 153.898 183.366C154.222 183.138 154.384 182.814 154.384 182.394C154.384 181.986 154.216 181.668 153.88 181.44C153.556 181.212 153.094 181.098 152.494 181.098H150.298ZM152.512 187.794C153.196 187.794 153.73 187.668 154.114 187.416C154.498 187.152 154.69 186.786 154.69 186.318C154.69 185.85 154.492 185.496 154.096 185.256C153.712 185.016 153.184 184.896 152.512 184.896H150.298V187.794H152.512ZM162.337 189.252C161.473 189.252 160.705 189.054 160.033 188.658C159.373 188.25 158.857 187.686 158.485 186.966C158.113 186.234 157.927 185.394 157.927 184.446C157.927 183.51 158.113 182.676 158.485 181.944C158.857 181.212 159.373 180.648 160.033 180.252C160.705 179.844 161.479 179.64 162.355 179.64C163.219 179.64 163.987 179.844 164.659 180.252C165.331 180.648 165.853 181.212 166.225 181.944C166.597 182.664 166.783 183.492 166.783 184.428C166.783 185.376 166.597 186.216 166.225 186.948C165.853 187.68 165.331 188.25 164.659 188.658C163.987 189.054 163.213 189.252 162.337 189.252ZM162.337 188.028C163.177 188.028 163.843 187.698 164.335 187.038C164.839 186.378 165.091 185.502 165.091 184.41C165.091 183.342 164.839 182.484 164.335 181.836C163.831 181.188 163.165 180.864 162.337 180.864C161.509 180.864 160.843 181.194 160.339 181.854C159.847 182.502 159.601 183.366 159.601 184.446C159.601 185.526 159.847 186.396 160.339 187.056C160.843 187.704 161.509 188.028 162.337 188.028ZM180.397 179.892H181.981V189H180.397V184.95H175.663V189H174.079V179.892H175.663V183.762H180.397V179.892ZM192.522 184.05C192.522 184.242 192.51 184.458 192.486 184.698H185.808C185.868 185.73 186.156 186.546 186.672 187.146C187.188 187.734 187.878 188.028 188.742 188.028C189.258 188.028 189.756 187.902 190.236 187.65C190.716 187.386 191.118 187.014 191.442 186.534L192.468 187.398C192.072 187.998 191.544 188.46 190.884 188.784C190.224 189.096 189.504 189.252 188.724 189.252C187.824 189.252 187.032 189.054 186.348 188.658C185.676 188.25 185.154 187.68 184.782 186.948C184.41 186.216 184.224 185.37 184.224 184.41C184.224 183.474 184.404 182.646 184.764 181.926C185.124 181.194 185.628 180.63 186.276 180.234C186.936 179.838 187.698 179.64 188.562 179.64C189.354 179.64 190.05 179.82 190.65 180.18C191.25 180.54 191.712 181.056 192.036 181.728C192.36 182.388 192.522 183.162 192.522 184.05ZM190.92 183.546C190.896 182.718 190.674 182.064 190.254 181.584C189.846 181.092 189.27 180.846 188.526 180.846C187.794 180.846 187.194 181.086 186.726 181.566C186.258 182.034 185.97 182.694 185.862 183.546H190.92ZM198.548 189.252C197.684 189.252 196.916 189.054 196.244 188.658C195.584 188.25 195.068 187.686 194.696 186.966C194.324 186.234 194.138 185.394 194.138 184.446C194.138 183.51 194.324 182.676 194.696 181.944C195.068 181.212 195.584 180.648 196.244 180.252C196.916 179.844 197.69 179.64 198.566 179.64C199.43 179.64 200.198 179.844 200.87 180.252C201.542 180.648 202.064 181.212 202.436 181.944C202.808 182.664 202.994 183.492 202.994 184.428C202.994 185.376 202.808 186.216 202.436 186.948C202.064 187.68 201.542 188.25 200.87 188.658C200.198 189.054 199.424 189.252 198.548 189.252ZM198.548 188.028C199.388 188.028 200.054 187.698 200.546 187.038C201.05 186.378 201.302 185.502 201.302 184.41C201.302 183.342 201.05 182.484 200.546 181.836C200.042 181.188 199.376 180.864 198.548 180.864C197.72 180.864 197.054 181.194 196.55 181.854C196.058 182.502 195.812 183.366 195.812 184.446C195.812 185.526 196.058 186.396 196.55 187.056C197.054 187.704 197.72 188.028 198.548 188.028ZM209.277 180.162C210.045 180.162 210.729 180.348 211.329 180.72C211.941 181.092 212.415 181.614 212.751 182.286C213.099 182.946 213.273 183.702 213.273 184.554C213.273 185.466 213.087 186.282 212.715 187.002C212.355 187.71 211.851 188.262 211.203 188.658C210.555 189.054 209.811 189.252 208.971 189.252C207.567 189.252 206.505 188.76 205.785 187.776C205.065 186.792 204.705 185.358 204.705 183.474C204.705 181.926 204.861 180.666 205.173 179.694C205.485 178.71 205.995 177.936 206.703 177.372C207.423 176.808 208.401 176.412 209.637 176.184C210.333 176.052 210.879 175.92 211.275 175.788C211.683 175.644 212.007 175.476 212.247 175.284L212.733 176.562C212.445 176.766 212.091 176.946 211.671 177.102C211.251 177.246 210.705 177.378 210.033 177.498C208.629 177.738 207.609 178.224 206.973 178.956C206.349 179.676 206.001 180.714 205.929 182.07C206.241 181.47 206.691 181.002 207.279 180.666C207.867 180.33 208.533 180.162 209.277 180.162ZM209.025 188.028C209.805 188.028 210.423 187.722 210.879 187.11C211.347 186.498 211.587 185.682 211.599 184.662C211.599 183.654 211.371 182.856 210.915 182.268C210.459 181.68 209.823 181.386 209.007 181.386C208.191 181.386 207.549 181.668 207.081 182.232C206.613 182.784 206.379 183.552 206.379 184.536C206.379 185.592 206.619 186.438 207.099 187.074C207.591 187.71 208.233 188.028 209.025 188.028ZM223.088 189H221.18L218.588 185.31L216.014 189H214.304L217.742 184.284L214.52 179.892H216.374L218.732 183.24L221.126 179.892H222.854L219.578 184.248L223.088 189ZM228.167 189.252C227.303 189.252 226.535 189.054 225.863 188.658C225.203 188.25 224.687 187.686 224.315 186.966C223.943 186.234 223.757 185.394 223.757 184.446C223.757 183.51 223.943 182.676 224.315 181.944C224.687 181.212 225.203 180.648 225.863 180.252C226.535 179.844 227.309 179.64 228.185 179.64C229.049 179.64 229.817 179.844 230.489 180.252C231.161 180.648 231.683 181.212 232.055 181.944C232.427 182.664 232.613 183.492 232.613 184.428C232.613 185.376 232.427 186.216 232.055 186.948C231.683 187.68 231.161 188.25 230.489 188.658C229.817 189.054 229.043 189.252 228.167 189.252ZM228.167 188.028C229.007 188.028 229.673 187.698 230.165 187.038C230.669 186.378 230.921 185.502 230.921 184.41C230.921 183.342 230.669 182.484 230.165 181.836C229.661 181.188 228.995 180.864 228.167 180.864C227.339 180.864 226.673 181.194 226.169 181.854C225.677 182.502 225.431 183.366 225.431 184.446C225.431 185.526 225.677 186.396 226.169 187.056C226.673 187.704 227.339 188.028 228.167 188.028ZM243.19 187.776V191.088H241.696V189H234.856V191.088H233.344V187.776H234.298C234.886 187.2 235.294 186.528 235.522 185.76C235.762 184.992 235.882 183.972 235.882 182.7V179.892H241.876V187.776H243.19ZM237.322 182.862C237.322 183.99 237.214 184.95 236.998 185.742C236.782 186.534 236.464 187.212 236.044 187.776H240.292V181.116H237.322V182.862ZM251.415 179.892H252.999V189H251.451V181.872L246.573 189H244.971V179.892H246.537V187.02L251.415 179.892ZM263.483 179.892H265.733V189H264.185V181.764L261.395 189H260.117L257.363 181.8V189H255.887V179.892H258.119L260.765 187.128L263.483 179.892ZM272.394 189.252C271.53 189.252 270.762 189.054 270.09 188.658C269.43 188.25 268.914 187.686 268.542 186.966C268.17 186.234 267.984 185.394 267.984 184.446C267.984 183.51 268.17 182.676 268.542 181.944C268.914 181.212 269.43 180.648 270.09 180.252C270.762 179.844 271.536 179.64 272.412 179.64C273.276 179.64 274.044 179.844 274.716 180.252C275.388 180.648 275.91 181.212 276.282 181.944C276.654 182.664 276.84 183.492 276.84 184.428C276.84 185.376 276.654 186.216 276.282 186.948C275.91 187.68 275.388 188.25 274.716 188.658C274.044 189.054 273.27 189.252 272.394 189.252ZM272.394 188.028C273.234 188.028 273.9 187.698 274.392 187.038C274.896 186.378 275.148 185.502 275.148 184.41C275.148 183.342 274.896 182.484 274.392 181.836C273.888 181.188 273.222 180.864 272.394 180.864C271.566 180.864 270.9 181.194 270.396 181.854C269.904 182.502 269.658 183.366 269.658 184.446C269.658 185.526 269.904 186.396 270.396 187.056C270.9 187.704 271.566 188.028 272.394 188.028ZM77.02 209.248C77.692 209.38 78.208 209.638 78.568 210.022C78.928 210.406 79.108 210.874 79.108 211.426C79.108 212.218 78.76 212.848 78.064 213.316C77.38 213.772 76.432 214 75.22 214H71.44V204.892H75.22C76.324 204.892 77.188 205.102 77.812 205.522C78.448 205.942 78.766 206.518 78.766 207.25C78.766 207.73 78.616 208.15 78.316 208.51C78.016 208.858 77.584 209.104 77.02 209.248ZM73.042 206.098V208.69H75.238C75.85 208.69 76.318 208.582 76.642 208.366C76.966 208.138 77.128 207.814 77.128 207.394C77.128 206.986 76.96 206.668 76.624 206.44C76.3 206.212 75.838 206.098 75.238 206.098H73.042ZM75.256 212.794C75.94 212.794 76.474 212.668 76.858 212.416C77.242 212.152 77.434 211.786 77.434 211.318C77.434 210.85 77.236 210.496 76.84 210.256C76.456 210.016 75.928 209.896 75.256 209.896H73.042V212.794H75.256ZM84.7033 208.258C85.8073 208.258 86.6713 208.516 87.2953 209.032C87.9313 209.548 88.2493 210.25 88.2493 211.138C88.2493 212.014 87.9373 212.71 87.3133 213.226C86.7013 213.742 85.8613 214 84.7933 214H81.3013V204.892H82.8853V208.258H84.7033ZM84.5953 212.776C85.2073 212.776 85.6873 212.632 86.0353 212.344C86.3953 212.056 86.5753 211.654 86.5753 211.138C86.5753 210.622 86.4013 210.22 86.0533 209.932C85.7053 209.632 85.2193 209.482 84.5953 209.482H82.8853V212.776H84.5953ZM90.3193 204.892H91.9213V214H90.3193V204.892ZM100.995 214L97.935 209.968H96.315V214H94.731V204.892H96.315V208.78H97.899L100.743 204.892H102.615L99.285 209.266L102.921 214H100.995ZM103.601 212.614H103.817C104.393 212.614 104.867 212.326 105.239 211.75C105.611 211.162 105.797 210.082 105.797 208.51V204.892H111.665V214H110.081V206.116H107.237V208.69C107.237 210.166 106.991 211.42 106.499 212.452C106.007 213.484 105.155 214 103.943 214H103.601V212.614ZM121.976 204.64C122.828 204.64 123.578 204.844 124.226 205.252C124.886 205.648 125.396 206.212 125.756 206.944C126.128 207.664 126.314 208.492 126.314 209.428C126.314 210.376 126.134 211.216 125.774 211.948C125.414 212.68 124.904 213.25 124.244 213.658C123.584 214.054 122.828 214.252 121.976 214.252C120.752 214.252 119.75 213.868 118.97 213.1C118.202 212.32 117.77 211.282 117.674 209.986H116.126V214H114.542V204.892H116.126V208.762H117.692C117.824 207.514 118.268 206.518 119.024 205.774C119.792 205.018 120.776 204.64 121.976 204.64ZM121.976 213.046C122.78 213.046 123.422 212.716 123.902 212.056C124.394 211.384 124.64 210.502 124.64 209.41C124.64 208.342 124.394 207.484 123.902 206.836C123.422 206.188 122.78 205.864 121.976 205.864C121.148 205.864 120.5 206.188 120.032 206.836C119.564 207.484 119.33 208.354 119.33 209.446C119.33 210.538 119.564 211.414 120.032 212.074C120.5 212.722 121.148 213.046 121.976 213.046ZM135.269 204.892V214H133.667V210.76C132.851 210.928 132.107 211.012 131.435 211.012C130.307 211.012 129.449 210.742 128.861 210.202C128.273 209.65 127.979 208.858 127.979 207.826V204.892H129.581V207.826C129.581 209.134 130.307 209.788 131.759 209.788C132.347 209.788 132.983 209.722 133.667 209.59V204.892H135.269ZM144.593 204.892H146.177V214H144.629V206.872L139.751 214H138.149V204.892H139.715V212.02L144.593 204.892ZM155.941 204.892V206.098H152.719V214H151.117V206.098H147.877V204.892H155.941ZM161.045 208.258C162.149 208.258 163.013 208.516 163.637 209.032C164.273 209.548 164.591 210.25 164.591 211.138C164.591 212.014 164.279 212.71 163.655 213.226C163.043 213.742 162.203 214 161.135 214H157.643V204.892H159.227V208.258H161.045ZM160.937 212.776C161.549 212.776 162.029 212.632 162.377 212.344C162.737 212.056 162.917 211.654 162.917 211.138C162.917 210.622 162.743 210.22 162.395 209.932C162.047 209.632 161.561 209.482 160.937 209.482H159.227V212.776H160.937ZM167.829 214.252C167.493 214.252 167.223 214.156 167.019 213.964C166.815 213.76 166.713 213.49 166.713 213.154C166.713 212.83 166.815 212.566 167.019 212.362C167.223 212.158 167.493 212.056 167.829 212.056C168.165 212.056 168.435 212.158 168.639 212.362C168.855 212.566 168.963 212.83 168.963 213.154C168.963 213.49 168.855 213.76 168.639 213.964C168.435 214.156 168.165 214.252 167.829 214.252Z" fill="#2F2F2F"/>
<path d="M364 76L352 88" stroke="#2F2F2F" stroke-width="2" stroke-linecap="round" stroke-linejoin="round"/>
<path d="M352 76L364 88" stroke="#2F2F2F" stroke-width="2" stroke-linecap="round" stroke-linejoin="round"/>
<path d="M216.752 267.481C218.348 269.702 221.652 269.702 223.248 267.481L243 240H197L216.752 267.481Z" fill="white"/>
</g>
<defs>
<filter id="filter0_d_2_1777" x="0" y="0" width="440" height="322" filterUnits="userSpaceOnUse" color-interpolation-filters="sRGB">
<feFlood flood-opacity="0" result="BackgroundImageFix"/>
<feColorMatrix in="SourceAlpha" type="matrix" values="0 0 0 0 0 0 0 0 0 0 0 0 0 0 0 0 0 0 127 0" result="hardAlpha"/>
<feOffset/>
<feGaussianBlur stdDeviation="25"/>
<feComposite in2="hardAlpha" operator="out"/>
<feColorMatrix type="matrix" values="0 0 0 0 0 0 0 0 0 0 0 0 0 0 0 0 0 0 0.25 0"/>
<feBlend mode="normal" in2="BackgroundImageFix" result="effect1_dropShadow_2_1777"/>
<feBlend mode="normal" in="SourceGraphic" in2="effect1_dropShadow_2_1777" result="shape"/>
</filter>
</defs>
</svg>
