<svg width="440" height="297" viewBox="0 0 440 297" fill="none" xmlns="http://www.w3.org/2000/svg">
<g filter="url(#filter0_d_2_1797)">
<path d="M216.752 54.519C218.348 52.2984 221.652 52.2984 223.248 54.519L243 82H197L216.752 54.519Z" fill="white"/>
<rect x="50" y="82" width="340" height="165" rx="20" fill="white"/>
<path d="M76.912 121.252C75.712 121.252 74.662 120.976 73.762 120.424C72.862 119.872 72.166 119.086 71.674 118.066C71.182 117.034 70.936 115.84 70.936 114.484C70.936 113.116 71.176 111.922 71.656 110.902C72.148 109.882 72.844 109.096 73.744 108.544C74.644 107.98 75.7 107.698 76.912 107.698C78.112 107.698 79.162 107.974 80.062 108.526C80.962 109.078 81.658 109.87 82.15 110.902C82.642 111.922 82.888 113.116 82.888 114.484C82.888 115.852 82.642 117.046 82.15 118.066C81.658 119.086 80.962 119.872 80.062 120.424C79.162 120.976 78.112 121.252 76.912 121.252ZM76.912 119.92C77.764 119.92 78.508 119.698 79.144 119.254C79.78 118.798 80.266 118.162 80.602 117.346C80.95 116.518 81.124 115.564 81.124 114.484C81.124 113.392 80.95 112.438 80.602 111.622C80.254 110.794 79.762 110.158 79.126 109.714C78.49 109.258 77.752 109.03 76.912 109.03C76.072 109.03 75.334 109.258 74.698 109.714C74.062 110.158 73.57 110.794 73.222 111.622C72.874 112.438 72.7 113.392 72.7 114.484C72.7 115.576 72.874 116.53 73.222 117.346C73.57 118.162 74.062 118.798 74.698 119.254C75.334 119.698 76.072 119.92 76.912 119.92ZM89.2884 112.162C90.0564 112.162 90.7404 112.348 91.3404 112.72C91.9524 113.092 92.4264 113.614 92.7624 114.286C93.1104 114.946 93.2844 115.702 93.2844 116.554C93.2844 117.466 93.0984 118.282 92.7264 119.002C92.3664 119.71 91.8624 120.262 91.2144 120.658C90.5664 121.054 89.8224 121.252 88.9824 121.252C87.5784 121.252 86.5164 120.76 85.7964 119.776C85.0764 118.792 84.7164 117.358 84.7164 115.474C84.7164 113.926 84.8724 112.666 85.1844 111.694C85.4964 110.71 86.0064 109.936 86.7144 109.372C87.4344 108.808 88.4124 108.412 89.6484 108.184C90.3444 108.052 90.8904 107.92 91.2864 107.788C91.6944 107.644 92.0184 107.476 92.2584 107.284L92.7444 108.562C92.4564 108.766 92.1024 108.946 91.6824 109.102C91.2624 109.246 90.7164 109.378 90.0444 109.498C88.6404 109.738 87.6204 110.224 86.9844 110.956C86.3604 111.676 86.0124 112.714 85.9404 114.07C86.2524 113.47 86.7024 113.002 87.2904 112.666C87.8784 112.33 88.5444 112.162 89.2884 112.162ZM89.0364 120.028C89.8164 120.028 90.4344 119.722 90.8904 119.11C91.3584 118.498 91.5984 117.682 91.6104 116.662C91.6104 115.654 91.3824 114.856 90.9264 114.268C90.4704 113.68 89.8344 113.386 89.0184 113.386C88.2024 113.386 87.5604 113.668 87.0924 114.232C86.6244 114.784 86.3904 115.552 86.3904 116.536C86.3904 117.592 86.6304 118.438 87.1104 119.074C87.6024 119.71 88.2444 120.028 89.0364 120.028ZM102.272 121H100.688V117.58H98.8336L96.4036 121H94.5676L97.1776 117.31C96.5296 117.142 96.0136 116.83 95.6296 116.374C95.2576 115.906 95.0716 115.348 95.0716 114.7C95.0716 113.836 95.3896 113.152 96.0256 112.648C96.6616 112.144 97.5436 111.892 98.6716 111.892H102.272V121ZM100.688 116.356V113.098H98.7976C98.1376 113.098 97.6276 113.242 97.2676 113.53C96.9076 113.806 96.7276 114.202 96.7276 114.718C96.7276 115.234 96.9136 115.636 97.2856 115.924C97.6696 116.212 98.2036 116.356 98.8876 116.356H100.688ZM109.583 116.32C110.267 116.512 110.789 116.806 111.149 117.202C111.509 117.586 111.689 118.048 111.689 118.588C111.689 119.092 111.533 119.548 111.221 119.956C110.909 120.352 110.465 120.664 109.889 120.892C109.313 121.12 108.647 121.234 107.891 121.234C106.307 121.234 105.059 120.7 104.147 119.632L105.173 118.696C105.833 119.572 106.721 120.01 107.837 120.01C108.497 120.01 109.025 119.872 109.421 119.596C109.817 119.32 110.015 118.948 110.015 118.48C110.015 118 109.805 117.628 109.385 117.364C108.977 117.1 108.401 116.968 107.657 116.968H106.685V115.744H107.711C108.335 115.744 108.833 115.612 109.205 115.348C109.589 115.072 109.781 114.718 109.781 114.286C109.781 113.854 109.595 113.512 109.223 113.26C108.851 112.996 108.389 112.864 107.837 112.864C107.357 112.864 106.895 112.972 106.451 113.188C106.019 113.404 105.671 113.71 105.407 114.106L104.399 113.206C104.759 112.714 105.251 112.33 105.875 112.054C106.511 111.778 107.207 111.64 107.963 111.64C108.635 111.64 109.229 111.754 109.745 111.982C110.273 112.198 110.681 112.498 110.969 112.882C111.269 113.266 111.419 113.698 111.419 114.178C111.419 114.67 111.257 115.102 110.933 115.474C110.621 115.846 110.171 116.128 109.583 116.32ZM116.355 121.252C115.431 121.252 114.681 121 114.105 120.496C113.541 119.98 113.259 119.308 113.259 118.48C113.259 117.544 113.631 116.812 114.375 116.284C115.131 115.756 116.181 115.492 117.525 115.492C118.125 115.492 118.725 115.534 119.325 115.618V115.06C119.325 114.4 119.121 113.872 118.713 113.476C118.317 113.068 117.783 112.864 117.111 112.864C116.655 112.864 116.187 112.972 115.707 113.188C115.239 113.404 114.819 113.692 114.447 114.052L113.601 112.99C114.081 112.558 114.633 112.228 115.257 112C115.893 111.76 116.553 111.64 117.237 111.64C117.957 111.64 118.593 111.778 119.145 112.054C119.709 112.33 120.141 112.714 120.441 113.206C120.753 113.698 120.909 114.268 120.909 114.916V121H119.541L119.415 119.65C119.103 120.166 118.683 120.562 118.155 120.838C117.627 121.114 117.027 121.252 116.355 121.252ZM116.715 120.082C117.195 120.082 117.633 119.968 118.029 119.74C118.437 119.5 118.755 119.182 118.983 118.786C119.211 118.378 119.325 117.928 119.325 117.436V116.752C118.749 116.668 118.227 116.626 117.759 116.626C116.811 116.626 116.085 116.782 115.581 117.094C115.089 117.394 114.843 117.838 114.843 118.426C114.843 118.93 115.011 119.332 115.347 119.632C115.695 119.932 116.151 120.082 116.715 120.082ZM130.646 111.892V113.098H127.424V121H125.822V113.098H122.582V111.892H130.646ZM139.717 116.05C139.717 116.242 139.705 116.458 139.681 116.698H133.003C133.063 117.73 133.351 118.546 133.867 119.146C134.383 119.734 135.073 120.028 135.937 120.028C136.453 120.028 136.951 119.902 137.431 119.65C137.911 119.386 138.313 119.014 138.637 118.534L139.663 119.398C139.267 119.998 138.739 120.46 138.079 120.784C137.419 121.096 136.699 121.252 135.919 121.252C135.019 121.252 134.227 121.054 133.543 120.658C132.871 120.25 132.349 119.68 131.977 118.948C131.605 118.216 131.419 117.37 131.419 116.41C131.419 115.474 131.599 114.646 131.959 113.926C132.319 113.194 132.823 112.63 133.471 112.234C134.131 111.838 134.893 111.64 135.757 111.64C136.549 111.64 137.245 111.82 137.845 112.18C138.445 112.54 138.907 113.056 139.231 113.728C139.555 114.388 139.717 115.162 139.717 116.05ZM138.115 115.546C138.091 114.718 137.869 114.064 137.449 113.584C137.041 113.092 136.465 112.846 135.721 112.846C134.989 112.846 134.389 113.086 133.921 113.566C133.453 114.034 133.165 114.694 133.057 115.546H138.115ZM140.919 119.614H141.135C141.711 119.614 142.185 119.326 142.557 118.75C142.929 118.162 143.115 117.082 143.115 115.51V111.892H148.983V121H147.399V113.116H144.555V115.69C144.555 117.166 144.309 118.42 143.817 119.452C143.325 120.484 142.473 121 141.261 121H140.919V119.614ZM155.262 115.258C156.366 115.258 157.23 115.516 157.854 116.032C158.49 116.548 158.808 117.25 158.808 118.138C158.808 119.014 158.496 119.71 157.872 120.226C157.26 120.742 156.42 121 155.352 121H151.86V111.892H153.444V115.258H155.262ZM155.154 119.776C155.766 119.776 156.246 119.632 156.594 119.344C156.954 119.056 157.134 118.654 157.134 118.138C157.134 117.622 156.96 117.22 156.612 116.932C156.264 116.632 155.778 116.482 155.154 116.482H153.444V119.776H155.154ZM167.283 111.892H168.867V121H167.283V116.95H162.549V121H160.965V111.892H162.549V115.762H167.283V111.892ZM175.521 121.252C174.657 121.252 173.889 121.054 173.217 120.658C172.557 120.25 172.041 119.686 171.669 118.966C171.297 118.234 171.111 117.394 171.111 116.446C171.111 115.51 171.297 114.676 171.669 113.944C172.041 113.212 172.557 112.648 173.217 112.252C173.889 111.844 174.663 111.64 175.539 111.64C176.403 111.64 177.171 111.844 177.843 112.252C178.515 112.648 179.037 113.212 179.409 113.944C179.781 114.664 179.967 115.492 179.967 116.428C179.967 117.376 179.781 118.216 179.409 118.948C179.037 119.68 178.515 120.25 177.843 120.658C177.171 121.054 176.397 121.252 175.521 121.252ZM175.521 120.028C176.361 120.028 177.027 119.698 177.519 119.038C178.023 118.378 178.275 117.502 178.275 116.41C178.275 115.342 178.023 114.484 177.519 113.836C177.015 113.188 176.349 112.864 175.521 112.864C174.693 112.864 174.027 113.194 173.523 113.854C173.031 114.502 172.785 115.366 172.785 116.446C172.785 117.526 173.031 118.396 173.523 119.056C174.027 119.704 174.693 120.028 175.521 120.028ZM191.69 116.32C192.374 116.512 192.896 116.806 193.256 117.202C193.616 117.586 193.796 118.048 193.796 118.588C193.796 119.092 193.64 119.548 193.328 119.956C193.016 120.352 192.572 120.664 191.996 120.892C191.42 121.12 190.754 121.234 189.998 121.234C188.414 121.234 187.166 120.7 186.254 119.632L187.28 118.696C187.94 119.572 188.828 120.01 189.944 120.01C190.604 120.01 191.132 119.872 191.528 119.596C191.924 119.32 192.122 118.948 192.122 118.48C192.122 118 191.912 117.628 191.492 117.364C191.084 117.1 190.508 116.968 189.764 116.968H188.792V115.744H189.818C190.442 115.744 190.94 115.612 191.312 115.348C191.696 115.072 191.888 114.718 191.888 114.286C191.888 113.854 191.702 113.512 191.33 113.26C190.958 112.996 190.496 112.864 189.944 112.864C189.464 112.864 189.002 112.972 188.558 113.188C188.126 113.404 187.778 113.71 187.514 114.106L186.506 113.206C186.866 112.714 187.358 112.33 187.982 112.054C188.618 111.778 189.314 111.64 190.07 111.64C190.742 111.64 191.336 111.754 191.852 111.982C192.38 112.198 192.788 112.498 193.076 112.882C193.376 113.266 193.526 113.698 193.526 114.178C193.526 114.67 193.364 115.102 193.04 115.474C192.728 115.846 192.278 116.128 191.69 116.32ZM198.463 121.252C197.539 121.252 196.789 121 196.213 120.496C195.649 119.98 195.367 119.308 195.367 118.48C195.367 117.544 195.739 116.812 196.483 116.284C197.239 115.756 198.289 115.492 199.633 115.492C200.233 115.492 200.833 115.534 201.433 115.618V115.06C201.433 114.4 201.229 113.872 200.821 113.476C200.425 113.068 199.891 112.864 199.219 112.864C198.763 112.864 198.295 112.972 197.815 113.188C197.347 113.404 196.927 113.692 196.555 114.052L195.709 112.99C196.189 112.558 196.741 112.228 197.365 112C198.001 111.76 198.661 111.64 199.345 111.64C200.065 111.64 200.701 111.778 201.253 112.054C201.817 112.33 202.249 112.714 202.549 113.206C202.861 113.698 203.017 114.268 203.017 114.916V121H201.649L201.523 119.65C201.211 120.166 200.791 120.562 200.263 120.838C199.735 121.114 199.135 121.252 198.463 121.252ZM198.823 120.082C199.303 120.082 199.741 119.968 200.137 119.74C200.545 119.5 200.863 119.182 201.091 118.786C201.319 118.378 201.433 117.928 201.433 117.436V116.752C200.857 116.668 200.335 116.626 199.867 116.626C198.919 116.626 198.193 116.782 197.689 117.094C197.197 117.394 196.951 117.838 196.951 118.426C196.951 118.93 197.119 119.332 197.455 119.632C197.803 119.932 198.259 120.082 198.823 120.082ZM213.689 111.892V121H212.088V113.098H207.48V121H205.878V111.892H213.689ZM223.009 111.892H224.593V121H223.045V113.872L218.167 121H216.565V111.892H218.131V119.02L223.009 111.892ZM232.161 111.64C232.941 111.64 233.631 111.844 234.231 112.252C234.831 112.648 235.293 113.206 235.617 113.926C235.953 114.646 236.121 115.48 236.121 116.428C236.121 117.388 235.947 118.234 235.599 118.966C235.263 119.686 234.789 120.25 234.177 120.658C233.577 121.054 232.887 121.252 232.107 121.252C231.459 121.252 230.865 121.108 230.325 120.82C229.797 120.52 229.377 120.106 229.065 119.578V124.42H227.481V111.892H228.849L229.011 113.548C229.311 112.96 229.737 112.498 230.289 112.162C230.853 111.814 231.477 111.64 232.161 111.64ZM231.783 120.028C232.599 120.028 233.247 119.71 233.727 119.074C234.207 118.426 234.447 117.556 234.447 116.464C234.447 115.36 234.201 114.484 233.709 113.836C233.229 113.188 232.581 112.864 231.765 112.864C230.949 112.864 230.295 113.194 229.803 113.854C229.311 114.514 229.065 115.39 229.065 116.482C229.065 117.55 229.311 118.408 229.803 119.056C230.295 119.704 230.955 120.028 231.783 120.028ZM240.773 121.252C239.849 121.252 239.099 121 238.523 120.496C237.959 119.98 237.677 119.308 237.677 118.48C237.677 117.544 238.049 116.812 238.793 116.284C239.549 115.756 240.599 115.492 241.943 115.492C242.543 115.492 243.143 115.534 243.743 115.618V115.06C243.743 114.4 243.539 113.872 243.131 113.476C242.735 113.068 242.201 112.864 241.529 112.864C241.073 112.864 240.605 112.972 240.125 113.188C239.657 113.404 239.237 113.692 238.865 114.052L238.019 112.99C238.499 112.558 239.051 112.228 239.675 112C240.311 111.76 240.971 111.64 241.655 111.64C242.375 111.64 243.011 111.778 243.563 112.054C244.127 112.33 244.559 112.714 244.859 113.206C245.171 113.698 245.327 114.268 245.327 114.916V121H243.959L243.833 119.65C243.521 120.166 243.101 120.562 242.573 120.838C242.045 121.114 241.445 121.252 240.773 121.252ZM241.133 120.082C241.613 120.082 242.051 119.968 242.447 119.74C242.855 119.5 243.173 119.182 243.401 118.786C243.629 118.378 243.743 117.928 243.743 117.436V116.752C243.167 116.668 242.645 116.626 242.177 116.626C241.229 116.626 240.503 116.782 239.999 117.094C239.507 117.394 239.261 117.838 239.261 118.426C239.261 118.93 239.429 119.332 239.765 119.632C240.113 119.932 240.569 120.082 241.133 120.082ZM254.632 111.892H256.216V121H254.668V113.872L249.79 121H248.188V111.892H249.754V119.02L254.632 111.892ZM252.184 110.56C251.368 110.56 250.702 110.32 250.186 109.84C249.682 109.36 249.418 108.73 249.394 107.95H250.654C250.678 108.406 250.828 108.76 251.104 109.012C251.38 109.264 251.746 109.39 252.202 109.39C252.67 109.39 253.036 109.264 253.3 109.012C253.576 108.748 253.726 108.394 253.75 107.95H255.01C254.986 108.73 254.716 109.36 254.2 109.84C253.684 110.32 253.012 110.56 252.184 110.56ZM265.98 111.892V113.098H262.758V121H261.156V113.098H257.916V111.892H265.98ZM275.051 116.05C275.051 116.242 275.039 116.458 275.015 116.698H268.337C268.397 117.73 268.685 118.546 269.201 119.146C269.717 119.734 270.407 120.028 271.271 120.028C271.787 120.028 272.285 119.902 272.765 119.65C273.245 119.386 273.647 119.014 273.971 118.534L274.997 119.398C274.601 119.998 274.073 120.46 273.413 120.784C272.753 121.096 272.033 121.252 271.253 121.252C270.353 121.252 269.561 121.054 268.877 120.658C268.205 120.25 267.683 119.68 267.311 118.948C266.939 118.216 266.753 117.37 266.753 116.41C266.753 115.474 266.933 114.646 267.293 113.926C267.653 113.194 268.157 112.63 268.805 112.234C269.465 111.838 270.227 111.64 271.091 111.64C271.883 111.64 272.579 111.82 273.179 112.18C273.779 112.54 274.241 113.056 274.565 113.728C274.889 114.388 275.051 115.162 275.051 116.05ZM273.449 115.546C273.425 114.718 273.203 114.064 272.783 113.584C272.375 113.092 271.799 112.846 271.055 112.846C270.323 112.846 269.723 113.086 269.255 113.566C268.787 114.034 268.499 114.694 268.391 115.546H273.449ZM287.922 116.248C288.594 116.38 289.11 116.638 289.47 117.022C289.83 117.406 290.01 117.874 290.01 118.426C290.01 119.218 289.662 119.848 288.966 120.316C288.282 120.772 287.334 121 286.122 121H282.342V111.892H286.122C287.226 111.892 288.09 112.102 288.714 112.522C289.35 112.942 289.668 113.518 289.668 114.25C289.668 114.73 289.518 115.15 289.218 115.51C288.918 115.858 288.486 116.104 287.922 116.248ZM283.944 113.098V115.69H286.14C286.752 115.69 287.22 115.582 287.544 115.366C287.868 115.138 288.03 114.814 288.03 114.394C288.03 113.986 287.862 113.668 287.526 113.44C287.202 113.212 286.74 113.098 286.14 113.098H283.944ZM286.158 119.794C286.842 119.794 287.376 119.668 287.76 119.416C288.144 119.152 288.336 118.786 288.336 118.318C288.336 117.85 288.138 117.496 287.742 117.256C287.358 117.016 286.83 116.896 286.158 116.896H283.944V119.794H286.158ZM78.172 146H76.588V142.58H74.734L72.304 146H70.468L73.078 142.31C72.43 142.142 71.914 141.83 71.53 141.374C71.158 140.906 70.972 140.348 70.972 139.7C70.972 138.836 71.29 138.152 71.926 137.648C72.562 137.144 73.444 136.892 74.572 136.892H78.172V146ZM76.588 141.356V138.098H74.698C74.038 138.098 73.528 138.242 73.168 138.53C72.808 138.806 72.628 139.202 72.628 139.718C72.628 140.234 72.814 140.636 73.186 140.924C73.57 141.212 74.104 141.356 74.788 141.356H76.588ZM92.4492 144.776H93.8892V148.088H92.3772V146H81.0552V136.892H82.6212V144.776H85.9512V136.892H87.5352V144.776H90.8652V136.892H92.4492V144.776ZM102.107 136.892H103.691V146H102.143V138.872L97.2647 146H95.6627V136.892H97.2287V144.02L102.107 136.892ZM112.843 146L109.783 141.968H108.163V146H106.579V136.892H108.163V140.78H109.747L112.591 136.892H114.463L111.133 141.266L114.769 146H112.843ZM123.932 141.05C123.932 141.242 123.92 141.458 123.896 141.698H117.218C117.278 142.73 117.566 143.546 118.082 144.146C118.598 144.734 119.288 145.028 120.152 145.028C120.668 145.028 121.166 144.902 121.646 144.65C122.126 144.386 122.528 144.014 122.852 143.534L123.878 144.398C123.482 144.998 122.954 145.46 122.294 145.784C121.634 146.096 120.914 146.252 120.134 146.252C119.234 146.252 118.442 146.054 117.758 145.658C117.086 145.25 116.564 144.68 116.192 143.948C115.82 143.216 115.634 142.37 115.634 141.41C115.634 140.474 115.814 139.646 116.174 138.926C116.534 138.194 117.038 137.63 117.686 137.234C118.346 136.838 119.108 136.64 119.972 136.64C120.764 136.64 121.46 136.82 122.06 137.18C122.66 137.54 123.122 138.056 123.446 138.728C123.77 139.388 123.932 140.162 123.932 141.05ZM122.33 140.546C122.306 139.718 122.084 139.064 121.664 138.584C121.256 138.092 120.68 137.846 119.936 137.846C119.204 137.846 118.604 138.086 118.136 138.566C117.668 139.034 117.38 139.694 117.272 140.546H122.33ZM139.035 136.892V146H137.433V138.098H132.825V146H131.223V136.892H139.035ZM144.305 146.252C143.381 146.252 142.631 146 142.055 145.496C141.491 144.98 141.209 144.308 141.209 143.48C141.209 142.544 141.581 141.812 142.325 141.284C143.081 140.756 144.131 140.492 145.475 140.492C146.075 140.492 146.675 140.534 147.275 140.618V140.06C147.275 139.4 147.071 138.872 146.663 138.476C146.267 138.068 145.733 137.864 145.061 137.864C144.605 137.864 144.137 137.972 143.657 138.188C143.189 138.404 142.769 138.692 142.397 139.052L141.551 137.99C142.031 137.558 142.583 137.228 143.207 137C143.843 136.76 144.503 136.64 145.187 136.64C145.907 136.64 146.543 136.778 147.095 137.054C147.659 137.33 148.091 137.714 148.391 138.206C148.703 138.698 148.859 139.268 148.859 139.916V146H147.491L147.365 144.65C147.053 145.166 146.633 145.562 146.105 145.838C145.577 146.114 144.977 146.252 144.305 146.252ZM144.665 145.082C145.145 145.082 145.583 144.968 145.979 144.74C146.387 144.5 146.705 144.182 146.933 143.786C147.161 143.378 147.275 142.928 147.275 142.436V141.752C146.699 141.668 146.177 141.626 145.709 141.626C144.761 141.626 144.035 141.782 143.531 142.094C143.039 142.394 142.793 142.838 142.793 143.426C142.793 143.93 142.961 144.332 143.297 144.632C143.645 144.932 144.101 145.082 144.665 145.082ZM159.531 136.892V146H157.929V138.098H153.321V146H151.719V136.892H159.531ZM168.671 146L165.611 141.968H163.991V146H162.407V136.892H163.991V140.78H165.575L168.419 136.892H170.291L166.961 141.266L170.597 146H168.671ZM178.765 136.892H180.349V146H178.801V138.872L173.923 146H172.321V136.892H173.887V144.02L178.765 136.892ZM183.633 143.93H185.379L183.867 148.304H182.661L183.633 143.93ZM198.907 141.248C199.579 141.38 200.095 141.638 200.455 142.022C200.815 142.406 200.995 142.874 200.995 143.426C200.995 144.218 200.647 144.848 199.951 145.316C199.267 145.772 198.319 146 197.107 146H193.327V136.892H197.107C198.211 136.892 199.075 137.102 199.699 137.522C200.335 137.942 200.653 138.518 200.653 139.25C200.653 139.73 200.503 140.15 200.203 140.51C199.903 140.858 199.471 141.104 198.907 141.248ZM194.929 138.098V140.69H197.125C197.737 140.69 198.205 140.582 198.529 140.366C198.853 140.138 199.015 139.814 199.015 139.394C199.015 138.986 198.847 138.668 198.511 138.44C198.187 138.212 197.725 138.098 197.125 138.098H194.929ZM197.143 144.794C197.827 144.794 198.361 144.668 198.745 144.416C199.129 144.152 199.321 143.786 199.321 143.318C199.321 142.85 199.123 142.496 198.727 142.256C198.343 142.016 197.815 141.896 197.143 141.896H194.929V144.794H197.143ZM214.497 146L211.437 141.968H209.817V146H208.233V136.892H209.817V140.78H211.401L214.245 136.892H216.117L212.787 141.266L216.423 146H214.497ZM221.699 146.252C220.835 146.252 220.067 146.054 219.395 145.658C218.735 145.25 218.219 144.686 217.847 143.966C217.475 143.234 217.289 142.394 217.289 141.446C217.289 140.51 217.475 139.676 217.847 138.944C218.219 138.212 218.735 137.648 219.395 137.252C220.067 136.844 220.841 136.64 221.717 136.64C222.581 136.64 223.349 136.844 224.021 137.252C224.693 137.648 225.215 138.212 225.587 138.944C225.959 139.664 226.145 140.492 226.145 141.428C226.145 142.376 225.959 143.216 225.587 143.948C225.215 144.68 224.693 145.25 224.021 145.658C223.349 146.054 222.575 146.252 221.699 146.252ZM221.699 145.028C222.539 145.028 223.205 144.698 223.697 144.038C224.201 143.378 224.453 142.502 224.453 141.41C224.453 140.342 224.201 139.484 223.697 138.836C223.193 138.188 222.527 137.864 221.699 137.864C220.871 137.864 220.205 138.194 219.701 138.854C219.209 139.502 218.963 140.366 218.963 141.446C218.963 142.526 219.209 143.396 219.701 144.056C220.205 144.704 220.871 145.028 221.699 145.028ZM234.972 136.892V138.098H231.75V146H230.148V138.098H226.908V136.892H234.972ZM240.156 146.252C239.292 146.252 238.524 146.054 237.852 145.658C237.192 145.25 236.676 144.686 236.304 143.966C235.932 143.234 235.746 142.394 235.746 141.446C235.746 140.51 235.932 139.676 236.304 138.944C236.676 138.212 237.192 137.648 237.852 137.252C238.524 136.844 239.298 136.64 240.174 136.64C241.038 136.64 241.806 136.844 242.478 137.252C243.15 137.648 243.672 138.212 244.044 138.944C244.416 139.664 244.602 140.492 244.602 141.428C244.602 142.376 244.416 143.216 244.044 143.948C243.672 144.68 243.15 145.25 242.478 145.658C241.806 146.054 241.032 146.252 240.156 146.252ZM240.156 145.028C240.996 145.028 241.662 144.698 242.154 144.038C242.658 143.378 242.91 142.502 242.91 141.41C242.91 140.342 242.658 139.484 242.154 138.836C241.65 138.188 240.984 137.864 240.156 137.864C239.328 137.864 238.662 138.194 238.158 138.854C237.666 139.502 237.42 140.366 237.42 141.446C237.42 142.526 237.666 143.396 238.158 144.056C238.662 144.704 239.328 145.028 240.156 145.028ZM251.532 136.64C252.312 136.64 253.002 136.844 253.602 137.252C254.202 137.648 254.664 138.206 254.988 138.926C255.324 139.646 255.492 140.48 255.492 141.428C255.492 142.388 255.318 143.234 254.97 143.966C254.634 144.686 254.16 145.25 253.548 145.658C252.948 146.054 252.258 146.252 251.478 146.252C250.83 146.252 250.236 146.108 249.696 145.82C249.168 145.52 248.748 145.106 248.436 144.578V149.42H246.852V136.892H248.22L248.382 138.548C248.682 137.96 249.108 137.498 249.66 137.162C250.224 136.814 250.848 136.64 251.532 136.64ZM251.154 145.028C251.97 145.028 252.618 144.71 253.098 144.074C253.578 143.426 253.818 142.556 253.818 141.464C253.818 140.36 253.572 139.484 253.08 138.836C252.6 138.188 251.952 137.864 251.136 137.864C250.32 137.864 249.666 138.194 249.174 138.854C248.682 139.514 248.436 140.39 248.436 141.482C248.436 142.55 248.682 143.408 249.174 144.056C249.666 144.704 250.326 145.028 251.154 145.028ZM261.153 140.258C262.257 140.258 263.121 140.516 263.745 141.032C264.381 141.548 264.699 142.25 264.699 143.138C264.699 144.014 264.387 144.71 263.763 145.226C263.151 145.742 262.311 146 261.243 146H257.751V136.892H259.335V140.258H261.153ZM261.045 144.776C261.657 144.776 262.137 144.632 262.485 144.344C262.845 144.056 263.025 143.654 263.025 143.138C263.025 142.622 262.851 142.22 262.503 141.932C262.155 141.632 261.669 141.482 261.045 141.482H259.335V144.776H261.045ZM266.769 136.892H268.371V146H266.769V136.892ZM278.74 146H276.832L274.24 142.31L271.666 146H269.956L273.394 141.284L270.172 136.892H272.026L274.384 140.24L276.778 136.892H278.506L275.23 141.248L278.74 146ZM79 171H77.092L74.5 167.31L71.926 171H70.216L73.654 166.284L70.432 161.892H72.286L74.644 165.24L77.038 161.892H78.766L75.49 166.248L79 171ZM85.3309 161.64C86.1109 161.64 86.8009 161.844 87.4009 162.252C88.0009 162.648 88.4629 163.206 88.7869 163.926C89.1229 164.646 89.2909 165.48 89.2909 166.428C89.2909 167.388 89.1169 168.234 88.7689 168.966C88.4329 169.686 87.9589 170.25 87.3469 170.658C86.7469 171.054 86.0569 171.252 85.2769 171.252C84.6289 171.252 84.0349 171.108 83.4949 170.82C82.9669 170.52 82.5469 170.106 82.2349 169.578V174.42H80.6509V161.892H82.0189L82.1809 163.548C82.4809 162.96 82.9069 162.498 83.4589 162.162C84.0229 161.814 84.6469 161.64 85.3309 161.64ZM84.9529 170.028C85.7689 170.028 86.4169 169.71 86.8969 169.074C87.3769 168.426 87.6169 167.556 87.6169 166.464C87.6169 165.36 87.3709 164.484 86.8789 163.836C86.3989 163.188 85.7509 162.864 84.9349 162.864C84.1189 162.864 83.4649 163.194 82.9729 163.854C82.4809 164.514 82.2349 165.39 82.2349 166.482C82.2349 167.55 82.4809 168.408 82.9729 169.056C83.4649 169.704 84.1249 170.028 84.9529 170.028ZM93.9434 171.252C93.0194 171.252 92.2694 171 91.6934 170.496C91.1294 169.98 90.8474 169.308 90.8474 168.48C90.8474 167.544 91.2194 166.812 91.9634 166.284C92.7194 165.756 93.7694 165.492 95.1134 165.492C95.7134 165.492 96.3134 165.534 96.9134 165.618V165.06C96.9134 164.4 96.7094 163.872 96.3014 163.476C95.9054 163.068 95.3714 162.864 94.6994 162.864C94.2434 162.864 93.7754 162.972 93.2954 163.188C92.8274 163.404 92.4074 163.692 92.0354 164.052L91.1894 162.99C91.6694 162.558 92.2214 162.228 92.8454 162C93.4814 161.76 94.1414 161.64 94.8254 161.64C95.5454 161.64 96.1814 161.778 96.7334 162.054C97.2974 162.33 97.7294 162.714 98.0294 163.206C98.3414 163.698 98.4974 164.268 98.4974 164.916V171H97.1294L97.0034 169.65C96.6914 170.166 96.2714 170.562 95.7434 170.838C95.2154 171.114 94.6154 171.252 93.9434 171.252ZM94.3034 170.082C94.7834 170.082 95.2214 169.968 95.6174 169.74C96.0254 169.5 96.3434 169.182 96.5714 168.786C96.7994 168.378 96.9134 167.928 96.9134 167.436V166.752C96.3374 166.668 95.8154 166.626 95.3474 166.626C94.3994 166.626 93.6734 166.782 93.1694 167.094C92.6774 167.394 92.4314 167.838 92.4314 168.426C92.4314 168.93 92.5994 169.332 92.9354 169.632C93.2834 169.932 93.7394 170.082 94.3034 170.082ZM107.676 161.892H109.26V171H107.676V166.95H102.942V171H101.358V161.892H102.942V165.762H107.676V161.892ZM118.577 161.892H120.161V171H118.613V163.872L113.735 171H112.133V161.892H113.699V169.02L118.577 161.892ZM129.925 161.892V163.098H126.703V171H125.101V163.098H121.861V161.892H129.925ZM135.253 171.252C134.353 171.252 133.555 171.048 132.859 170.64C132.175 170.232 131.641 169.662 131.257 168.93C130.885 168.198 130.699 167.364 130.699 166.428C130.699 165.492 130.891 164.664 131.275 163.944C131.659 163.212 132.193 162.648 132.877 162.252C133.561 161.844 134.347 161.64 135.235 161.64C136.027 161.64 136.735 161.808 137.359 162.144C137.983 162.48 138.469 162.954 138.817 163.566L137.719 164.34C137.071 163.356 136.255 162.864 135.271 162.864C134.407 162.864 133.705 163.194 133.165 163.854C132.637 164.502 132.373 165.348 132.373 166.392C132.373 167.1 132.493 167.73 132.733 168.282C132.985 168.834 133.327 169.266 133.759 169.578C134.203 169.878 134.713 170.028 135.289 170.028C136.297 170.028 137.113 169.53 137.737 168.534L138.835 169.326C138.487 169.95 138.001 170.43 137.377 170.766C136.765 171.09 136.057 171.252 135.253 171.252ZM147.447 171H145.863V167.58H144.009L141.579 171H139.743L142.353 167.31C141.705 167.142 141.189 166.83 140.805 166.374C140.433 165.906 140.247 165.348 140.247 164.7C140.247 163.836 140.565 163.152 141.201 162.648C141.837 162.144 142.719 161.892 143.847 161.892H147.447V171ZM145.863 166.356V163.098H143.973C143.313 163.098 142.803 163.242 142.443 163.53C142.083 163.806 141.903 164.202 141.903 164.718C141.903 165.234 142.089 165.636 142.461 165.924C142.845 166.212 143.379 166.356 144.063 166.356H145.863ZM161.64 171L158.58 166.968H156.96V171H155.376V161.892H156.96V165.78H158.544L161.388 161.892H163.26L159.93 166.266L163.566 171H161.64ZM168.841 171.252C167.977 171.252 167.209 171.054 166.537 170.658C165.877 170.25 165.361 169.686 164.989 168.966C164.617 168.234 164.431 167.394 164.431 166.446C164.431 165.51 164.617 164.676 164.989 163.944C165.361 163.212 165.877 162.648 166.537 162.252C167.209 161.844 167.983 161.64 168.859 161.64C169.723 161.64 170.491 161.844 171.163 162.252C171.835 162.648 172.357 163.212 172.729 163.944C173.101 164.664 173.287 165.492 173.287 166.428C173.287 167.376 173.101 168.216 172.729 168.948C172.357 169.68 171.835 170.25 171.163 170.658C170.491 171.054 169.717 171.252 168.841 171.252ZM168.841 170.028C169.681 170.028 170.347 169.698 170.839 169.038C171.343 168.378 171.595 167.502 171.595 166.41C171.595 165.342 171.343 164.484 170.839 163.836C170.335 163.188 169.669 162.864 168.841 162.864C168.013 162.864 167.347 163.194 166.843 163.854C166.351 164.502 166.105 165.366 166.105 166.446C166.105 167.526 166.351 168.396 166.843 169.056C167.347 169.704 168.013 170.028 168.841 170.028ZM181.856 161.892H183.44V171H181.856V166.95H177.122V171H175.538V161.892H177.122V165.762H181.856V161.892ZM196.879 166.446C196.879 167.73 196.441 168.774 195.565 169.578C194.701 170.37 193.537 170.832 192.073 170.964V174.42H190.489V170.964C189.013 170.832 187.843 170.364 186.979 169.56C186.115 168.756 185.683 167.712 185.683 166.428C185.683 165.132 186.115 164.088 186.979 163.296C187.843 162.504 189.013 162.048 190.489 161.928V157.95H192.073V161.928C193.549 162.06 194.719 162.528 195.583 163.332C196.447 164.124 196.879 165.162 196.879 166.446ZM192.073 169.722C193.033 169.614 193.795 169.278 194.359 168.714C194.923 168.15 195.205 167.394 195.205 166.446C195.205 165.498 194.923 164.748 194.359 164.196C193.795 163.632 193.033 163.29 192.073 163.17V169.722ZM187.357 166.41C187.357 167.358 187.639 168.114 188.203 168.678C188.767 169.242 189.529 169.59 190.489 169.722V163.17C189.529 163.29 188.767 163.632 188.203 164.196C187.639 164.748 187.357 165.486 187.357 166.41ZM205.572 161.892H207.156V171H205.608V163.872L200.73 171H199.128V161.892H200.694V169.02L205.572 161.892ZM218.792 169.776V173.088H217.298V171H210.458V173.088H208.946V169.776H209.9C210.488 169.2 210.896 168.528 211.124 167.76C211.364 166.992 211.484 165.972 211.484 164.7V161.892H217.478V169.776H218.792ZM212.924 164.862C212.924 165.99 212.816 166.95 212.6 167.742C212.384 168.534 212.066 169.212 211.646 169.776H215.894V163.116H212.924V164.862ZM228.241 166.05C228.241 166.242 228.229 166.458 228.205 166.698H221.527C221.587 167.73 221.875 168.546 222.391 169.146C222.907 169.734 223.597 170.028 224.461 170.028C224.977 170.028 225.475 169.902 225.955 169.65C226.435 169.386 226.837 169.014 227.161 168.534L228.187 169.398C227.791 169.998 227.263 170.46 226.603 170.784C225.943 171.096 225.223 171.252 224.443 171.252C223.543 171.252 222.751 171.054 222.067 170.658C221.395 170.25 220.873 169.68 220.501 168.948C220.129 168.216 219.943 167.37 219.943 166.41C219.943 165.474 220.123 164.646 220.483 163.926C220.843 163.194 221.347 162.63 221.995 162.234C222.655 161.838 223.417 161.64 224.281 161.64C225.073 161.64 225.769 161.82 226.369 162.18C226.969 162.54 227.431 163.056 227.755 163.728C228.079 164.388 228.241 165.162 228.241 166.05ZM226.639 165.546C226.615 164.718 226.393 164.064 225.973 163.584C225.565 163.092 224.989 162.846 224.245 162.846C223.513 162.846 222.913 163.086 222.445 163.566C221.977 164.034 221.689 164.694 221.581 165.546H226.639ZM236.805 161.892H238.389V171H236.805V166.95H232.071V171H230.487V161.892H232.071V165.762H236.805V161.892ZM248.768 169.776H250.172V173.088H248.678V171H241.262V161.892H242.864V169.776H247.166V161.892H248.768V169.776ZM258.394 161.892H259.978V171H258.43V163.872L253.552 171H251.95V161.892H253.516V169.02L258.394 161.892ZM265.26 171.252C264.336 171.252 263.586 171 263.01 170.496C262.446 169.98 262.164 169.308 262.164 168.48C262.164 167.544 262.536 166.812 263.28 166.284C264.036 165.756 265.086 165.492 266.43 165.492C267.03 165.492 267.63 165.534 268.23 165.618V165.06C268.23 164.4 268.026 163.872 267.618 163.476C267.222 163.068 266.688 162.864 266.016 162.864C265.56 162.864 265.092 162.972 264.612 163.188C264.144 163.404 263.724 163.692 263.352 164.052L262.506 162.99C262.986 162.558 263.538 162.228 264.162 162C264.798 161.76 265.458 161.64 266.142 161.64C266.862 161.64 267.498 161.778 268.05 162.054C268.614 162.33 269.046 162.714 269.346 163.206C269.658 163.698 269.814 164.268 269.814 164.916V171H268.446L268.32 169.65C268.008 170.166 267.588 170.562 267.06 170.838C266.532 171.114 265.932 171.252 265.26 171.252ZM265.62 170.082C266.1 170.082 266.538 169.968 266.934 169.74C267.342 169.5 267.66 169.182 267.888 168.786C268.116 168.378 268.23 167.928 268.23 167.436V166.752C267.654 166.668 267.132 166.626 266.664 166.626C265.716 166.626 264.99 166.782 264.486 167.094C263.994 167.394 263.748 167.838 263.748 168.426C263.748 168.93 263.916 169.332 264.252 169.632C264.6 169.932 265.056 170.082 265.62 170.082ZM271.63 169.614H271.846C272.422 169.614 272.896 169.326 273.268 168.75C273.64 168.162 273.826 167.082 273.826 165.51V161.892H279.694V171H278.11V163.116H275.266V165.69C275.266 167.166 275.02 168.42 274.528 169.452C274.036 170.484 273.184 171 271.972 171H271.63V169.614ZM285.973 165.258C287.077 165.258 287.941 165.516 288.565 166.032C289.201 166.548 289.519 167.25 289.519 168.138C289.519 169.014 289.207 169.71 288.583 170.226C287.971 170.742 287.131 171 286.063 171H282.571V161.892H284.155V165.258H285.973ZM285.865 169.776C286.477 169.776 286.957 169.632 287.305 169.344C287.665 169.056 287.845 168.654 287.845 168.138C287.845 167.622 287.671 167.22 287.323 166.932C286.975 166.632 286.489 166.482 285.865 166.482H284.155V169.776H285.865ZM297.994 161.892H299.578V171H297.994V166.95H293.26V171H291.676V161.892H293.26V165.762H297.994V161.892ZM304.846 171.252C303.922 171.252 303.172 171 302.596 170.496C302.032 169.98 301.75 169.308 301.75 168.48C301.75 167.544 302.122 166.812 302.866 166.284C303.622 165.756 304.672 165.492 306.016 165.492C306.616 165.492 307.216 165.534 307.816 165.618V165.06C307.816 164.4 307.612 163.872 307.204 163.476C306.808 163.068 306.274 162.864 305.602 162.864C305.146 162.864 304.678 162.972 304.198 163.188C303.73 163.404 303.31 163.692 302.938 164.052L302.092 162.99C302.572 162.558 303.124 162.228 303.748 162C304.384 161.76 305.044 161.64 305.728 161.64C306.448 161.64 307.084 161.778 307.636 162.054C308.2 162.33 308.632 162.714 308.932 163.206C309.244 163.698 309.4 164.268 309.4 164.916V171H308.032L307.906 169.65C307.594 170.166 307.174 170.562 306.646 170.838C306.118 171.114 305.518 171.252 304.846 171.252ZM305.206 170.082C305.686 170.082 306.124 169.968 306.52 169.74C306.928 169.5 307.246 169.182 307.474 168.786C307.702 168.378 307.816 167.928 307.816 167.436V166.752C307.24 166.668 306.718 166.626 306.25 166.626C305.302 166.626 304.576 166.782 304.072 167.094C303.58 167.394 303.334 167.838 303.334 168.426C303.334 168.93 303.502 169.332 303.838 169.632C304.186 169.932 304.642 170.082 305.206 170.082ZM318.992 171H317.408V167.58H315.554L313.124 171H311.288L313.898 167.31C313.25 167.142 312.734 166.83 312.35 166.374C311.978 165.906 311.792 165.348 311.792 164.7C311.792 163.836 312.11 163.152 312.746 162.648C313.382 162.144 314.264 161.892 315.392 161.892H318.992V171ZM317.408 166.356V163.098H315.518C314.858 163.098 314.348 163.242 313.988 163.53C313.628 163.806 313.448 164.202 313.448 164.718C313.448 165.234 313.634 165.636 314.006 165.924C314.39 166.212 314.924 166.356 315.608 166.356H317.408ZM77.884 186.892H79.468V196H77.92V188.872L73.042 196H71.44V186.892H73.006V194.02L77.884 186.892ZM88.674 186.892H90.258V196H88.674V191.95H83.94V196H82.356V186.892H83.94V190.762H88.674V186.892ZM103.697 191.446C103.697 192.73 103.259 193.774 102.383 194.578C101.519 195.37 100.355 195.832 98.8914 195.964V199.42H97.3074V195.964C95.8314 195.832 94.6614 195.364 93.7974 194.56C92.9334 193.756 92.5014 192.712 92.5014 191.428C92.5014 190.132 92.9334 189.088 93.7974 188.296C94.6614 187.504 95.8314 187.048 97.3074 186.928V182.95H98.8914V186.928C100.367 187.06 101.537 187.528 102.401 188.332C103.265 189.124 103.697 190.162 103.697 191.446ZM98.8914 194.722C99.8514 194.614 100.613 194.278 101.177 193.714C101.741 193.15 102.023 192.394 102.023 191.446C102.023 190.498 101.741 189.748 101.177 189.196C100.613 188.632 99.8514 188.29 98.8914 188.17V194.722ZM94.1754 191.41C94.1754 192.358 94.4574 193.114 95.0214 193.678C95.5854 194.242 96.3474 194.59 97.3074 194.722V188.17C96.3474 188.29 95.5854 188.632 95.0214 189.196C94.4574 189.748 94.1754 190.486 94.1754 191.41ZM109.726 196.252C108.862 196.252 108.094 196.054 107.422 195.658C106.762 195.25 106.246 194.686 105.874 193.966C105.502 193.234 105.316 192.394 105.316 191.446C105.316 190.51 105.502 189.676 105.874 188.944C106.246 188.212 106.762 187.648 107.422 187.252C108.094 186.844 108.868 186.64 109.744 186.64C110.608 186.64 111.376 186.844 112.048 187.252C112.72 187.648 113.242 188.212 113.614 188.944C113.986 189.664 114.172 190.492 114.172 191.428C114.172 192.376 113.986 193.216 113.614 193.948C113.242 194.68 112.72 195.25 112.048 195.658C111.376 196.054 110.602 196.252 109.726 196.252ZM109.726 195.028C110.566 195.028 111.232 194.698 111.724 194.038C112.228 193.378 112.48 192.502 112.48 191.41C112.48 190.342 112.228 189.484 111.724 188.836C111.22 188.188 110.554 187.864 109.726 187.864C108.898 187.864 108.232 188.194 107.728 188.854C107.236 189.502 106.99 190.366 106.99 191.446C106.99 192.526 107.236 193.396 107.728 194.056C108.232 194.704 108.898 195.028 109.726 195.028ZM121.102 186.64C121.882 186.64 122.572 186.844 123.172 187.252C123.772 187.648 124.234 188.206 124.558 188.926C124.894 189.646 125.062 190.48 125.062 191.428C125.062 192.388 124.888 193.234 124.54 193.966C124.204 194.686 123.73 195.25 123.118 195.658C122.518 196.054 121.828 196.252 121.048 196.252C120.4 196.252 119.806 196.108 119.266 195.82C118.738 195.52 118.318 195.106 118.006 194.578V199.42H116.422V186.892H117.79L117.952 188.548C118.252 187.96 118.678 187.498 119.23 187.162C119.794 186.814 120.418 186.64 121.102 186.64ZM120.724 195.028C121.54 195.028 122.188 194.71 122.668 194.074C123.148 193.426 123.388 192.556 123.388 191.464C123.388 190.36 123.142 189.484 122.65 188.836C122.17 188.188 121.522 187.864 120.706 187.864C119.89 187.864 119.236 188.194 118.744 188.854C118.252 189.514 118.006 190.39 118.006 191.482C118.006 192.55 118.252 193.408 118.744 194.056C119.236 194.704 119.896 195.028 120.724 195.028ZM134.917 186.892H137.167V196H135.619V188.764L132.829 196H131.551L128.797 188.8V196H127.321V186.892H129.553L132.199 194.128L134.917 186.892ZM142.441 196.252C141.517 196.252 140.767 196 140.191 195.496C139.627 194.98 139.345 194.308 139.345 193.48C139.345 192.544 139.717 191.812 140.461 191.284C141.217 190.756 142.267 190.492 143.611 190.492C144.211 190.492 144.811 190.534 145.411 190.618V190.06C145.411 189.4 145.207 188.872 144.799 188.476C144.403 188.068 143.869 187.864 143.197 187.864C142.741 187.864 142.273 187.972 141.793 188.188C141.325 188.404 140.905 188.692 140.533 189.052L139.687 187.99C140.167 187.558 140.719 187.228 141.343 187C141.979 186.76 142.639 186.64 143.323 186.64C144.043 186.64 144.679 186.778 145.231 187.054C145.795 187.33 146.227 187.714 146.527 188.206C146.839 188.698 146.995 189.268 146.995 189.916V196H145.627L145.501 194.65C145.189 195.166 144.769 195.562 144.241 195.838C143.713 196.114 143.113 196.252 142.441 196.252ZM142.801 195.082C143.281 195.082 143.719 194.968 144.115 194.74C144.523 194.5 144.841 194.182 145.069 193.786C145.297 193.378 145.411 192.928 145.411 192.436V191.752C144.835 191.668 144.313 191.626 143.845 191.626C142.897 191.626 142.171 191.782 141.667 192.094C141.175 192.394 140.929 192.838 140.929 193.426C140.929 193.93 141.097 194.332 141.433 194.632C141.781 194.932 142.237 195.082 142.801 195.082ZM157.362 194.776H158.766V198.088H157.272V196H149.856V186.892H151.458V194.776H155.76V186.892H157.362V194.776ZM166.988 186.892H168.572V196H167.024V188.872L162.146 196H160.544V186.892H162.11V194.02L166.988 186.892ZM178.192 196H176.608V192.58H174.754L172.324 196H170.488L173.098 192.31C172.45 192.142 171.934 191.83 171.55 191.374C171.178 190.906 170.992 190.348 170.992 189.7C170.992 188.836 171.31 188.152 171.946 187.648C172.582 187.144 173.464 186.892 174.592 186.892H178.192V196ZM176.608 191.356V188.098H174.718C174.058 188.098 173.548 188.242 173.188 188.53C172.828 188.806 172.648 189.202 172.648 189.718C172.648 190.234 172.834 190.636 173.206 190.924C173.59 191.212 174.124 191.356 174.808 191.356H176.608ZM182.155 196.252C181.819 196.252 181.549 196.156 181.345 195.964C181.141 195.76 181.039 195.49 181.039 195.154C181.039 194.83 181.141 194.566 181.345 194.362C181.549 194.158 181.819 194.056 182.155 194.056C182.491 194.056 182.761 194.158 182.965 194.362C183.181 194.566 183.289 194.83 183.289 195.154C183.289 195.49 183.181 195.76 182.965 195.964C182.761 196.156 182.491 196.252 182.155 196.252ZM200.003 182.95H201.695V196H200.003V190.042H193.127V196H191.435V182.95H193.127V188.692H200.003V182.95ZM212.508 191.05C212.508 191.242 212.496 191.458 212.472 191.698H205.794C205.854 192.73 206.142 193.546 206.658 194.146C207.174 194.734 207.864 195.028 208.728 195.028C209.244 195.028 209.742 194.902 210.222 194.65C210.702 194.386 211.104 194.014 211.428 193.534L212.454 194.398C212.058 194.998 211.53 195.46 210.87 195.784C210.21 196.096 209.49 196.252 208.71 196.252C207.81 196.252 207.018 196.054 206.334 195.658C205.662 195.25 205.14 194.68 204.768 193.948C204.396 193.216 204.21 192.37 204.21 191.41C204.21 190.474 204.39 189.646 204.75 188.926C205.11 188.194 205.614 187.63 206.262 187.234C206.922 186.838 207.684 186.64 208.548 186.64C209.34 186.64 210.036 186.82 210.636 187.18C211.236 187.54 211.698 188.056 212.022 188.728C212.346 189.388 212.508 190.162 212.508 191.05ZM210.906 190.546C210.882 189.718 210.66 189.064 210.24 188.584C209.832 188.092 209.256 187.846 208.512 187.846C207.78 187.846 207.18 188.086 206.712 188.566C206.244 189.034 205.956 189.694 205.848 190.546H210.906ZM223.579 196.252C222.715 196.252 221.947 196.054 221.275 195.658C220.615 195.25 220.099 194.686 219.727 193.966C219.355 193.234 219.169 192.394 219.169 191.446C219.169 190.51 219.355 189.676 219.727 188.944C220.099 188.212 220.615 187.648 221.275 187.252C221.947 186.844 222.721 186.64 223.597 186.64C224.461 186.64 225.229 186.844 225.901 187.252C226.573 187.648 227.095 188.212 227.467 188.944C227.839 189.664 228.025 190.492 228.025 191.428C228.025 192.376 227.839 193.216 227.467 193.948C227.095 194.68 226.573 195.25 225.901 195.658C225.229 196.054 224.455 196.252 223.579 196.252ZM223.579 195.028C224.419 195.028 225.085 194.698 225.577 194.038C226.081 193.378 226.333 192.502 226.333 191.41C226.333 190.342 226.081 189.484 225.577 188.836C225.073 188.188 224.407 187.864 223.579 187.864C222.751 187.864 222.085 188.194 221.581 188.854C221.089 189.502 220.843 190.366 220.843 191.446C220.843 192.526 221.089 193.396 221.581 194.056C222.085 194.704 222.751 195.028 223.579 195.028ZM234.2 196.252C233.3 196.252 232.502 196.048 231.806 195.64C231.122 195.232 230.588 194.662 230.204 193.93C229.832 193.198 229.646 192.364 229.646 191.428C229.646 190.492 229.838 189.664 230.222 188.944C230.606 188.212 231.14 187.648 231.824 187.252C232.508 186.844 233.294 186.64 234.182 186.64C234.974 186.64 235.682 186.808 236.306 187.144C236.93 187.48 237.416 187.954 237.764 188.566L236.666 189.34C236.018 188.356 235.202 187.864 234.218 187.864C233.354 187.864 232.652 188.194 232.112 188.854C231.584 189.502 231.32 190.348 231.32 191.392C231.32 192.1 231.44 192.73 231.68 193.282C231.932 193.834 232.274 194.266 232.706 194.578C233.15 194.878 233.66 195.028 234.236 195.028C235.244 195.028 236.06 194.53 236.684 193.534L237.782 194.326C237.434 194.95 236.948 195.43 236.324 195.766C235.712 196.09 235.004 196.252 234.2 196.252ZM246.539 186.892V188.098H243.317V196H241.715V188.098H238.475V186.892H246.539ZM250.635 196.252C249.711 196.252 248.961 196 248.385 195.496C247.821 194.98 247.539 194.308 247.539 193.48C247.539 192.544 247.911 191.812 248.655 191.284C249.411 190.756 250.461 190.492 251.805 190.492C252.405 190.492 253.005 190.534 253.605 190.618V190.06C253.605 189.4 253.401 188.872 252.993 188.476C252.597 188.068 252.063 187.864 251.391 187.864C250.935 187.864 250.467 187.972 249.987 188.188C249.519 188.404 249.099 188.692 248.727 189.052L247.881 187.99C248.361 187.558 248.913 187.228 249.537 187C250.173 186.76 250.833 186.64 251.517 186.64C252.237 186.64 252.873 186.778 253.425 187.054C253.989 187.33 254.421 187.714 254.721 188.206C255.033 188.698 255.189 189.268 255.189 189.916V196H253.821L253.695 194.65C253.383 195.166 252.963 195.562 252.435 195.838C251.907 196.114 251.307 196.252 250.635 196.252ZM250.995 195.082C251.475 195.082 251.913 194.968 252.309 194.74C252.717 194.5 253.035 194.182 253.263 193.786C253.491 193.378 253.605 192.928 253.605 192.436V191.752C253.029 191.668 252.507 191.626 252.039 191.626C251.091 191.626 250.365 191.782 249.861 192.094C249.369 192.394 249.123 192.838 249.123 193.426C249.123 193.93 249.291 194.332 249.627 194.632C249.975 194.932 250.431 195.082 250.995 195.082ZM263.629 191.248C264.301 191.38 264.817 191.638 265.177 192.022C265.537 192.406 265.717 192.874 265.717 193.426C265.717 194.218 265.369 194.848 264.673 195.316C263.989 195.772 263.041 196 261.829 196H258.049V186.892H261.829C262.933 186.892 263.797 187.102 264.421 187.522C265.057 187.942 265.375 188.518 265.375 189.25C265.375 189.73 265.225 190.15 264.925 190.51C264.625 190.858 264.193 191.104 263.629 191.248ZM259.651 188.098V190.69H261.847C262.459 190.69 262.927 190.582 263.251 190.366C263.575 190.138 263.737 189.814 263.737 189.394C263.737 188.986 263.569 188.668 263.233 188.44C262.909 188.212 262.447 188.098 261.847 188.098H259.651ZM261.865 194.794C262.549 194.794 263.083 194.668 263.467 194.416C263.851 194.152 264.043 193.786 264.043 193.318C264.043 192.85 263.845 192.496 263.449 192.256C263.065 192.016 262.537 191.896 261.865 191.896H259.651V194.794H261.865ZM266.867 194.614H267.083C267.659 194.614 268.133 194.326 268.505 193.75C268.877 193.162 269.063 192.082 269.063 190.51V186.892H274.931V196H273.347V188.116H270.503V190.69C270.503 192.166 270.257 193.42 269.765 194.452C269.273 195.484 268.421 196 267.209 196H266.867V194.614ZM284.539 196H282.955V192.58H281.101L278.671 196H276.835L279.445 192.31C278.797 192.142 278.281 191.83 277.897 191.374C277.525 190.906 277.339 190.348 277.339 189.7C277.339 188.836 277.657 188.152 278.293 187.648C278.929 187.144 279.811 186.892 280.939 186.892H284.539V196ZM282.955 191.356V188.098H281.065C280.405 188.098 279.895 188.242 279.535 188.53C279.175 188.806 278.995 189.202 278.995 189.718C278.995 190.234 279.181 190.636 279.553 190.924C279.937 191.212 280.471 191.356 281.155 191.356H282.955ZM293.866 186.892H295.45V196H293.902V188.872L289.024 196H287.422V186.892H288.988V194.02L293.866 186.892ZM291.418 185.56C290.602 185.56 289.936 185.32 289.42 184.84C288.916 184.36 288.652 183.73 288.628 182.95H289.888C289.912 183.406 290.062 183.76 290.338 184.012C290.614 184.264 290.98 184.39 291.436 184.39C291.904 184.39 292.27 184.264 292.534 184.012C292.81 183.748 292.96 183.394 292.984 182.95H294.244C294.22 183.73 293.95 184.36 293.434 184.84C292.918 185.32 292.246 185.56 291.418 185.56ZM305.214 186.892V188.098H301.992V196H300.39V188.098H297.15V186.892H305.214ZM314.286 191.05C314.286 191.242 314.274 191.458 314.25 191.698H307.572C307.632 192.73 307.92 193.546 308.436 194.146C308.952 194.734 309.642 195.028 310.506 195.028C311.022 195.028 311.52 194.902 312 194.65C312.48 194.386 312.882 194.014 313.206 193.534L314.232 194.398C313.836 194.998 313.308 195.46 312.648 195.784C311.988 196.096 311.268 196.252 310.488 196.252C309.588 196.252 308.796 196.054 308.112 195.658C307.44 195.25 306.918 194.68 306.546 193.948C306.174 193.216 305.988 192.37 305.988 191.41C305.988 190.474 306.168 189.646 306.528 188.926C306.888 188.194 307.392 187.63 308.04 187.234C308.7 186.838 309.462 186.64 310.326 186.64C311.118 186.64 311.814 186.82 312.414 187.18C313.014 187.54 313.476 188.056 313.8 188.728C314.124 189.388 314.286 190.162 314.286 191.05ZM312.684 190.546C312.66 189.718 312.438 189.064 312.018 188.584C311.61 188.092 311.034 187.846 310.29 187.846C309.558 187.846 308.958 188.086 308.49 188.566C308.022 189.034 307.734 189.694 307.626 190.546H312.684ZM77.884 211.892H79.468V221H77.92V213.872L73.042 221H71.44V211.892H73.006V219.02L77.884 211.892ZM89.916 221H88.008L85.416 217.31L82.842 221H81.132L84.57 216.284L81.348 211.892H83.202L85.56 215.24L87.954 211.892H89.682L86.406 216.248L89.916 221ZM102.754 211.892H104.338V221H102.754V216.95H98.0201V221H96.4361V211.892H98.0201V215.762H102.754V211.892ZM109.605 221.252C108.681 221.252 107.931 221 107.355 220.496C106.791 219.98 106.509 219.308 106.509 218.48C106.509 217.544 106.881 216.812 107.625 216.284C108.381 215.756 109.431 215.492 110.775 215.492C111.375 215.492 111.975 215.534 112.575 215.618V215.06C112.575 214.4 112.371 213.872 111.963 213.476C111.567 213.068 111.033 212.864 110.361 212.864C109.905 212.864 109.437 212.972 108.957 213.188C108.489 213.404 108.069 213.692 107.697 214.052L106.851 212.99C107.331 212.558 107.883 212.228 108.507 212C109.143 211.76 109.803 211.64 110.487 211.64C111.207 211.64 111.843 211.778 112.395 212.054C112.959 212.33 113.391 212.714 113.691 213.206C114.003 213.698 114.159 214.268 114.159 214.916V221H112.791L112.665 219.65C112.353 220.166 111.933 220.562 111.405 220.838C110.877 221.114 110.277 221.252 109.605 221.252ZM109.965 220.082C110.445 220.082 110.883 219.968 111.279 219.74C111.687 219.5 112.005 219.182 112.233 218.786C112.461 218.378 112.575 217.928 112.575 217.436V216.752C111.999 216.668 111.477 216.626 111.009 216.626C110.061 216.626 109.335 216.782 108.831 217.094C108.339 217.394 108.093 217.838 108.093 218.426C108.093 218.93 108.261 219.332 108.597 219.632C108.945 219.932 109.401 220.082 109.965 220.082ZM127.645 216.248C128.317 216.38 128.833 216.638 129.193 217.022C129.553 217.406 129.733 217.874 129.733 218.426C129.733 219.218 129.385 219.848 128.689 220.316C128.005 220.772 127.057 221 125.845 221H122.065V211.892H125.845C126.949 211.892 127.813 212.102 128.437 212.522C129.073 212.942 129.391 213.518 129.391 214.25C129.391 214.73 129.241 215.15 128.941 215.51C128.641 215.858 128.209 216.104 127.645 216.248ZM123.667 213.098V215.69H125.863C126.475 215.69 126.943 215.582 127.267 215.366C127.591 215.138 127.753 214.814 127.753 214.394C127.753 213.986 127.585 213.668 127.249 213.44C126.925 213.212 126.463 213.098 125.863 213.098H123.667ZM125.881 219.794C126.565 219.794 127.099 219.668 127.483 219.416C127.867 219.152 128.059 218.786 128.059 218.318C128.059 217.85 127.861 217.496 127.465 217.256C127.081 217.016 126.553 216.896 125.881 216.896H123.667V219.794H125.881ZM138.37 211.892H139.954V221H138.406V213.872L133.528 221H131.926V211.892H133.492V219.02L138.37 211.892ZM151.59 219.776V223.088H150.096V221H143.256V223.088H141.744V219.776H142.698C143.286 219.2 143.694 218.528 143.922 217.76C144.162 216.992 144.282 215.972 144.282 214.7V211.892H150.276V219.776H151.59ZM145.722 214.862C145.722 215.99 145.614 216.95 145.398 217.742C145.182 218.534 144.864 219.212 144.444 219.776H148.692V213.116H145.722V214.862ZM159.69 211.892H161.274V221H159.69V216.95H154.956V221H153.372V211.892H154.956V215.762H159.69V211.892ZM167.927 221.252C167.063 221.252 166.295 221.054 165.623 220.658C164.963 220.25 164.447 219.686 164.075 218.966C163.703 218.234 163.517 217.394 163.517 216.446C163.517 215.51 163.703 214.676 164.075 213.944C164.447 213.212 164.963 212.648 165.623 212.252C166.295 211.844 167.069 211.64 167.945 211.64C168.809 211.64 169.577 211.844 170.249 212.252C170.921 212.648 171.443 213.212 171.815 213.944C172.187 214.664 172.373 215.492 172.373 216.428C172.373 217.376 172.187 218.216 171.815 218.948C171.443 219.68 170.921 220.25 170.249 220.658C169.577 221.054 168.803 221.252 167.927 221.252ZM167.927 220.028C168.767 220.028 169.433 219.698 169.925 219.038C170.429 218.378 170.681 217.502 170.681 216.41C170.681 215.342 170.429 214.484 169.925 213.836C169.421 213.188 168.755 212.864 167.927 212.864C167.099 212.864 166.433 213.194 165.929 213.854C165.437 214.502 165.191 215.366 165.191 216.446C165.191 217.526 165.437 218.396 165.929 219.056C166.433 219.704 167.099 220.028 167.927 220.028ZM182.22 211.892H184.47V221H182.922V213.764L180.132 221H178.854L176.1 213.8V221H174.624V211.892H176.856L179.502 219.128L182.22 211.892ZM199.991 211.892H202.241V221H200.693V213.764L197.903 221H196.625L193.871 213.8V221H192.395V211.892H194.627L197.273 219.128L199.991 211.892ZM212.79 216.05C212.79 216.242 212.778 216.458 212.754 216.698H206.076C206.136 217.73 206.424 218.546 206.94 219.146C207.456 219.734 208.146 220.028 209.01 220.028C209.526 220.028 210.024 219.902 210.504 219.65C210.984 219.386 211.386 219.014 211.71 218.534L212.736 219.398C212.34 219.998 211.812 220.46 211.152 220.784C210.492 221.096 209.772 221.252 208.992 221.252C208.092 221.252 207.3 221.054 206.616 220.658C205.944 220.25 205.422 219.68 205.05 218.948C204.678 218.216 204.492 217.37 204.492 216.41C204.492 215.474 204.672 214.646 205.032 213.926C205.392 213.194 205.896 212.63 206.544 212.234C207.204 211.838 207.966 211.64 208.83 211.64C209.622 211.64 210.318 211.82 210.918 212.18C211.518 212.54 211.98 213.056 212.304 213.728C212.628 214.388 212.79 215.162 212.79 216.05ZM211.188 215.546C211.164 214.718 210.942 214.064 210.522 213.584C210.114 213.092 209.538 212.846 208.794 212.846C208.062 212.846 207.462 213.086 206.994 213.566C206.526 214.034 206.238 214.694 206.13 215.546H211.188ZM218.96 221.252C218.06 221.252 217.262 221.048 216.566 220.64C215.882 220.232 215.348 219.662 214.964 218.93C214.592 218.198 214.406 217.364 214.406 216.428C214.406 215.492 214.598 214.664 214.982 213.944C215.366 213.212 215.9 212.648 216.584 212.252C217.268 211.844 218.054 211.64 218.942 211.64C219.734 211.64 220.442 211.808 221.066 212.144C221.69 212.48 222.176 212.954 222.524 213.566L221.426 214.34C220.778 213.356 219.962 212.864 218.978 212.864C218.114 212.864 217.412 213.194 216.872 213.854C216.344 214.502 216.08 215.348 216.08 216.392C216.08 217.1 216.2 217.73 216.44 218.282C216.692 218.834 217.034 219.266 217.466 219.578C217.91 219.878 218.42 220.028 218.996 220.028C220.004 220.028 220.82 219.53 221.444 218.534L222.542 219.326C222.194 219.95 221.708 220.43 221.084 220.766C220.472 221.09 219.764 221.252 218.96 221.252ZM231.298 211.892V213.098H228.076V221H226.474V213.098H223.234V211.892H231.298ZM240.37 216.05C240.37 216.242 240.358 216.458 240.334 216.698H233.656C233.716 217.73 234.004 218.546 234.52 219.146C235.036 219.734 235.726 220.028 236.59 220.028C237.106 220.028 237.604 219.902 238.084 219.65C238.564 219.386 238.966 219.014 239.29 218.534L240.316 219.398C239.92 219.998 239.392 220.46 238.732 220.784C238.072 221.096 237.352 221.252 236.572 221.252C235.672 221.252 234.88 221.054 234.196 220.658C233.524 220.25 233.002 219.68 232.63 218.948C232.258 218.216 232.072 217.37 232.072 216.41C232.072 215.474 232.252 214.646 232.612 213.926C232.972 213.194 233.476 212.63 234.124 212.234C234.784 211.838 235.546 211.64 236.41 211.64C237.202 211.64 237.898 211.82 238.498 212.18C239.098 212.54 239.56 213.056 239.884 213.728C240.208 214.388 240.37 215.162 240.37 216.05ZM238.768 215.546C238.744 214.718 238.522 214.064 238.102 213.584C237.694 213.092 237.118 212.846 236.374 212.846C235.642 212.846 235.042 213.086 234.574 213.566C234.106 214.034 233.818 214.694 233.71 215.546H238.768ZM243.696 221.252C243.36 221.252 243.09 221.156 242.886 220.964C242.682 220.76 242.58 220.49 242.58 220.154C242.58 219.83 242.682 219.566 242.886 219.362C243.09 219.158 243.36 219.056 243.696 219.056C244.032 219.056 244.302 219.158 244.506 219.362C244.722 219.566 244.83 219.83 244.83 220.154C244.83 220.49 244.722 220.76 244.506 220.964C244.302 221.156 244.032 221.252 243.696 221.252Z" fill="#2F2F2F"/>
<path d="M364 108L352 120" stroke="#2F2F2F" stroke-width="2" stroke-linecap="round" stroke-linejoin="round"/>
<path d="M352 108L364 120" stroke="#2F2F2F" stroke-width="2" stroke-linecap="round" stroke-linejoin="round"/>
</g>
<defs>
<filter id="filter0_d_2_1797" x="0" y="0" width="440" height="297" filterUnits="userSpaceOnUse" color-interpolation-filters="sRGB">
<feFlood flood-opacity="0" result="BackgroundImageFix"/>
<feColorMatrix in="SourceAlpha" type="matrix" values="0 0 0 0 0 0 0 0 0 0 0 0 0 0 0 0 0 0 127 0" result="hardAlpha"/>
<feOffset/>
<feGaussianBlur stdDeviation="25"/>
<feComposite in2="hardAlpha" operator="out"/>
<feColorMatrix type="matrix" values="0 0 0 0 0 0 0 0 0 0 0 0 0 0 0 0 0 0 0.25 0"/>
<feBlend mode="normal" in2="BackgroundImageFix" result="effect1_dropShadow_2_1797"/>
<feBlend mode="normal" in="SourceGraphic" in2="effect1_dropShadow_2_1797" result="shape"/>
</filter>
</defs>
</svg>
