<svg width="64" height="64" viewBox="0 0 64 64" fill="none" xmlns="http://www.w3.org/2000/svg">
<path d="M32 0C49.6731 0 64 14.3269 64 32C64 49.6731 49.6731 64 32 64C14.3269 64 0 49.6731 0 32C5.15408e-06 14.3269 14.3269 9.2779e-06 32 0ZM48.082 21.9609C47.5083 21.3635 46.5585 21.3443 45.9609 21.918L28.1592 39.0068L17.9375 30.8291C17.2908 30.3117 16.3467 30.416 15.8291 31.0625C15.3117 31.7092 15.416 32.6533 16.0625 33.1709L27.3125 42.1709C27.9002 42.6411 28.7461 42.6033 29.2891 42.082L48.0391 24.082C48.6365 23.5083 48.6557 22.5585 48.082 21.9609Z" fill="#6E703E"/>
</svg>
