<svg width="64" height="64" viewBox="0 0 64 64" fill="none" xmlns="http://www.w3.org/2000/svg">
<path d="M32 0C49.6731 0 64 14.3269 64 32C64 49.6731 49.6731 64 32 64C14.3269 64 0 49.6731 0 32C5.15408e-06 14.3269 14.3269 9.2779e-06 32 0ZM32 14.5C29.8099 14.5001 27.7244 15.4142 26.1992 17.0156C24.6764 18.6147 23.833 20.7687 23.833 23V27.0996H22.667C20.2979 27.0996 18.5003 29.0946 18.5 31.3994V41.1992C18.5 43.5042 20.2977 45.5 22.667 45.5H41.333C43.7023 45.5 45.5 43.5042 45.5 41.1992V31.3994C45.4997 29.0947 43.7021 27.0996 41.333 27.0996H40.166V23C40.166 20.7686 39.3227 18.6147 37.7998 17.0156C36.2746 15.4144 34.1899 14.5001 32 14.5ZM41.333 30.0996C41.9091 30.0996 42.4997 30.612 42.5 31.3994V41.1992C42.5 41.987 41.9092 42.5 41.333 42.5H22.667C22.0908 42.5 21.5 41.987 21.5 41.1992V31.3994C21.5003 30.612 22.0909 30.0996 22.667 30.0996H41.333ZM32 17.5C33.3458 17.5001 34.6528 18.0612 35.6279 19.085C36.6053 20.1114 37.166 21.5185 37.166 23V27.0996H26.833V23C26.833 21.5184 27.3946 20.1114 28.3721 19.085C29.3472 18.0611 30.6541 17.5001 32 17.5Z" fill="#E4844E"/>
</svg>
