<svg width="1280" height="720" viewBox="0 0 1280 720" fill="none" xmlns="http://www.w3.org/2000/svg">
<g clip-path="url(#clip0_2_751)">
<rect width="1280" height="720" fill="#6E703E"/>
<path d="M53.384 116V113.912H57.056V68.192H53.384V66.104H97.16V68.192H93.488V113.912H97.16V116H79.952V113.912H83.624V68.192H66.92V113.912H70.592V116H53.384ZM104.731 100.808C104.731 95.264 106.459 89.792 111.139 85.688C113.155 83.96 116.899 81.8 121.723 81.8C123.595 81.8 125.683 86.552 126.979 89.72C129.643 96.344 131.515 101.672 131.515 105.992C131.515 112.112 128.203 116.936 121.939 116.936C119.851 116.936 116.899 116.432 114.739 114.992L114.595 115.136C115.099 118.304 115.891 123.416 115.891 124.64C115.891 128.744 115.099 130.472 113.875 132.416C112.219 135.152 108.907 137.096 106.387 137.096C105.883 137.096 105.451 136.664 105.451 136.304C105.451 135.8 106.243 134.936 106.603 134.648C107.539 133.712 108.259 131.48 108.259 129.248C108.259 126.368 107.395 121.184 106.027 113.624C105.019 107.792 104.731 103.184 104.731 100.808ZM110.419 93.752C110.419 96.128 110.851 99.944 111.643 103.688C112.291 106.856 113.803 110.6 114.307 111.536C115.459 113.624 117.763 114.416 119.059 114.416C121.651 114.416 123.379 112.976 123.379 109.16C123.379 104.912 122.155 100.232 119.851 94.04C118.915 91.52 116.755 85.544 115.387 85.544C114.163 85.544 110.419 88.064 110.419 93.752ZM136.614 109.448C136.614 105.2 139.926 101.384 143.094 97.928C144.894 95.984 148.71 91.304 149.142 89.432C149.286 88.712 149.43 87.776 149.43 86.912C149.43 86.12 149.07 84.392 148.638 83.456C149.07 83.096 151.302 82.592 152.598 82.592C156.342 82.592 157.71 82.88 158.07 85.328C158.43 87.848 159.798 94.256 160.23 95.984C160.806 98.216 161.886 102.536 163.11 106.568C164.262 110.456 164.982 113.912 164.982 114.344C164.982 115.28 164.622 116 163.326 116H158.214C156.702 116 156.27 114.056 155.694 111.392H155.55C153.534 115.064 149.718 117.512 145.902 117.512C140.79 117.512 136.614 116 136.614 109.448ZM144.678 108.224C144.678 111.896 146.622 114.2 148.71 114.2C151.374 114.2 153.102 112.04 154.974 109.016C154.542 107.216 153.966 105.056 153.318 102.608C152.094 98.072 151.374 95.12 150.942 92.528C150.87 91.88 150.51 91.448 150.222 91.448C149.79 91.448 149.286 92.6 148.782 93.968C148.062 95.768 147.774 96.488 146.694 98.936C145.11 102.608 144.678 105.848 144.678 108.224ZM173.172 113.12V84.608C173.172 83.024 174.036 82.736 176.196 82.736H195.42C197.652 82.736 198.444 83.024 198.444 84.536C198.444 88.496 192.9 93.032 189.3 95.336C187.788 96.272 187.212 96.776 187.212 97.208C187.212 98.216 190.596 99.44 192.828 99.944C196.932 100.808 197.868 102.176 198.372 103.256C198.948 104.624 199.812 107.576 199.812 111.536C199.812 114.848 199.092 116 198.012 116H176.412C174.756 116 173.172 115.352 173.172 113.12ZM181.308 111.536C181.308 112.832 181.74 113.912 182.892 113.912H190.596C191.316 113.912 191.676 113.336 191.676 111.752C191.676 109.376 191.604 106.496 190.956 104.624C190.452 103.112 189.012 101.6 187.644 100.448C186.852 99.8 185.412 98.648 184.908 98.648C184.62 98.648 184.116 98.864 183.18 99.512C182.028 100.304 181.308 100.952 181.308 102.464V111.536ZM181.308 98.144L181.452 98.216C182.244 97.64 182.604 97.424 182.964 97.208C186.42 94.976 190.74 91.664 190.74 87.2C190.74 85.904 190.236 84.824 188.292 84.824H183.612C182.892 84.824 181.308 84.968 181.308 85.976V98.144ZM208.258 116V83.672C210.49 82.664 211.93 82.448 213.874 82.448C214.882 82.448 216.394 82.736 216.394 83.24V101.384L227.842 90.008V83.672C230.074 82.664 231.514 82.448 233.458 82.448C234.466 82.448 235.906 82.736 235.906 83.24V116C234.682 116.216 233.386 116.36 231.874 116.36C230.362 116.36 229.066 116.216 227.842 116V93.032L216.394 104.408V116C215.17 116.216 213.802 116.36 212.29 116.36C210.778 116.36 209.482 116.216 208.258 116ZM244.346 114.128C244.346 109.304 245.57 104.768 247.37 101.456C249.602 97.208 251.834 94.544 255.434 91.088C256.082 90.512 256.514 90.08 256.73 89.648C256.874 89.36 256.946 88.28 256.946 87.56C256.946 87.056 256.514 84.392 256.154 83.456C256.586 83.096 258.026 82.592 259.322 82.592C263.066 82.592 264.362 82.88 264.866 85.328C266.378 92.096 269.33 101.672 272.138 108.944C273.218 111.68 273.866 113.768 273.866 114.416C273.866 115.352 273.578 116 272.282 116H267.53C266.306 116 265.946 115.208 265.01 112.76C263.066 107.648 260.978 101.24 258.746 93.104C258.53 92.312 258.026 92.096 257.81 92.096C257.234 92.096 255.578 93.824 254.93 94.688C253.418 96.848 252.122 99.224 252.122 103.256C252.122 104.408 252.554 107.936 252.986 109.448C253.418 110.96 254.138 113.696 254.138 114.632C254.138 115.568 253.562 116 252.05 116H245.858C244.922 116 244.346 115.568 244.346 114.128ZM278.504 109.448C278.504 105.2 281.816 101.384 284.984 97.928C286.784 95.984 290.6 91.304 291.032 89.432C291.176 88.712 291.32 87.776 291.32 86.912C291.32 86.12 290.96 84.392 290.528 83.456C290.96 83.096 293.192 82.592 294.488 82.592C298.232 82.592 299.6 82.88 299.96 85.328C300.32 87.848 301.688 94.256 302.12 95.984C302.696 98.216 303.776 102.536 305 106.568C306.152 110.456 306.872 113.912 306.872 114.344C306.872 115.28 306.512 116 305.216 116H300.104C298.592 116 298.16 114.056 297.584 111.392H297.44C295.424 115.064 291.608 117.512 287.792 117.512C282.68 117.512 278.504 116 278.504 109.448ZM286.568 108.224C286.568 111.896 288.512 114.2 290.6 114.2C293.264 114.2 294.992 112.04 296.864 109.016C296.432 107.216 295.856 105.056 295.208 102.608C293.984 98.072 293.264 95.12 292.832 92.528C292.76 91.88 292.4 91.448 292.112 91.448C291.68 91.448 291.176 92.6 290.672 93.968C289.952 95.768 289.664 96.488 288.584 98.936C287 102.608 286.568 105.848 286.568 108.224ZM55.328 217V184.672C57.56 183.664 59 183.448 60.944 183.448C61.952 183.448 63.464 183.736 63.464 184.24V202.384L74.912 191.008V184.672C77.144 183.664 78.584 183.448 80.528 183.448C81.536 183.448 82.976 183.736 82.976 184.24V217C81.752 217.216 80.456 217.36 78.944 217.36C77.432 217.36 76.136 217.216 74.912 217V194.032L63.464 205.408V217C62.24 217.216 60.872 217.36 59.36 217.36C57.848 217.36 56.552 217.216 55.328 217ZM91.7043 200.224C91.7043 194.752 94.3683 190 97.6083 186.976C100.128 184.672 103.944 183.016 106.608 183.016C109.416 183.016 114.096 186.112 114.096 187.552C114.096 188.56 110.352 191.8 109.272 191.8C108.696 191.8 106.968 190.504 106.104 189.784C104.16 188.128 102.864 187.768 101.928 187.768C100.416 187.768 99.1203 189.856 99.1203 193.456C99.1203 197.56 100.416 205.048 102.864 208.576C104.088 210.304 105.888 212.32 108.336 212.32C109.776 212.32 111.72 210.808 112.8 209.8C113.52 209.152 114.24 208.504 114.456 208.504C114.816 208.504 115.608 209.296 115.608 209.728C115.608 210.952 112.872 213.76 110.64 215.416C108.912 216.712 105.888 218.152 103.656 218.152C100.632 218.152 96.7443 215.488 94.5843 211.384C93.5043 209.44 91.7043 204.616 91.7043 200.224ZM122.476 217V186.688C122.476 184.384 122.98 183.736 124.492 183.736H147.892C149.404 183.736 149.836 184.384 149.836 186.688V217C148.612 217.216 147.316 217.36 145.804 217.36C144.292 217.36 142.996 217.216 141.772 217V187.912C141.772 186.4 141.412 185.824 140.188 185.824H132.124C130.9 185.824 130.612 186.4 130.612 187.912V217C129.388 217.216 128.02 217.36 126.508 217.36C124.996 217.36 123.7 217.216 122.476 217ZM157.708 201.52C157.708 194.392 162.532 190.216 166.636 186.76C167.716 185.824 171.892 182.656 173.116 182.656C174.268 182.656 179.452 186.76 181.252 188.92C185.284 193.744 187.516 197.776 187.516 201.52C187.516 207.928 181.9 212.32 176.788 216.208C175.276 217.36 172.396 218.656 171.604 218.656C170.092 218.656 165.628 215.2 164.116 213.688C161.164 210.592 157.708 206.272 157.708 201.52ZM163.108 195.976C163.108 198.136 165.124 202.096 168.076 205.48C170.884 208.792 175.204 213.112 176.572 213.112C177.076 213.112 178.372 212.176 179.74 210.88C181.036 209.656 181.54 207.856 181.54 205.768C181.54 203.608 179.596 199.648 176.644 196.264C173.836 192.952 169.516 188.632 168.148 188.632C167.644 188.632 166.348 189.568 164.98 190.864C163.684 192.088 163.108 193.888 163.108 195.976ZM191.682 215.128C191.682 210.304 192.906 205.768 194.706 202.456C196.938 198.208 199.17 195.544 202.77 192.088C203.418 191.512 203.85 191.08 204.066 190.648C204.21 190.36 204.282 189.28 204.282 188.56C204.282 188.056 203.85 185.392 203.49 184.456C203.922 184.096 205.362 183.592 206.658 183.592C210.402 183.592 211.698 183.88 212.202 186.328C213.714 193.096 216.666 202.672 219.474 209.944C220.554 212.68 221.202 214.768 221.202 215.416C221.202 216.352 220.914 217 219.618 217H214.866C213.642 217 213.282 216.208 212.346 213.76C210.402 208.648 208.314 202.24 206.082 194.104C205.866 193.312 205.362 193.096 205.146 193.096C204.57 193.096 202.914 194.824 202.266 195.688C200.754 197.848 199.458 200.224 199.458 204.256C199.458 205.408 199.89 208.936 200.322 210.448C200.754 211.96 201.474 214.696 201.474 215.632C201.474 216.568 200.898 217 199.386 217H193.194C192.258 217 191.682 216.568 191.682 215.128ZM228.648 215.344V184.672C230.88 183.664 232.32 183.448 234.264 183.448C235.272 183.448 236.784 183.736 236.784 184.24V197.992C236.784 198.712 236.856 199.432 237.576 199.432C239.16 199.432 241.104 198.64 242.616 197.776C243.552 197.2 245.28 196.192 245.928 196.192C247.296 196.192 250.032 201.448 252.192 205.624C254.208 209.368 256.656 214.408 256.656 215.632C256.656 217 255.432 217 253.92 217H231.888C230.448 217 228.648 216.712 228.648 215.344ZM236.784 213.832C236.784 214.624 237.432 214.912 238.44 214.912H244.92C246.504 214.912 247.44 214.624 247.44 213.76C247.44 212.968 246.864 211.6 245.496 208.936C243.048 204.184 241.896 202.168 241.104 201.88C240.744 201.736 239.736 201.52 239.088 201.52C237.072 201.52 236.784 201.808 236.784 202.816V213.832ZM259.481 222.04C260.129 218.8 263.009 213.976 266.105 213.976C268.049 213.976 270.497 215.272 271.577 215.848C273.305 216.856 276.689 217.936 278.777 217.936C283.097 217.936 285.617 213.688 285.617 209.368C285.617 206.128 282.953 202.528 279.929 202.528C278.849 202.528 278.345 202.744 277.337 203.536C276.545 204.184 275.321 205.048 274.817 205.048C273.593 205.048 269.705 203.896 269.705 202.96C269.705 202.168 273.017 199 274.169 199C275.249 199 276.473 199.288 277.265 199.504C278.633 199.864 279.929 200.008 280.433 200.008C282.665 200.008 284.105 197.056 284.105 192.592C284.105 188.416 282.593 184.672 277.625 184.672C273.233 184.672 271.217 187.192 270.857 191.584C270.569 194.968 269.201 195.04 265.025 195.04C263.441 195.04 262.577 194.752 262.577 193.456C262.577 186.472 269.777 182.512 278.273 182.512C286.625 182.512 292.241 186.472 292.241 192.016C292.241 196.984 287.057 199.936 283.313 201.088V201.448C288.497 202.672 293.609 205.12 293.897 211.528C293.897 217.432 289.937 221.824 283.961 221.824C281.369 221.824 278.921 221.032 277.625 220.384C276.545 219.88 273.233 218.512 271.865 218.512C270.281 218.512 269.345 219.952 268.409 221.464C267.401 223.12 266.537 224.2 264.089 224.2C263.009 224.2 260.129 222.76 259.481 222.04ZM299.528 201.52C299.528 194.392 304.352 190.216 308.456 186.76C309.536 185.824 313.712 182.656 314.936 182.656C316.088 182.656 321.272 186.76 323.072 188.92C327.104 193.744 329.336 197.776 329.336 201.52C329.336 207.928 323.72 212.32 318.608 216.208C317.096 217.36 314.216 218.656 313.424 218.656C311.912 218.656 307.448 215.2 305.936 213.688C302.984 210.592 299.528 206.272 299.528 201.52ZM304.928 195.976C304.928 198.136 306.944 202.096 309.896 205.48C312.704 208.792 317.024 213.112 318.392 213.112C318.896 213.112 320.192 212.176 321.56 210.88C322.856 209.656 323.36 207.856 323.36 205.768C323.36 203.608 321.416 199.648 318.464 196.264C315.656 192.952 311.336 188.632 309.968 188.632C309.464 188.632 308.168 189.568 306.8 190.864C305.504 192.088 304.928 193.888 304.928 195.976ZM336.578 214.12V185.608C336.578 184.024 337.442 183.736 339.602 183.736H358.826C361.058 183.736 361.85 184.024 361.85 185.536C361.85 189.496 356.306 194.032 352.706 196.336C351.194 197.272 350.618 197.776 350.618 198.208C350.618 199.216 354.002 200.44 356.234 200.944C360.338 201.808 361.274 203.176 361.778 204.256C362.354 205.624 363.218 208.576 363.218 212.536C363.218 215.848 362.498 217 361.418 217H339.818C338.162 217 336.578 216.352 336.578 214.12ZM344.714 212.536C344.714 213.832 345.146 214.912 346.298 214.912H354.002C354.722 214.912 355.082 214.336 355.082 212.752C355.082 210.376 355.01 207.496 354.362 205.624C353.858 204.112 352.418 202.6 351.05 201.448C350.258 200.8 348.818 199.648 348.314 199.648C348.026 199.648 347.522 199.864 346.586 200.512C345.434 201.304 344.714 201.952 344.714 203.464V212.536ZM344.714 199.144L344.858 199.216C345.65 198.64 346.01 198.424 346.37 198.208C349.826 195.976 354.146 192.664 354.146 188.2C354.146 186.904 353.642 185.824 351.698 185.824H347.018C346.298 185.824 344.714 185.968 344.714 186.976V199.144ZM368.856 210.448C368.856 206.2 372.168 202.384 375.336 198.928C377.136 196.984 380.952 192.304 381.384 190.432C381.528 189.712 381.672 188.776 381.672 187.912C381.672 187.12 381.312 185.392 380.88 184.456C381.312 184.096 383.544 183.592 384.84 183.592C388.584 183.592 389.952 183.88 390.312 186.328C390.672 188.848 392.04 195.256 392.472 196.984C393.048 199.216 394.128 203.536 395.352 207.568C396.504 211.456 397.224 214.912 397.224 215.344C397.224 216.28 396.864 217 395.568 217H390.456C388.944 217 388.512 215.056 387.936 212.392H387.792C385.776 216.064 381.96 218.512 378.144 218.512C373.032 218.512 368.856 217 368.856 210.448ZM376.92 209.224C376.92 212.896 378.864 215.2 380.952 215.2C383.616 215.2 385.344 213.04 387.216 210.016C386.784 208.216 386.208 206.056 385.56 203.608C384.336 199.072 383.616 196.12 383.184 193.528C383.112 192.88 382.752 192.448 382.464 192.448C382.032 192.448 381.528 193.6 381.024 194.968C380.304 196.768 380.016 197.488 378.936 199.936C377.352 203.608 376.92 206.848 376.92 209.224ZM405.414 217V184.672C407.646 183.664 409.086 183.448 411.03 183.448C412.038 183.448 413.55 183.736 413.55 184.24V191.008L424.998 202.384V184.672C427.23 183.664 428.67 183.448 430.614 183.448C431.622 183.448 433.062 183.736 433.062 184.24V217C431.838 217.216 430.542 217.36 429.03 217.36C427.518 217.36 426.222 217.216 424.998 217V205.408L413.55 194.032V217C412.326 217.216 410.958 217.36 409.446 217.36C407.934 217.36 406.638 217.216 405.414 217ZM443.734 217V184.672C445.966 183.664 447.406 183.448 449.35 183.448C450.358 183.448 451.87 183.736 451.87 184.24V202.384L463.318 191.008V184.672C465.55 183.664 466.99 183.448 468.934 183.448C469.942 183.448 471.382 183.736 471.382 184.24V217C470.158 217.216 468.862 217.36 467.35 217.36C465.838 217.36 464.542 217.216 463.318 217V194.032L451.87 205.408V217C450.646 217.216 449.278 217.36 447.766 217.36C446.254 217.36 444.958 217.216 443.734 217ZM480.111 215.56C480.111 208.792 485.151 202.6 490.335 200.296C492.135 199.504 492.927 198.928 492.927 198.496C492.927 197.992 491.559 197.344 490.047 196.696C486.663 195.184 481.767 191.584 481.767 187.048C481.767 184.528 484.071 183.736 487.239 183.736H506.463C507.543 183.736 508.047 184.96 508.047 185.968V217C506.823 217.216 505.455 217.36 503.943 217.36C502.431 217.36 501.135 217.216 499.911 217V200.224C499.911 199.432 499.767 199.216 498.615 199.216C494.799 199.216 492.063 202.6 490.551 205.912C489.543 208.072 488.823 210.52 488.823 214.48C488.823 217.144 488.679 217.288 483.207 217.288C480.255 217.288 480.111 217 480.111 215.56ZM490.263 188.704C490.263 193.384 494.151 197.128 498.543 197.128C499.839 197.128 499.911 196.768 499.911 195.76V187.912C499.911 186.76 499.767 185.824 496.959 185.824C492.207 185.824 490.263 186.256 490.263 188.704ZM535.165 217V214.912H538.837V169.192H535.165V167.104H552.373V169.192H548.701V202.96L565.405 176.104V169.192H561.733V167.104H578.941V169.192H575.269V214.912H578.941V217H561.733V214.912H565.405V180.784L548.701 207.64V214.912H552.373V217H535.165ZM583.632 167.536C583.632 167.248 583.848 167.104 584.424 167.104H631.224C631.8 167.104 632.016 167.248 632.016 167.536C632.016 167.896 631.8 168.544 631.656 168.832C629.712 172.648 628.128 179.416 627.912 182.656C627.912 183.088 627.192 183.304 626.76 183.304C626.4 183.304 625.68 183.16 625.608 182.656C625.176 180.496 624.168 175.96 622.512 173.656C620.712 171.208 618.624 169.192 615.24 169.192H612.792V214.912H616.464V217H599.184V214.912H602.856V169.192H600.408C597.024 169.192 594.936 171.208 593.136 173.656C591.48 175.96 590.472 180.496 590.04 182.656C589.968 183.16 589.248 183.304 588.888 183.304C588.456 183.304 587.736 183.088 587.736 182.656C587.52 179.416 585.936 172.648 583.992 168.832C583.848 168.544 583.632 167.896 583.632 167.536ZM635.545 199.432C635.545 199 635.688 198.568 636.121 197.632C636.625 196.48 636.913 195.976 637.417 195.976H656.209C656.713 195.976 657.361 196.336 657.361 196.768C657.361 197.2 657.217 197.632 656.785 198.568C656.281 199.72 656.065 200.296 655.561 200.296H636.697C636.193 200.296 635.545 199.864 635.545 199.432ZM54.176 302.808C54.176 297.264 55.904 291.792 60.584 287.688C62.6 285.96 66.344 283.8 71.168 283.8C73.04 283.8 75.128 288.552 76.424 291.72C79.088 298.344 80.96 303.672 80.96 307.992C80.96 314.112 77.648 318.936 71.384 318.936C69.296 318.936 66.344 318.432 64.184 316.992L64.04 317.136C64.544 320.304 65.336 325.416 65.336 326.64C65.336 330.744 64.544 332.472 63.32 334.416C61.664 337.152 58.352 339.096 55.832 339.096C55.328 339.096 54.896 338.664 54.896 338.304C54.896 337.8 55.688 336.936 56.048 336.648C56.984 335.712 57.704 333.48 57.704 331.248C57.704 328.368 56.84 323.184 55.472 315.624C54.464 309.792 54.176 305.184 54.176 302.808ZM59.864 295.752C59.864 298.128 60.296 301.944 61.088 305.688C61.736 308.856 63.248 312.6 63.752 313.536C64.904 315.624 67.208 316.416 68.504 316.416C71.096 316.416 72.824 314.976 72.824 311.16C72.824 306.912 71.6 302.232 69.296 296.04C68.36 293.52 66.2 287.544 64.832 287.544C63.608 287.544 59.864 290.064 59.864 295.752ZM86.9231 300.648C86.9231 295.464 88.7951 290.64 92.5391 287.616C95.5631 285.168 98.9471 284.016 103.195 284.016C105.211 284.016 107.947 284.952 107.947 285.888C107.947 286.896 106.435 291 104.491 291C102.835 291 101.539 290.496 100.387 290.064C99.1631 289.56 98.2991 289.416 97.1471 289.416C95.3471 289.416 93.8351 292.008 93.8351 296.04C93.8351 296.832 93.9071 300.216 94.8431 300.216C95.5631 300.216 98.7311 299.136 100.747 298.344C102.835 297.552 105.283 296.76 106.075 296.76C106.939 296.76 107.155 297.336 107.155 298.056C107.155 299.928 107.083 301.8 106.219 302.376C105.355 303.024 98.8031 304.824 96.8591 305.328C96.3551 305.472 96.0671 305.904 96.0671 306.336C96.0671 307.632 96.6431 309.144 97.5071 310.44C99.0191 312.744 100.387 313.608 101.899 313.608C104.347 313.608 106.651 311.952 108.091 310.584C108.667 310.008 109.099 309.576 109.459 309.576C109.963 309.576 110.827 310.44 110.827 310.872C110.827 312.384 108.667 314.688 105.787 316.704C103.627 318.216 99.7391 319.152 97.0031 319.152C94.2671 319.152 91.8911 316.416 90.0911 313.392C88.8671 311.376 86.9231 306.336 86.9231 300.648ZM115.751 301.224C115.751 295.752 118.415 291 121.655 287.976C124.175 285.672 127.991 284.016 130.655 284.016C133.463 284.016 138.143 287.112 138.143 288.552C138.143 289.56 134.399 292.8 133.319 292.8C132.743 292.8 131.015 291.504 130.151 290.784C128.207 289.128 126.911 288.768 125.975 288.768C124.463 288.768 123.167 290.856 123.167 294.456C123.167 298.56 124.463 306.048 126.911 309.576C128.135 311.304 129.935 313.32 132.383 313.32C133.823 313.32 135.767 311.808 136.847 310.8C137.567 310.152 138.287 309.504 138.503 309.504C138.863 309.504 139.655 310.296 139.655 310.728C139.655 311.952 136.919 314.76 134.687 316.416C132.959 317.712 129.935 319.152 127.703 319.152C124.679 319.152 120.791 316.488 118.631 312.384C117.551 310.44 115.751 305.616 115.751 301.224ZM142.851 285.744C142.851 284.808 144.219 284.448 145.299 284.448C149.187 284.448 151.347 284.592 152.283 288.048L159.339 314.472C159.627 315.696 159.843 315.912 160.419 315.912H161.211C161.571 312.816 162.219 307.704 162.651 304.896C163.947 296.4 166.251 283.656 174.027 283.656C175.899 283.656 177.843 284.232 179.355 284.808C177.627 287.904 177.123 289.848 176.475 292.656C176.259 293.664 176.043 294.24 175.683 294.24C175.179 294.24 174.171 293.52 173.019 292.584C172.155 291.936 171.075 291.504 170.139 291.504C166.971 291.504 165.675 301.512 165.315 304.248C164.811 308.352 164.019 315.408 163.731 320.376C163.443 324.84 162.939 331.752 161.787 337.44C159.771 338.304 158.115 338.736 156.315 338.736C155.091 338.736 153.435 338.736 153.435 338.016C153.435 337.656 153.723 337.08 154.227 336.36C157.899 330.888 160.275 324.48 160.851 318H155.091C152.571 318 151.995 317.856 151.347 315.408L145.299 293.16C145.011 291.936 143.859 288.48 143.067 286.536C142.923 286.104 142.851 285.816 142.851 285.744ZM180.949 302.808C180.949 297.264 182.677 291.792 187.357 287.688C189.373 285.96 193.117 283.8 197.941 283.8C199.813 283.8 201.901 288.552 203.197 291.72C205.861 298.344 207.733 303.672 207.733 307.992C207.733 314.112 204.421 318.936 198.157 318.936C196.069 318.936 193.117 318.432 190.957 316.992L190.813 317.136C191.317 320.304 192.109 325.416 192.109 326.64C192.109 330.744 191.317 332.472 190.093 334.416C188.437 337.152 185.125 339.096 182.605 339.096C182.101 339.096 181.669 338.664 181.669 338.304C181.669 337.8 182.461 336.936 182.821 336.648C183.757 335.712 184.477 333.48 184.477 331.248C184.477 328.368 183.613 323.184 182.245 315.624C181.237 309.792 180.949 305.184 180.949 302.808ZM186.637 295.752C186.637 298.128 187.069 301.944 187.861 305.688C188.509 308.856 190.021 312.6 190.525 313.536C191.677 315.624 193.981 316.416 195.277 316.416C197.869 316.416 199.597 314.976 199.597 311.16C199.597 306.912 198.373 302.232 196.069 296.04C195.133 293.52 192.973 287.544 191.605 287.544C190.381 287.544 186.637 290.064 186.637 295.752ZM213.697 301.224C213.697 295.752 216.361 291 219.601 287.976C222.121 285.672 225.937 284.016 228.601 284.016C231.409 284.016 236.089 287.112 236.089 288.552C236.089 289.56 232.345 292.8 231.265 292.8C230.689 292.8 228.961 291.504 228.097 290.784C226.153 289.128 224.857 288.768 223.921 288.768C222.409 288.768 221.113 290.856 221.113 294.456C221.113 298.56 222.409 306.048 224.857 309.576C226.081 311.304 227.881 313.32 230.329 313.32C231.769 313.32 233.713 311.808 234.793 310.8C235.513 310.152 236.233 309.504 236.449 309.504C236.809 309.504 237.601 310.296 237.601 310.728C237.601 311.952 234.865 314.76 232.633 316.416C230.905 317.712 227.881 319.152 225.649 319.152C222.625 319.152 218.737 316.488 216.577 312.384C215.497 310.44 213.697 305.616 213.697 301.224ZM241.661 302.52C241.661 295.392 246.485 291.216 250.589 287.76C251.669 286.824 255.845 283.656 257.069 283.656C258.221 283.656 263.405 287.76 265.205 289.92C269.237 294.744 271.469 298.776 271.469 302.52C271.469 308.928 265.853 313.32 260.741 317.208C259.229 318.36 256.349 319.656 255.557 319.656C254.045 319.656 249.581 316.2 248.069 314.688C245.117 311.592 241.661 307.272 241.661 302.52ZM247.061 296.976C247.061 299.136 249.077 303.096 252.029 306.48C254.837 309.792 259.157 314.112 260.525 314.112C261.029 314.112 262.325 313.176 263.693 311.88C264.989 310.656 265.493 308.856 265.493 306.768C265.493 304.608 263.549 300.648 260.597 297.264C257.789 293.952 253.469 289.632 252.101 289.632C251.597 289.632 250.301 290.568 248.933 291.864C247.637 293.088 247.061 294.888 247.061 296.976ZM278.711 315.12V286.608C278.711 285.024 279.575 284.736 281.735 284.736H300.959C303.191 284.736 303.983 285.024 303.983 286.536C303.983 290.496 298.439 295.032 294.839 297.336C293.327 298.272 292.751 298.776 292.751 299.208C292.751 300.216 296.135 301.44 298.367 301.944C302.471 302.808 303.407 304.176 303.911 305.256C304.487 306.624 305.351 309.576 305.351 313.536C305.351 316.848 304.631 318 303.551 318H281.951C280.295 318 278.711 317.352 278.711 315.12ZM286.847 313.536C286.847 314.832 287.279 315.912 288.431 315.912H296.135C296.855 315.912 297.215 315.336 297.215 313.752C297.215 311.376 297.143 308.496 296.495 306.624C295.991 305.112 294.551 303.6 293.183 302.448C292.391 301.8 290.951 300.648 290.447 300.648C290.159 300.648 289.655 300.864 288.719 301.512C287.567 302.304 286.847 302.952 286.847 304.464V313.536ZM286.847 300.144L286.991 300.216C287.783 299.64 288.143 299.424 288.503 299.208C291.959 296.976 296.279 293.664 296.279 289.2C296.279 287.904 295.775 286.824 293.831 286.824H289.151C288.431 286.824 286.847 286.968 286.847 287.976V300.144Z" fill="white"/>
<path d="M59.184 402.352C61.2533 402.352 63.0667 402.853 64.624 403.856C66.2027 404.859 67.4293 406.277 68.304 408.112C69.1787 409.947 69.616 412.059 69.616 414.448C69.616 416.816 69.1787 418.907 68.304 420.72C67.4293 422.533 66.2027 423.941 64.624 424.944C63.0453 425.947 61.232 426.448 59.184 426.448C57.584 426.448 56.1013 426.117 54.736 425.456C53.3707 424.795 52.2293 423.824 51.312 422.544L53.296 420.848C54.0853 421.893 54.9707 422.693 55.952 423.248C56.9547 423.781 58.0213 424.048 59.152 424.048C60.5173 424.048 61.744 423.707 62.832 423.024C63.92 422.32 64.7947 421.328 65.456 420.048C66.1173 418.747 66.5013 417.221 66.608 415.472H55.024V413.104H66.576C66.3627 410.48 65.5733 408.432 64.208 406.96C62.864 405.488 61.1787 404.752 59.152 404.752C56.8693 404.752 54.9387 405.797 53.36 407.888L51.376 406.192C52.272 404.912 53.4027 403.952 54.768 403.312C56.1333 402.672 57.6053 402.352 59.184 402.352ZM71.0165 423.536H71.4005C72.4245 423.536 73.2672 423.024 73.9285 422C74.5898 420.955 74.9205 419.035 74.9205 416.24V409.808H85.3525V426H82.5365V411.984H77.4805V416.56C77.4805 419.184 77.0432 421.413 76.1685 423.248C75.2938 425.083 73.7792 426 71.6245 426H71.0165V423.536ZM104.098 417.2C104.098 417.541 104.077 417.925 104.034 418.352H92.1623C92.2689 420.187 92.7809 421.637 93.6983 422.704C94.6156 423.749 95.8423 424.272 97.3783 424.272C98.2956 424.272 99.1809 424.048 100.034 423.6C100.888 423.131 101.602 422.469 102.178 421.616L104.002 423.152C103.298 424.219 102.36 425.04 101.186 425.616C100.013 426.171 98.7329 426.448 97.3463 426.448C95.7463 426.448 94.3383 426.096 93.1223 425.392C91.9276 424.667 90.9996 423.653 90.3383 422.352C89.6769 421.051 89.3463 419.547 89.3463 417.84C89.3463 416.176 89.6663 414.704 90.3063 413.424C90.9463 412.123 91.8423 411.12 92.9943 410.416C94.1676 409.712 95.5223 409.36 97.0583 409.36C98.4663 409.36 99.7036 409.68 100.77 410.32C101.837 410.96 102.658 411.877 103.234 413.072C103.81 414.245 104.098 415.621 104.098 417.2ZM101.25 416.304C101.208 414.832 100.813 413.669 100.066 412.816C99.3409 411.941 98.3169 411.504 96.9943 411.504C95.6929 411.504 94.6263 411.931 93.7943 412.784C92.9623 413.616 92.4503 414.789 92.2583 416.304H101.25ZM119.227 426L113.787 418.832H110.907V426H108.091V409.808H110.907V416.72H113.723L118.779 409.808H122.107L116.187 417.584L122.651 426H119.227ZM137.94 409.808V411.952H132.212V426H129.364V411.952H123.604V409.808H137.94ZM149.286 409.36C150.673 409.36 151.9 409.723 152.966 410.448C154.033 411.152 154.854 412.144 155.43 413.424C156.028 414.704 156.326 416.187 156.326 417.872C156.326 419.579 156.017 421.083 155.398 422.384C154.801 423.664 153.958 424.667 152.87 425.392C151.804 426.096 150.577 426.448 149.19 426.448C148.038 426.448 146.982 426.192 146.022 425.68C145.084 425.147 144.337 424.411 143.782 423.472V432.08H140.966V409.808H143.398L143.686 412.752C144.22 411.707 144.977 410.885 145.958 410.288C146.961 409.669 148.07 409.36 149.286 409.36ZM148.614 424.272C150.065 424.272 151.217 423.707 152.07 422.576C152.924 421.424 153.35 419.877 153.35 417.936C153.35 415.973 152.913 414.416 152.038 413.264C151.185 412.112 150.033 411.536 148.582 411.536C147.132 411.536 145.969 412.123 145.094 413.296C144.22 414.469 143.782 416.027 143.782 417.968C143.782 419.867 144.22 421.392 145.094 422.544C145.969 423.696 147.142 424.272 148.614 424.272ZM167.061 426.448C165.525 426.448 164.16 426.096 162.965 425.392C161.792 424.667 160.875 423.664 160.213 422.384C159.552 421.083 159.221 419.589 159.221 417.904C159.221 416.24 159.552 414.757 160.213 413.456C160.875 412.155 161.792 411.152 162.965 410.448C164.16 409.723 165.536 409.36 167.093 409.36C168.629 409.36 169.995 409.723 171.189 410.448C172.384 411.152 173.312 412.155 173.973 413.456C174.635 414.736 174.965 416.208 174.965 417.872C174.965 419.557 174.635 421.051 173.973 422.352C173.312 423.653 172.384 424.667 171.189 425.392C169.995 426.096 168.619 426.448 167.061 426.448ZM167.061 424.272C168.555 424.272 169.739 423.685 170.613 422.512C171.509 421.339 171.957 419.781 171.957 417.84C171.957 415.941 171.509 414.416 170.613 413.264C169.717 412.112 168.533 411.536 167.061 411.536C165.589 411.536 164.405 412.123 163.509 413.296C162.635 414.448 162.197 415.984 162.197 417.904C162.197 419.824 162.635 421.371 163.509 422.544C164.405 423.696 165.589 424.272 167.061 424.272ZM190.198 409.808H193.014V426H190.198V418.8H181.782V426H178.966V409.808H181.782V416.688H190.198V409.808ZM209.355 409.808H212.171V426H209.355V418.8H200.939V426H198.123V409.808H200.939V416.688H209.355V409.808ZM223.327 415.792C225.289 415.792 226.825 416.251 227.935 417.168C229.065 418.085 229.631 419.333 229.631 420.912C229.631 422.469 229.076 423.707 227.967 424.624C226.879 425.541 225.385 426 223.487 426H217.279V409.808H220.095V415.792H223.327ZM223.135 423.824C224.223 423.824 225.076 423.568 225.695 423.056C226.335 422.544 226.655 421.829 226.655 420.912C226.655 419.995 226.345 419.28 225.727 418.768C225.108 418.235 224.244 417.968 223.135 417.968H220.095V423.824H223.135ZM233.311 409.808H236.159V426H233.311V409.808ZM252.61 409.808H255.426V426H252.674V413.328L244.002 426H241.154V409.808H243.938V422.48L252.61 409.808ZM248.258 407.44C246.807 407.44 245.623 407.013 244.706 406.16C243.81 405.307 243.34 404.187 243.298 402.8H245.538C245.58 403.611 245.847 404.24 246.338 404.688C246.828 405.136 247.479 405.36 248.29 405.36C249.122 405.36 249.772 405.136 250.242 404.688C250.732 404.219 250.999 403.589 251.042 402.8H253.282C253.239 404.187 252.759 405.307 251.842 406.16C250.924 407.013 249.73 407.44 248.258 407.44ZM280.665 426L275.225 418.832H272.345V426H269.529V409.808H272.345V416.72H275.161L280.217 409.808H283.545L277.625 417.584L284.089 426H280.665ZM300.377 409.808L293.081 428.208C292.484 429.701 291.78 430.789 290.969 431.472C290.18 432.176 289.22 432.528 288.089 432.528C287.236 432.528 286.361 432.315 285.465 431.888L286.169 429.712C286.425 429.904 286.713 430.053 287.033 430.16C287.353 430.288 287.641 430.352 287.897 430.352C288.665 430.352 289.305 430.085 289.817 429.552C290.351 429.019 290.82 428.133 291.225 426.896L291.353 426.576L284.633 409.808H287.673L292.601 423.216L297.593 409.808H300.377ZM311.63 409.36C313.017 409.36 314.243 409.723 315.31 410.448C316.377 411.152 317.198 412.144 317.774 413.424C318.371 414.704 318.67 416.187 318.67 417.872C318.67 419.579 318.361 421.083 317.742 422.384C317.145 423.664 316.302 424.667 315.214 425.392C314.147 426.096 312.921 426.448 311.534 426.448C310.382 426.448 309.326 426.192 308.366 425.68C307.427 425.147 306.681 424.411 306.126 423.472V432.08H303.31V409.808H305.742L306.03 412.752C306.563 411.707 307.321 410.885 308.302 410.288C309.305 409.669 310.414 409.36 311.63 409.36ZM310.958 424.272C312.409 424.272 313.561 423.707 314.414 422.576C315.267 421.424 315.694 419.877 315.694 417.936C315.694 415.973 315.257 414.416 314.382 413.264C313.529 412.112 312.377 411.536 310.926 411.536C309.475 411.536 308.313 412.123 307.438 413.296C306.563 414.469 306.126 416.027 306.126 417.968C306.126 419.867 306.563 421.392 307.438 422.544C308.313 423.696 309.486 424.272 310.958 424.272ZM329.661 426.448C328.061 426.448 326.642 426.085 325.405 425.36C324.189 424.635 323.24 423.621 322.557 422.32C321.896 421.019 321.565 419.536 321.565 417.872C321.565 416.208 321.906 414.736 322.589 413.456C323.272 412.155 324.221 411.152 325.437 410.448C326.653 409.723 328.05 409.36 329.629 409.36C331.037 409.36 332.296 409.659 333.405 410.256C334.514 410.853 335.378 411.696 335.997 412.784L334.045 414.16C332.893 412.411 331.442 411.536 329.693 411.536C328.157 411.536 326.909 412.123 325.949 413.296C325.01 414.448 324.541 415.952 324.541 417.808C324.541 419.067 324.754 420.187 325.181 421.168C325.629 422.149 326.237 422.917 327.005 423.472C327.794 424.005 328.701 424.272 329.725 424.272C331.517 424.272 332.968 423.387 334.077 421.616L336.029 423.024C335.41 424.133 334.546 424.987 333.437 425.584C332.349 426.16 331.09 426.448 329.661 426.448Z" fill="white"/>
<rect x="50" y="576" width="324" height="74" rx="20" fill="#FFB58B"/>
<path d="M118.204 603.6H120.46V621H118.204V613.056H109.036V621H106.78V603.6H109.036V611.256H118.204V603.6ZM139.294 621L137.662 616.728H129.406L127.75 621H125.398L132.406 603.6H134.806L141.79 621H139.294ZM130.102 614.928H136.966L133.534 606.024L130.102 614.928ZM157.176 603.6V621H154.92V614.352C154.136 614.576 153.328 614.752 152.496 614.88C151.664 615.008 150.896 615.072 150.192 615.072C148.208 615.072 146.696 614.568 145.656 613.56C144.616 612.536 144.096 611.072 144.096 609.168V603.6H146.352V609.192C146.352 610.44 146.656 611.44 147.264 612.192C147.888 612.928 149 613.296 150.6 613.296C151.944 613.296 153.384 613.056 154.92 612.576V603.6H157.176ZM176.016 621L174.384 616.728H166.128L164.472 621H162.12L169.128 603.6H171.528L178.512 621H176.016ZM166.824 614.928H173.688L170.256 606.024L166.824 614.928ZM192.74 603.6V605.376H187.316V621H185.06V605.376H179.636V603.6H192.74ZM203.24 610.32C204.488 610.32 205.568 610.536 206.48 610.968C207.408 611.4 208.12 612.016 208.616 612.816C209.112 613.616 209.36 614.552 209.36 615.624C209.36 616.696 209.112 617.64 208.616 618.456C208.136 619.272 207.448 619.904 206.552 620.352C205.656 620.784 204.616 621 203.432 621H197.6V603.6H199.88V610.32H203.24ZM203.024 619.2C204.24 619.2 205.2 618.88 205.904 618.24C206.624 617.6 206.984 616.728 206.984 615.624C206.984 614.552 206.632 613.704 205.928 613.08C205.224 612.44 204.256 612.12 203.024 612.12H199.88V619.2H203.024ZM235.524 621L230.292 613.104H226.548V621H224.268V603.6H226.548V611.304H230.268L235.14 603.6H237.684L232.212 611.808V612.096L238.284 621H235.524ZM256.106 603.6L249.29 617.952C248.73 619.12 248.106 619.976 247.418 620.52C246.73 621.048 245.906 621.312 244.946 621.312C244.242 621.312 243.506 621.184 242.738 620.928L243.482 619.224C243.93 619.448 244.386 619.56 244.85 619.56C245.394 619.56 245.842 619.384 246.194 619.032C246.562 618.664 246.954 618.088 247.37 617.304L247.682 616.728L240.962 603.6H243.434L248.762 614.448L253.778 603.6H256.106ZM266.992 603.6C268.224 603.6 269.304 603.832 270.232 604.296C271.16 604.744 271.88 605.392 272.392 606.24C272.904 607.072 273.16 608.048 273.16 609.168C273.16 610.272 272.904 611.24 272.392 612.072C271.896 612.904 271.176 613.552 270.232 614.016C269.304 614.464 268.224 614.688 266.992 614.688H263.128V621H260.872V603.6H266.992ZM266.632 612.936C267.912 612.936 268.928 612.6 269.68 611.928C270.432 611.256 270.808 610.336 270.808 609.168C270.808 607.984 270.432 607.056 269.68 606.384C268.944 605.696 267.928 605.352 266.632 605.352H263.128V612.936H266.632ZM285.941 621.336C284.325 621.336 282.893 620.952 281.645 620.184C280.397 619.416 279.429 618.352 278.741 616.992C278.053 615.616 277.709 614.056 277.709 612.312C277.709 610.552 278.053 608.992 278.741 607.632C279.429 606.256 280.397 605.184 281.645 604.416C282.893 603.648 284.325 603.264 285.941 603.264C287.317 603.264 288.557 603.544 289.661 604.104C290.765 604.664 291.669 605.48 292.373 606.552L290.813 607.824C289.613 606 287.997 605.088 285.965 605.088C284.781 605.088 283.733 605.392 282.821 606C281.909 606.592 281.197 607.432 280.685 608.52C280.189 609.592 279.941 610.832 279.941 612.24C279.941 613.664 280.197 614.928 280.709 616.032C281.221 617.136 281.933 617.992 282.845 618.6C283.773 619.208 284.829 619.512 286.013 619.512C288.013 619.512 289.653 618.648 290.933 616.92L292.493 618.168C291.789 619.208 290.869 620 289.733 620.544C288.613 621.072 287.349 621.336 285.941 621.336Z" fill="#2F2F2F"/>
<path d="M309.5 621L309.5 605" stroke="#2F2F2F"/>
<g clip-path="url(#clip1_2_751)">
<path d="M326.5 613H348.5M339.5 622L348.5 613L339.5 604" stroke="#2F2F2F" stroke-width="2" stroke-linecap="round" stroke-linejoin="round"/>
</g>
<path d="M751.5 709.5H694L861.758 373.116L1007 -70L1080.5 -65.5L861.758 373.116L751.5 709.5Z" fill="#FFB58B"/>
<path d="M725 735H679L855.429 393.142L856.5 390.334L1024.5 -50L1080 -42L855.429 393.142L725 735Z" fill="#E7D8B6"/>
</g>
<defs>
<clipPath id="clip0_2_751">
<rect width="1280" height="720" fill="white"/>
</clipPath>
<clipPath id="clip1_2_751">
<rect width="24" height="24" fill="white" transform="translate(325.5 601)"/>
</clipPath>
</defs>
</svg>
